<?xml version="1.0" encoding="UTF-8"?>
<svg version="1.1" xmlns="http://www.w3.org/2000/svg" width="474" height="474">
<path d="M0 0 C156.42 0 312.84 0 474 0 C474 156.42 474 312.84 474 474 C317.58 474 161.16 474 0 474 C0 317.58 0 161.16 0 0 Z " fill="#020202" transform="translate(0,0)"/>
<path d="M0 0 C51.48 0 102.96 0 156 0 C156 26.07 156 52.14 156 79 C149.73 79 143.46 79 137 79 C136.67 80.98 136.34 82.96 136 85 C135.53441687 86.78946722 135.03767517 88.57108804 134.51171875 90.34375 C134.21716797 91.3440625 133.92261719 92.344375 133.61914062 93.375 C133.15797852 94.921875 133.15797852 94.921875 132.6875 96.5 C130.07869542 105.32105602 127.52729981 114.15445065 125 123 C140.18 123 155.36 123 171 123 C171 128.94 171 134.88 171 141 C109.62 141 48.24 141 -15 141 C-15 135.06 -15 129.12 -15 123 C-0.15 123 14.7 123 30 123 C24.06960259 102.8228194 24.06960259 102.8228194 17.8125 82.74609375 C17 80 17 80 17 78 C11.39 78 5.78 78 0 78 C0 52.26 0 26.52 0 0 Z " fill="#F9F9F9" transform="translate(54,185)"/>
<path d="M0 0 C0.66 0 1.32 0 2 0 C2 69.63 2 139.26 2 211 C-66.97 211 -135.94 211 -207 211 C-207 210.34 -207 209.68 -207 209 C-206.43941895 208.91548584 -205.87883789 208.83097168 -205.30126953 208.74389648 C-193.48154608 206.92189793 -181.87109841 204.65011687 -170.3125 201.5625 C-169.26400879 201.28656006 -168.21551758 201.01062012 -167.13525391 200.72631836 C-159.81507396 198.71520987 -152.94696418 196.04550328 -146 193 C-144.48463578 192.35875838 -142.96903419 191.71807723 -141.453125 191.078125 C-117.17806353 180.60137061 -95.00904612 166.64070512 -75.71875 148.53125 C-73.42087037 146.39184482 -71.08341193 144.3398101 -68.6875 142.3125 C-64.71733332 138.85487533 -61.38621714 135.02028967 -58 131 C-56.78183594 129.63101563 -56.78183594 129.63101563 -55.5390625 128.234375 C-47.75804845 119.42203968 -41.29573428 109.91229124 -35 100 C-34.58476074 99.35272949 -34.16952148 98.70545898 -33.74169922 98.03857422 C-23.34884563 81.74371215 -15.84975612 64.38646173 -10 46 C-9.59587891 44.75162354 -9.59587891 44.75162354 -9.18359375 43.47802734 C-4.61895595 29.20250852 -2.05601704 14.82953045 0 0 Z " fill="#FCFCFC" transform="translate(472,263)"/>
<path d="M0 0 C69.96 0 139.92 0 212 0 C212 0.66 212 1.32 212 2 C211.40276123 2.06469482 210.80552246 2.12938965 210.19018555 2.19604492 C196.41236429 3.73071953 183.2666775 5.96493401 170 10 C169.25975586 10.22026855 168.51951172 10.44053711 167.75683594 10.66748047 C134.74478449 20.60573907 103.52549421 38.1613291 78.375 61.77734375 C76.30036186 63.71890477 74.17828555 65.55244253 72 67.375 C45.64613442 90.46804246 24.37101476 125.22356329 14.0703125 158.60546875 C13.29310967 161.07039304 12.46250016 163.42031955 11.5234375 165.8203125 C9.80125708 170.35719853 8.61540681 174.96922652 7.5 179.6875 C7.28641846 180.58364014 7.07283691 181.47978027 6.8527832 182.40307617 C4.6045713 192.17876052 3.23952292 202.05358439 2 212 C1.34 212 0.68 212 0 212 C0 142.04 0 72.08 0 0 Z " fill="#FCFCFC" transform="translate(0,0)"/>
<path d="M0 0 C0.66 0 1.32 0 2 0 C2.10957031 0.8971875 2.21914063 1.794375 2.33203125 2.71875 C5.0119783 23.80971539 9.13210375 44.55024437 18 64 C18.58211754 65.3621346 19.16131821 66.72551785 19.73828125 68.08984375 C28.71284145 89.11326263 40.24470596 108.50139317 55 126 C55.69077637 126.82395264 55.69077637 126.82395264 56.39550781 127.66455078 C64.7914035 137.71053777 64.7914035 137.71053777 74 147 C74.55171875 147.51046875 75.1034375 148.0209375 75.671875 148.546875 C77.74663026 150.40883484 79.86446029 152.20791492 82 154 C82.49435547 154.41878418 82.98871094 154.83756836 83.49804688 155.26904297 C104.73800364 173.15631928 128.93809447 187.37517574 155 197 C155.70656738 197.26119629 156.41313477 197.52239258 157.14111328 197.79150391 C173.58368522 203.76693016 190.60303017 208.04101348 208 210 C208 210.66 208 211.32 208 212 C139.36 212 70.72 212 0 212 C0 142.04 0 72.08 0 0 Z " fill="#FCFCFC" transform="translate(0,262)"/>
<path d="M0 0 C68.97 0 137.94 0 209 0 C209 69.63 209 139.26 209 211 C208.34 211 207.68 211 207 211 C206.94054199 210.45400146 206.88108398 209.90800293 206.81982422 209.34545898 C203.75032895 182.14679145 196.30651632 156.45741154 184 132 C183.65179199 131.30632324 183.30358398 130.61264648 182.94482422 129.89794922 C178.19531082 120.51435469 173.10898687 111.58140805 167 103 C166.59023926 102.41508789 166.18047852 101.83017578 165.75830078 101.22753906 C160.13320124 93.21432718 154.21881506 85.73718945 147.48046875 78.6328125 C145.42606838 76.45223636 143.48280267 74.23442377 141.5625 71.9375 C132.09882846 61.11551325 120.55911591 52.43752921 109 44 C108.39881348 43.5580127 107.79762695 43.11602539 107.17822266 42.66064453 C75.47101938 19.62457429 38.3612492 7.78340765 0 2 C0 1.34 0 0.68 0 0 Z " fill="#FCFCFC" transform="translate(265,0)"/>
<path d="M0 0 C2.01383519 1.75806342 3.61032261 3.35760458 5.3125 5.375 C5.76689453 5.88289062 6.22128906 6.39078125 6.68945312 6.9140625 C10 10.69754464 10 10.69754464 10 13 C10.66 13 11.32 13 12 13 C12 13.66 12 14.32 12 15 C10.68 15.33 9.36 15.66 8 16 C8.03741106 31.41389257 8.09762456 46.82757666 8.18390274 62.2412672 C8.22346314 69.40051259 8.2559709 76.55965172 8.27099609 83.71899414 C8.2841335 89.96983718 8.31139888 96.22044413 8.35461307 102.47115403 C8.37696124 105.77117656 8.39081603 109.07085492 8.39188385 112.37096214 C8.40205107 128.05502202 9.37360787 142.72105366 13 158 C13.25460999 159.14788498 13.50921997 160.29576996 13.77154541 161.47843933 C15.13250994 167.44719862 17.61326707 172.41275558 20.6953125 177.6875 C22 180 22 180 23 183 C10.01557007 186.8814666 10.01557007 186.8814666 6 186 C2.77628958 181.80405946 0.73101335 177.37746483 -1.0625 172.4375 C-1.31999023 171.73061035 -1.57748047 171.0237207 -1.84277344 170.29541016 C-9.56810559 148.57342107 -9.30005658 125.57880636 -9.1953125 102.7890625 C-9.19157049 100.35427976 -9.18872915 97.91949549 -9.18673706 95.48471069 C-9.17919402 89.15561577 -9.15962866 82.82661642 -9.1373291 76.49755859 C-9.11666664 70.00750012 -9.10769226 63.51742582 -9.09765625 57.02734375 C-9.07637154 44.3515211 -9.04235212 31.67576858 -9 19 C-12.3 19.66 -15.6 20.32 -19 21 C-19 67.86 -19 114.72 -19 163 C-15.37 163 -11.74 163 -8 163 C-8 168.61 -8 174.22 -8 180 C-17.10568505 181.51021118 -26.10593222 182.51089324 -35.3125 183.125 C-36.54162109 183.21136719 -37.77074219 183.29773438 -39.03710938 183.38671875 C-42.02440727 183.59594584 -45.01215957 183.79866882 -48 184 C-48 177.07 -48 170.14 -48 163 C-43.71 163 -39.42 163 -35 163 C-35 117.46 -35 71.92 -35 25 C-37.97 25.33 -40.94 25.66 -44 26 C-43.99555878 27.37285156 -43.99111755 28.74570313 -43.98654175 30.16015625 C-43.94597083 43.10786247 -43.91600362 56.05555576 -43.89637566 69.00331116 C-43.88594547 75.65962744 -43.8718001 82.31587868 -43.84912109 88.97216797 C-43.82736567 95.39771021 -43.81542561 101.82320307 -43.81024551 108.2487793 C-43.80655463 110.69833147 -43.79934727 113.14788099 -43.78853989 115.59741211 C-43.77398931 119.0324484 -43.77202358 122.46728152 -43.77294922 125.90234375 C-43.76575867 126.91151352 -43.75856812 127.92068329 -43.75115967 128.96043396 C-43.76778339 134.67415358 -44.39148953 139.51520551 -46 145 C-46.2371875 146.09957031 -46.474375 147.19914063 -46.71875 148.33203125 C-49.78768133 162.00412034 -54.984956 174.94369117 -60 188 C-61.41599775 187.53708858 -62.83120824 187.07176866 -64.24609375 186.60546875 C-65.0342749 186.34660889 -65.82245605 186.08774902 -66.63452148 185.82104492 C-69.83826452 184.70904287 -72.90454987 183.38307346 -76 182 C-74.38406191 177.1218869 -72.74580102 172.25372967 -71.0625 167.3984375 C-70.37487203 165.39066882 -69.687374 163.38285564 -69 161.375 C-68.65710938 160.39660156 -68.31421875 159.41820312 -67.9609375 158.41015625 C-61.98772939 140.83250949 -61.5319778 124.50894816 -61.48828125 106.06640625 C-61.47302639 103.37497343 -61.45339955 100.68357709 -61.43388367 97.99217224 C-61.39051674 91.67094744 -61.36178811 85.3497478 -61.33856028 79.02842039 C-61.31134696 71.8213635 -61.26744676 64.61443687 -61.22227156 57.40747368 C-61.12985328 42.6050598 -61.05797849 27.8025899 -61 13 C-58.46141174 12.36113349 -55.92255854 11.72335361 -53.38354492 11.08618164 C-52.31598591 10.81734035 -52.31598591 10.81734035 -51.22686005 10.54306793 C-45.28038716 9.0522116 -39.30988824 7.70814658 -33.3125 6.4375 C-31.3436183 6.01493609 -29.37486732 5.59176264 -27.40625 5.16796875 C-26.47941406 4.96864746 -25.55257812 4.76932617 -24.59765625 4.56396484 C-15.7417522 2.68294093 -15.7417522 2.68294093 -6.98046875 0.421875 C-4.40948378 -0.12579044 -2.62785177 -0.40550814 0 0 Z " fill="#F9F9F9" transform="translate(361,143)"/>
<path d="M0 0 C5.61 0 11.22 0 17 0 C17 4.62 17 9.24 17 14 C23.93 14 30.86 14 38 14 C38 19.94 38 25.88 38 32 C36.02 32 34.04 32 32 32 C32.01160156 32.70640625 32.02320313 33.4128125 32.03515625 34.140625 C32.09754439 41.23504728 31.90658423 48.28960705 31.5625 55.375 C31.52326416 56.21836914 31.48402832 57.06173828 31.44360352 57.93066406 C31.19894245 62.67737057 30.75272059 67.30656576 30 72 C32.97 72 35.94 72 39 72 C39 78.6 39 85.2 39 92 C32.07 92 25.14 92 18 92 C18 99.59 18 107.18 18 115 C23.94 115 29.88 115 36 115 C36 121.6 36 128.2 36 135 C30.06 135 24.12 135 18 135 C18 151.83 18 168.66 18 186 C11.73 186 5.46 186 -1 186 C-1 169.17 -1 152.34 -1 135 C-6.94 135 -12.88 135 -19 135 C-19 128.4 -19 121.8 -19 115 C-13.39 115 -7.78 115 -2 115 C-2 107.41 -2 99.82 -2 92 C-8.6 92 -15.2 92 -22 92 C-22 85.4 -22 78.8 -22 72 C-19.03 72 -16.06 72 -13 72 C-13.14151828 69.9163691 -13.28837936 67.83310062 -13.4375 65.75 C-13.51871094 64.58984375 -13.59992188 63.4296875 -13.68359375 62.234375 C-13.89560854 59.20270085 -13.89560854 59.20270085 -14.48632812 57.12304688 C-15.0785224 54.67546063 -15.3163806 52.30550242 -15.53515625 49.796875 C-15.62216797 48.8171875 -15.70917969 47.8375 -15.79882812 46.828125 C-15.88583984 45.81234375 -15.97285156 44.7965625 -16.0625 43.75 C-16.15337891 42.71875 -16.24425781 41.6875 -16.33789062 40.625 C-16.56144246 38.08356856 -16.7820399 35.54191609 -17 33 C-18.32 32.67 -19.64 32.34 -21 32 C-21 26.39 -21 20.78 -21 15 C-14.07 15 -7.14 15 0 15 C0 10.05 0 5.1 0 0 Z " fill="#F9F9F9" transform="translate(396,143)"/>
<path d="M0 0 C5.28 0 10.56 0 16 0 C16 4.95 16 9.9 16 15 C22.27 15 28.54 15 35 15 C35 20.28 35 25.56 35 31 C34.01 31 33.02 31 32 31 C32.020625 32.31742188 32.04125 33.63484375 32.0625 34.9921875 C32.0625 42.38811996 31.50472889 49.75053823 31 57.125 C30.90334382 58.57289654 30.80698746 60.02081312 30.7109375 61.46875 C30.47741032 64.97940426 30.23984121 68.48977077 30 72 C30.969375 71.979375 31.93875 71.95875 32.9375 71.9375 C36 72 36 72 37 73 C37.08651611 74.41570123 37.10704904 75.835595 37.09765625 77.25390625 C37.09515869 78.0229126 37.09266113 78.79191895 37.09008789 79.58422852 C37.08098389 80.56705811 37.07187988 81.5498877 37.0625 82.5625 C37.041875 85.676875 37.02125 88.79125 37 92 C30.73 92 24.46 92 18 92 C18 98.93 18 105.86 18 113 C24.93 112.01 24.93 112.01 32 111 C32 116.94 32 122.88 32 129 C23 131.25 23 131.25 18 131 C18.05329468 131.84788086 18.05329468 131.84788086 18.10766602 132.71289062 C18.36900911 140.33831836 16.84745971 147.14878843 14.9375 154.5 C14.62385498 155.72436768 14.31020996 156.94873535 13.98706055 158.21020508 C12.06968074 165.48534925 9.96838213 172.64608609 7.3125 179.6875 C6.90342407 180.79931641 6.90342407 180.79931641 6.48608398 181.93359375 C4.6143521 186.58951975 4.6143521 186.58951975 2.24609375 188.171875 C-1.31022558 187.89973926 -4.16702769 186.22617713 -7.25 184.5625 C-7.8996875 184.22412109 -8.549375 183.88574219 -9.21875 183.53710938 C-10.81814494 182.70213113 -12.40985859 181.85246886 -14 181 C-13.39980925 176.30565093 -12.05682861 172.42589795 -10.25 168.0625 C-6.14186296 157.7283198 -4.13076851 146.87978981 -2 136 C-3.21236328 136.2165625 -3.21236328 136.2165625 -4.44921875 136.4375 C-5.51785156 136.623125 -6.58648437 136.80875 -7.6875 137 C-8.74324219 137.185625 -9.79898438 137.37125 -10.88671875 137.5625 C-14 138 -14 138 -19 138 C-19 131.73 -19 125.46 -19 119 C-10 117 -10 117 -1 117 C-1 108.75 -1 100.5 -1 92 C-7.93 92 -14.86 92 -22 92 C-22 85.4 -22 78.8 -22 72 C-19.03 72 -16.06 72 -13 72 C-13.66 58.47 -14.32 44.94 -15 31 C-15.99 31 -16.98 31 -18 31 C-18 25.72 -18 20.44 -18 15 C-12.06 15 -6.12 15 0 15 C0 10.05 0 5.1 0 0 Z " fill="#F8F8F8" transform="translate(262,143)"/>
<path d="M0 0 C61.05 0 122.1 0 185 0 C185 6.93 185 13.86 185 21 C123.95 21 62.9 21 0 21 C0 14.07 0 7.14 0 0 Z " fill="#F7F7F7" transform="translate(40,145)"/>
<path d="M0 0 C31.02 0 62.04 0 94 0 C94 12.54 94 25.08 94 38 C62.98 38 31.96 38 0 38 C0 25.46 0 12.92 0 0 Z " fill="#060606" transform="translate(86,205)"/>
<path d="M0 0 C22.44 0 44.88 0 68 0 C65.75035663 10.12339515 65.75035663 10.12339515 64.6328125 13.98046875 C64.26675903 15.25229004 64.26675903 15.25229004 63.89331055 16.54980469 C63.63976807 17.42024414 63.38622559 18.29068359 63.125 19.1875 C62.59233041 21.02991395 62.05977873 22.87236199 61.52734375 24.71484375 C61.26808105 25.60929199 61.00881836 26.50374023 60.74169922 27.42529297 C60.06877441 29.76125906 59.40760906 32.10000071 58.75390625 34.44140625 C58.22603516 36.32666016 58.22603516 36.32666016 57.6875 38.25 C57.38199219 39.34828125 57.07648438 40.4465625 56.76171875 41.578125 C56 44 56 44 55 45 C51.97022196 45.08871273 48.96332978 45.1151935 45.93359375 45.09765625 C45.02497086 45.0962413 44.11634796 45.09482635 43.18019104 45.09336853 C40.26592779 45.08775193 37.35174019 45.07519665 34.4375 45.0625 C32.46679798 45.05748714 30.49609476 45.05292386 28.52539062 45.04882812 C23.68356441 45.03777711 18.84179505 45.02050138 14 45 C13.79748627 44.39164307 13.59497253 43.78328613 13.38632202 43.15649414 C13.11881134 42.35332764 12.85130066 41.55016113 12.57568359 40.72265625 C12.31129486 39.92867432 12.04690613 39.13469238 11.77450562 38.31665039 C11.11866 36.35492801 10.45474843 34.39590507 9.7890625 32.4375 C6.16688175 21.74112732 2.73993855 10.95975422 0 0 Z " fill="#060606" transform="translate(97,263)"/>
<path d="M0 0 C0 45.54 0 91.08 0 138 C-4.95 138.33 -9.9 138.66 -15 139 C-15.33 139.99 -15.66 140.98 -16 142 C-17.37771197 138.27930017 -16.57092409 136.13698772 -15.1875 132.5 C-13.28382209 127.15657305 -12.18213697 122.00736792 -11.39453125 116.3984375 C-11 114 -11 114 -10 112 C-9.89618184 110.5178625 -9.85351983 109.03122443 -9.84178162 107.54550171 C-9.8319928 106.60878128 -9.82220398 105.67206085 -9.81211853 104.70695496 C-9.80636307 103.67621353 -9.8006076 102.64547211 -9.79467773 101.58349609 C-9.78477814 100.50055771 -9.77487854 99.41761932 -9.76467896 98.30186462 C-9.73299765 94.7090781 -9.70828032 91.11627834 -9.68359375 87.5234375 C-9.66302995 85.03764495 -9.64203364 82.55185594 -9.62062073 80.06607056 C-9.57099623 74.18356894 -9.5257463 68.30104629 -9.48259836 62.41849387 C-9.42839765 55.06541731 -9.36743593 47.71239948 -9.30664062 40.359375 C-9.19898664 27.23962326 -9.0973699 14.11983189 -9 1 C-5.846632 0.29925156 -3.27275026 0 0 0 Z " fill="#0F0F0F" transform="translate(326,168)"/>
<path d="M0 0 C1.02480469 0.00644531 2.04960937 0.01289063 3.10546875 0.01953125 C4.16894531 0.03628906 5.23242188 0.05304688 6.328125 0.0703125 C7.94654297 0.08384766 7.94654297 0.08384766 9.59765625 0.09765625 C12.25803778 0.12119945 14.91796836 0.15408451 17.578125 0.1953125 C17.578125 0.5253125 17.578125 0.8553125 17.578125 1.1953125 C10.648125 1.1953125 3.718125 1.1953125 -3.421875 1.1953125 C-3.421875 6.8053125 -3.421875 12.4153125 -3.421875 18.1953125 C-1.771875 18.5253125 -0.121875 18.8553125 1.578125 19.1953125 C1.63347412 19.84081055 1.68882324 20.48630859 1.74584961 21.15136719 C1.99911111 24.08298105 2.25731536 27.01413931 2.515625 29.9453125 C2.60263672 30.96109375 2.68964844 31.976875 2.77929688 33.0234375 C2.86630859 34.003125 2.95332031 34.9828125 3.04296875 35.9921875 C3.121521 36.89291992 3.20007324 37.79365234 3.28100586 38.72167969 C3.54995089 40.96075207 4.02879702 43.01389024 4.578125 45.1953125 C4.64603175 47.44438402 4.66312484 49.69532855 4.640625 51.9453125 C4.63160156 53.11578125 4.62257813 54.28625 4.61328125 55.4921875 C4.60167969 56.38421875 4.59007812 57.27625 4.578125 58.1953125 C1.608125 58.1953125 -1.361875 58.1953125 -4.421875 58.1953125 C-4.421875 64.7953125 -4.421875 71.3953125 -4.421875 78.1953125 C-4.751875 78.1953125 -5.081875 78.1953125 -5.421875 78.1953125 C-5.421875 71.5953125 -5.421875 64.9953125 -5.421875 58.1953125 C-6.411875 58.6903125 -6.411875 58.6903125 -7.421875 59.1953125 C-7.73428955 61.90978229 -7.93524092 64.53440611 -8.046875 67.2578125 C-8.08554687 68.01642578 -8.12421875 68.77503906 -8.1640625 69.55664062 C-8.25861062 71.43578445 -8.34134256 73.31551586 -8.421875 75.1953125 C-8.751875 75.1953125 -9.081875 75.1953125 -9.421875 75.1953125 C-9.421875 51.1053125 -9.421875 27.0153125 -9.421875 2.1953125 C-5.50967731 0.23921365 -4.16905324 -0.04632281 0 0 Z " fill="#0E0E0E" transform="translate(378.421875,156.8046875)"/>
<path d="M0 0 C4.95 0 9.9 0 15 0 C15.10462342 9.33110126 14.72336229 18.5114295 14 27.8125 C13.85691406 29.72772461 13.85691406 29.72772461 13.7109375 31.68164062 C13.47824311 34.78811078 13.24120375 37.89418101 13 41 C9.37 41 5.74 41 2 41 C1.7108775 36.76850764 1.42624432 32.53674254 1.14550781 28.3046875 C1.04969245 26.86938622 0.95271709 25.43416183 0.85449219 23.99902344 C0.30712822 15.98963643 -0.12577223 8.03370108 0 0 Z " fill="#0A0A0A" transform="translate(263,174)"/>
<path d="M0 0 C5.28 0 10.56 0 16 0 C15.29038851 13.36434965 14.2094916 26.67210713 13 40 C10.03 40 7.06 40 4 40 C3.91435791 39.10804932 3.82871582 38.21609863 3.74047852 37.29711914 C3.41858063 33.9479466 3.09608222 30.59883295 2.77319336 27.24975586 C2.63428546 25.80772128 2.49560824 24.36566447 2.35717773 22.92358398 C1.62293484 15.27632493 0.87836227 7.63237115 0 0 Z " fill="#090909" transform="translate(396,175)"/>
<path d="M0 0 C0.33 0 0.66 0 1 0 C1 39.93 1 79.86 1 121 C0.67 121 0.34 121 0 121 C-0.33 100.87 -0.66 80.74 -1 60 C-2.98 59.67 -4.96 59.34 -7 59 C-7.26704471 45.18785425 -6.54358718 31.72690029 -5 18 C-4.01 18 -3.02 18 -2 18 C-2.02320313 16.86820313 -2.04640625 15.73640625 -2.0703125 14.5703125 C-2.08906901 13.08854825 -2.10726934 11.60677688 -2.125 10.125 C-2.14175781 9.37863281 -2.15851563 8.63226563 -2.17578125 7.86328125 C-2.1933959 5.90805539 -2.10320189 3.95257979 -2 2 C-1.34 1.34 -0.68 0.68 0 0 Z " fill="#121212" transform="translate(299,156)"/>
<path d="M0 0 C0.66 0.33 1.32 0.66 2 1 C1.01 2.485 1.01 2.485 0 4 C-0.31232962 6.62798222 -0.31232962 6.62798222 -0.2784729 9.63774109 C-0.28963638 10.8114325 -0.30079987 11.9851239 -0.31230164 13.19438171 C-0.31446182 14.48334854 -0.31662201 15.77231537 -0.31884766 17.1003418 C-0.32814496 18.47023105 -0.33831334 19.84011462 -0.34928894 21.20999146 C-0.37662541 24.93075747 -0.39174909 28.65148555 -0.40471697 32.37232566 C-0.4203316 36.2601277 -0.44712711 40.14785209 -0.4727478 44.03559875 C-0.51956519 51.39844928 -0.55629494 58.76131437 -0.58942068 66.12423784 C-0.62762118 74.50629984 -0.67703674 82.8882839 -0.72740483 91.27028024 C-0.8307687 108.51346382 -0.92001458 125.75669247 -1 143 C-1.33 143 -1.66 143 -2 143 C-2 96.14 -2 49.28 -2 1 C-1.34 0.67 -0.68 0.34 0 0 Z " fill="#373737" transform="translate(344,163)"/>
<path d="M0 0 C1.65 0 3.3 0 5 0 C5 4.62 5 9.24 5 14 C3.35 14.66 1.7 15.32 0 16 C0 10.72 0 5.44 0 0 Z " fill="#040404" transform="translate(369,159)"/>
<path d="M0 0 C0.33 0 0.66 0 1 0 C2.09845718 4.32059823 3.17812739 8.61667943 4 13 C1.525 12.01 1.525 12.01 -1 11 C-1 15.29 -1 19.58 -1 24 C-3.97 23.67 -6.94 23.34 -10 23 C-10 22.67 -10 22.34 -10 22 C-7.69 22 -5.38 22 -3 22 C-3.33 16.06 -3.66 10.12 -4 4 C-3.01 3.67 -2.02 3.34 -1 3 C-0.67 2.01 -0.34 1.02 0 0 Z " fill="#242424" transform="translate(356,301)"/>
<path d="M0 0 C0.80566406 0.00322266 1.61132812 0.00644531 2.44140625 0.00976562 C3.70404297 0.02233398 3.70404297 0.02233398 4.9921875 0.03515625 C5.84167969 0.03966797 6.69117188 0.04417969 7.56640625 0.04882812 C9.66669659 0.06062751 11.7669508 0.07856319 13.8671875 0.09765625 C13.8671875 0.75765625 13.8671875 1.41765625 13.8671875 2.09765625 C11.63868473 2.43539957 9.40935283 2.76767495 7.1796875 3.09765625 C5.31763672 3.37609375 5.31763672 3.37609375 3.41796875 3.66015625 C0.50832379 4.01866036 -2.20981272 4.18707881 -5.1328125 4.09765625 C-5.4628125 3.10765625 -5.7928125 2.11765625 -6.1328125 1.09765625 C-3.8362755 -0.05061225 -2.54968083 -0.0179555 0 0 Z " fill="#D7D7D7" transform="translate(198.1328125,-0.09765625)"/>
<path d="M0 0 C0.66 0.66 1.32 1.32 2 2 C-3.94 7.445 -3.94 7.445 -10 13 C-10.99 12.01 -11.98 11.02 -13 10 C-8.88944198 5.66107764 -5.82768735 3.24879015 0 2 C0 1.34 0 0.68 0 0 Z " fill="#E9E9E9" transform="translate(86,51)"/>
<path d="M0 0 C0.66 0.33 1.32 0.66 2 1 C1.484375 1.763125 0.96875 2.52625 0.4375 3.3125 C-0.036875 4.199375 -0.51125 5.08625 -1 6 C-0.67 6.99 -0.34 7.98 0 9 C-1.1875 10.5 -1.1875 10.5 -3 12 C-5.61328125 12.09375 -5.61328125 12.09375 -8 12 C-6.85573734 10.186508 -5.70954608 8.37423275 -4.5625 6.5625 C-3.60537109 5.04849609 -3.60537109 5.04849609 -2.62890625 3.50390625 C-1 1 -1 1 0 0 Z " fill="#ECECEC" transform="translate(432,371)"/>
<path d="M0 0 C0.66 0 1.32 0 2 0 C3.62950412 4.12168689 4.26264601 6.70700357 3 11 C0.525 10.01 0.525 10.01 -2 9 C-1.51421457 5.87709365 -1.0013988 3.00419641 0 0 Z " fill="#EAEAEA" transform="translate(250,315)"/>
<path d="M0 0 C3.19624262 1.53837846 6.21605574 3.28866532 9.25 5.125 C10.14203125 5.66382813 11.0340625 6.20265625 11.953125 6.7578125 C12.96632813 7.37269531 12.96632813 7.37269531 14 8 C10.71023192 9.09658936 9.28696233 8.79953138 6 8 C6 7.34 6 6.68 6 6 C5.401875 5.9175 4.80375 5.835 4.1875 5.75 C1.4033704 4.79544128 0.56688858 3.42867729 -1 1 C-0.67 0.67 -0.34 0.34 0 0 Z " fill="#E7E7E7" transform="translate(100,431)"/>
<path d="M0 0 C3 2 3 2 3.875 4.4375 C3.91625 5.283125 3.9575 6.12875 4 7 C3.01 7.99 2.02 8.98 1 10 C-0.65 7.69 -2.3 5.38 -4 3 C-3.01 2.67 -2.02 2.34 -1 2 C-0.67 1.34 -0.34 0.68 0 0 Z " fill="#141414" transform="translate(52,377)"/>
<path d="M0 0 C0.66 0.33 1.32 0.66 2 1 C1.67 5.29 1.34 9.58 1 14 C0.34 14 -0.32 14 -1 14 C-1.02694851 12.04174127 -1.04637218 10.08337774 -1.0625 8.125 C-1.07410156 7.03445312 -1.08570312 5.94390625 -1.09765625 4.8203125 C-1 2 -1 2 0 0 Z " fill="#CACACA" transform="translate(1,198)"/>
<path d="M0 0 C2.31 1.98 4.62 3.96 7 6 C6.67 7.65 6.34 9.3 6 11 C2.66442368 8.0094833 0.84916079 5.06815373 -1 1 C-0.67 0.67 -0.34 0.34 0 0 Z " fill="#EBEBEB" transform="translate(429,95)"/>
<path d="M0 0 C2.475 0.495 2.475 0.495 5 1 C4.67 1.99 4.34 2.98 4 4 C4.99 4.33 5.98 4.66 7 5 C5.02 5.66 3.04 6.32 1 7 C0.67 4.69 0.34 2.38 0 0 Z " fill="#0D0D0D" transform="translate(281,321)"/>
<path d="M0 0 C3.3 0 6.6 0 10 0 C10 0.99 10 1.98 10 3 C6.7 2.67 3.4 2.34 0 2 C0 1.34 0 0.68 0 0 Z " fill="#E8E8E8" transform="translate(265,0)"/>
<path d="M0 0 C2.4375 0.75 2.4375 0.75 5 2 C5.8125 4.125 5.8125 4.125 6 6 C3.69 5.34 1.38 4.68 -1 4 C-0.67 2.68 -0.34 1.36 0 0 Z " fill="#E5E5E5" transform="translate(286,321)"/>
<path d="M0 0 C0.99 0.33 1.98 0.66 3 1 C3.33 2.65 3.66 4.3 4 6 C2.68 6.33 1.36 6.66 0 7 C-0.93423645 3.98968256 -1.04449911 3.13349732 0 0 Z " fill="#0E0E0E" transform="translate(466,277)"/>
<path d="M0 0 C1.32 0.33 2.64 0.66 4 1 C4 1.99 4 2.98 4 4 C2.35 4.33 0.7 4.66 -1 5 C-1.33 4.34 -1.66 3.68 -2 3 C-1.34 2.01 -0.68 1.02 0 0 Z " fill="#EEEEEE" transform="translate(43,377)"/>
<path d="M0 0 C0.99 0 1.98 0 3 0 C2.67 1.32 2.34 2.64 2 4 C1.34 4 0.68 4 0 4 C-0.66 5.32 -1.32 6.64 -2 8 C-1.125 1.125 -1.125 1.125 0 0 Z " fill="#222222" transform="translate(12,162)"/>
<path d="M0 0 C0.66 0.66 1.32 1.32 2 2 C1.01 3.32 0.02 4.64 -1 6 C-2.32 5.34 -3.64 4.68 -5 4 C-3.35 2.68 -1.7 1.36 0 0 Z " fill="#191919" transform="translate(77,62)"/>
<path d="M0 0 C0.66 0.66 1.32 1.32 2 2 C-0.97 4.475 -0.97 4.475 -4 7 C-4.66 6.34 -5.32 5.68 -6 5 C-2.25 2 -2.25 2 0 2 C0 1.34 0 0.68 0 0 Z " fill="#E2E2E2" transform="translate(86,51)"/>
<path d="M0 0 C0.66 0.33 1.32 0.66 2 1 C1.01 1.99 0.02 2.98 -1 4 C-1 1 -1 1 0 0 Z M-4 3 C-3.34 3.33 -2.68 3.66 -2 4 C-2 4.66 -2 5.32 -2 6 C-3.65 6 -5.3 6 -7 6 C-6.01 5.01 -5.02 4.02 -4 3 Z " fill="#E3E3E3" transform="translate(375,429)"/>
<path d="M0 0 C2.475 0.99 2.475 0.99 5 2 C4.67 3.65 4.34 5.3 4 7 C0 2.25 0 2.25 0 0 Z " fill="#101010" transform="translate(42,370)"/>
<path d="M0 0 C2.125 0.9375 2.125 0.9375 4 2 C3.67 2.66 3.34 3.32 3 4 C1.02 4 -0.96 4 -3 4 C-2.67 3.01 -2.34 2.02 -2 1 C-1.34 0.67 -0.68 0.34 0 0 Z " fill="#111111" transform="translate(126,27)"/>
<path d="M0 0 C0 0.66 0 1.32 0 2 C-1.65 2.33 -3.3 2.66 -5 3 C-5 3.66 -5 4.32 -5 5 C-6.32 4.34 -7.64 3.68 -9 3 C-5.87496336 0.91664224 -3.72863529 0 0 0 Z " fill="#D1D1D1" transform="translate(305,464)"/>
<path d="M0 0 C0.99 0.33 1.98 0.66 3 1 C1.02 3.97 1.02 3.97 -1 7 C-1.66 5.68 -2.32 4.36 -3 3 C-2.01 2.01 -1.02 1.02 0 0 Z " fill="#171717" transform="translate(423,379)"/>
<path d="M0 0 C0.66 0.33 1.32 0.66 2 1 C1.49396008 3.16874252 1.00016187 4.99967627 0 7 C-0.66 7 -1.32 7 -2 7 C-1.125 1.125 -1.125 1.125 0 0 Z " fill="#0F0F0F" transform="translate(435,361)"/>
<path d="M0 0 C2.25 0.25 2.25 0.25 4 1 C3.01 2.485 3.01 2.485 2 4 C0 4 -2 4 -4 4 C-2.25 1.9375 -2.25 1.9375 0 0 Z " fill="#1D1D1D" transform="translate(60,79)"/>
</svg>
