<svg id="SvgjsSvg1011" width="288" height="288" xmlns="http://www.w3.org/2000/svg" version="1.1" xmlns:xlink="http://www.w3.org/1999/xlink" xmlns:svgjs="http://svgjs.com/svgjs"><defs id="SvgjsDefs1012"></defs><g id="SvgjsG1013"><svg xmlns="http://www.w3.org/2000/svg" fill="none" viewBox="0 0 24 24" width="288" height="288"><path fill="#000000" fill-rule="evenodd" d="M5 1C2.79086 1 1 2.79086 1 5V19C1 21.2091 2.79086 23 5 23H19C21.2091 23 23 21.2091 23 19V5C23 2.79086 21.2091 1 19 1H5ZM6 9C6 8.44772 6.44772 8 7 8H17C17.5523 8 18 8.44772 18 9V13.5C18 14.0523 17.5523 14.5 17 14.5H16.2208L15.3874 17H18V19H14H10H6V17H8.61257L7.77924 14.5H7C6.44772 14.5 6 14.0523 6 13.5V9ZM14.1126 14.5L13.2792 17H10.7208L9.88743 14.5H14.1126ZM8.5 12.5H15.5H16V10H8V12.5H8.5ZM6 7H18V5H6V7Z" clip-rule="evenodd" class="color000 svgShape"></path></svg></g></svg>