<svg xmlns="http://www.w3.org/2000/svg" xmlns:xlink="http://www.w3.org/1999/xlink" width="500" zoomAndPan="magnify" viewBox="0 0 375 374.999991" height="500" preserveAspectRatio="xMidYMid meet" version="1.0"><defs><g/><clipPath id="4ca862172a"><path d="M 72 76 L 285 76 L 285 302 L 72 302 Z M 72 76 " clip-rule="nonzero"/></clipPath><clipPath id="e72eca9f5c"><path d="M 56.28125 77.539062 L 273.226562 53.683594 L 300.441406 301.191406 L 83.5 325.046875 Z M 56.28125 77.539062 " clip-rule="nonzero"/></clipPath><clipPath id="fa6304f58d"><path d="M 56.28125 77.539062 L 273.226562 53.683594 L 300.441406 301.191406 L 83.5 325.046875 Z M 56.28125 77.539062 " clip-rule="nonzero"/></clipPath><clipPath id="e5fc1ebabb"><path d="M 98 115 L 116 115 L 116 127 L 98 127 Z M 98 115 " clip-rule="nonzero"/></clipPath><clipPath id="4e0b820062"><path d="M 83.28125 71.101562 L 156.84375 94.679688 L 111.0625 237.523438 L 37.5 213.945312 Z M 83.28125 71.101562 " clip-rule="nonzero"/></clipPath><clipPath id="5e5fe51797"><path d="M 83.28125 71.101562 L 156.84375 94.679688 L 111.0625 237.523438 L 37.5 213.945312 Z M 83.28125 71.101562 " clip-rule="nonzero"/></clipPath><clipPath id="2f14fa4f13"><path d="M 72 80 L 147 80 L 147 157 L 72 157 Z M 72 80 " clip-rule="nonzero"/></clipPath><clipPath id="a43e1c161c"><path d="M 83.28125 71.101562 L 156.84375 94.679688 L 111.0625 237.523438 L 37.5 213.945312 Z M 83.28125 71.101562 " clip-rule="nonzero"/></clipPath><clipPath id="7f6b54e1ea"><path d="M 83.28125 71.101562 L 156.84375 94.679688 L 111.0625 237.523438 L 37.5 213.945312 Z M 83.28125 71.101562 " clip-rule="nonzero"/></clipPath><clipPath id="6a9bec5aa6"><path d="M 83.695312 71.234375 L 157.777344 94.980469 L 135.519531 164.433594 L 61.433594 140.6875 Z M 83.695312 71.234375 " clip-rule="nonzero"/></clipPath><clipPath id="f38c68a1dc"><path d="M 83.695312 71.234375 L 156.710938 94.636719 L 134.453125 164.089844 L 61.433594 140.6875 Z M 83.695312 71.234375 " clip-rule="nonzero"/></clipPath><clipPath id="1b5d42fd93"><path d="M 76 150 L 100 150 L 100 227 L 76 227 Z M 76 150 " clip-rule="nonzero"/></clipPath><clipPath id="231022fad0"><path d="M 83.28125 71.101562 L 156.84375 94.679688 L 111.0625 237.523438 L 37.5 213.945312 Z M 83.28125 71.101562 " clip-rule="nonzero"/></clipPath><clipPath id="ea80d96925"><path d="M 83.28125 71.101562 L 156.84375 94.679688 L 111.0625 237.523438 L 37.5 213.945312 Z M 83.28125 71.101562 " clip-rule="nonzero"/></clipPath><clipPath id="a0fc146ada"><path d="M 95.332031 146.445312 L 104.589844 149.414062 L 79.363281 228.128906 L 70.101562 225.160156 Z M 95.332031 146.445312 " clip-rule="nonzero"/></clipPath><clipPath id="702edfb2e1"><path d="M 95.332031 146.445312 L 104.589844 149.414062 L 79.5625 227.503906 L 70.304688 224.535156 Z M 95.332031 146.445312 " clip-rule="nonzero"/></clipPath><clipPath id="333f397e25"><path d="M 65 153 L 85 153 L 85 197 L 65 197 Z M 65 153 " clip-rule="nonzero"/></clipPath><clipPath id="3d27f6e937"><path d="M 83.28125 71.101562 L 156.84375 94.679688 L 111.0625 237.523438 L 37.5 213.945312 Z M 83.28125 71.101562 " clip-rule="nonzero"/></clipPath><clipPath id="f15df50c84"><path d="M 83.28125 71.101562 L 156.84375 94.679688 L 111.0625 237.523438 L 37.5 213.945312 Z M 83.28125 71.101562 " clip-rule="nonzero"/></clipPath><clipPath id="d3fa78b6a6"><path d="M 88 163 L 130 163 L 130 177 L 88 177 Z M 88 163 " clip-rule="nonzero"/></clipPath><clipPath id="4a02927510"><path d="M 83.28125 71.101562 L 156.84375 94.679688 L 111.0625 237.523438 L 37.5 213.945312 Z M 83.28125 71.101562 " clip-rule="nonzero"/></clipPath><clipPath id="f31bc2f1fa"><path d="M 83.28125 71.101562 L 156.84375 94.679688 L 111.0625 237.523438 L 37.5 213.945312 Z M 83.28125 71.101562 " clip-rule="nonzero"/></clipPath><clipPath id="ce0887c24b"><path d="M 98 169 L 111 169 L 111 173 L 98 173 Z M 98 169 " clip-rule="nonzero"/></clipPath><clipPath id="b6c395352c"><path d="M 83.28125 71.101562 L 156.84375 94.679688 L 111.0625 237.523438 L 37.5 213.945312 Z M 83.28125 71.101562 " clip-rule="nonzero"/></clipPath><clipPath id="2a0046c5e7"><path d="M 83.28125 71.101562 L 156.84375 94.679688 L 111.0625 237.523438 L 37.5 213.945312 Z M 83.28125 71.101562 " clip-rule="nonzero"/></clipPath></defs><g clip-path="url(#4ca862172a)"><g clip-path="url(#e72eca9f5c)"><g clip-path="url(#fa6304f58d)"><path fill="#040505" d="M 139.210938 83.507812 C 140.921875 82.871094 142.648438 82.28125 144.386719 81.730469 C 146.128906 81.179688 147.878906 80.671875 149.644531 80.203125 C 151.40625 79.738281 153.183594 79.316406 154.96875 78.9375 C 156.75 78.554688 158.542969 78.21875 160.347656 77.929688 C 162.148438 77.636719 163.953125 77.386719 165.769531 77.183594 C 167.582031 76.976562 169.398438 76.816406 171.21875 76.699219 C 173.039062 76.585938 174.863281 76.511719 176.6875 76.484375 C 178.511719 76.457031 180.335938 76.472656 182.160156 76.535156 C 183.984375 76.59375 185.804688 76.699219 187.625 76.847656 C 189.441406 77 191.257812 77.191406 193.066406 77.429688 C 194.875 77.667969 196.675781 77.949219 198.472656 78.273438 C 200.269531 78.597656 202.054688 78.96875 203.832031 79.378906 C 205.609375 79.789062 207.375 80.246094 209.132812 80.742188 C 210.886719 81.242188 212.628906 81.78125 214.359375 82.363281 C 216.089844 82.945312 217.804688 83.570312 219.5 84.234375 C 221.199219 84.902344 222.882812 85.609375 224.546875 86.355469 C 226.210938 87.101562 227.859375 87.890625 229.484375 88.71875 C 231.109375 89.542969 232.714844 90.410156 234.300781 91.316406 C 235.882812 92.222656 237.445312 93.164062 238.984375 94.144531 C 240.523438 95.128906 242.035156 96.144531 243.527344 97.199219 C 245.015625 98.253906 246.476562 99.34375 247.914062 100.472656 C 249.347656 101.597656 250.757812 102.757812 252.136719 103.953125 C 253.515625 105.144531 254.867188 106.371094 256.1875 107.632812 C 257.507812 108.890625 258.796875 110.183594 260.050781 111.507812 C 261.308594 112.828125 262.535156 114.179688 263.726562 115.5625 C 264.917969 116.945312 266.074219 118.355469 267.199219 119.792969 C 268.320312 121.230469 269.410156 122.695312 270.460938 124.1875 C 271.511719 125.675781 272.527344 127.191406 273.503906 128.734375 C 274.484375 130.273438 275.425781 131.835938 276.328125 133.421875 C 277.230469 135.007812 278.09375 136.617188 278.917969 138.246094 C 279.742188 139.871094 280.523438 141.519531 281.269531 143.183594 C 282.011719 144.851562 282.714844 146.535156 283.378906 148.234375 C 283.625 148.863281 283.867188 149.503906 284.105469 150.15625 L 282.460938 150.941406 C 282.207031 150.257812 281.953125 149.574219 281.683594 148.890625 C 281.027344 147.207031 280.332031 145.539062 279.59375 143.886719 C 278.855469 142.234375 278.078125 140.605469 277.261719 138.992188 C 276.441406 137.378906 275.585938 135.785156 274.691406 134.214844 C 273.792969 132.644531 272.859375 131.09375 271.890625 129.570312 C 270.917969 128.042969 269.910156 126.542969 268.863281 125.066406 C 267.820312 123.589844 266.738281 122.140625 265.625 120.71875 C 264.507812 119.292969 263.359375 117.898438 262.171875 116.53125 C 260.988281 115.164062 259.773438 113.828125 258.523438 112.523438 C 257.273438 111.214844 255.992188 109.9375 254.679688 108.695312 C 253.367188 107.449219 252.023438 106.238281 250.652344 105.058594 C 249.28125 103.878906 247.882812 102.734375 246.453125 101.625 C 245.027344 100.515625 243.574219 99.441406 242.09375 98.402344 C 240.613281 97.359375 239.109375 96.359375 237.578125 95.394531 C 236.050781 94.429688 234.496094 93.5 232.921875 92.609375 C 231.347656 91.722656 229.753906 90.871094 228.136719 90.058594 C 226.519531 89.25 224.882812 88.476562 223.230469 87.746094 C 221.574219 87.015625 219.90625 86.324219 218.21875 85.675781 C 216.527344 85.023438 214.828125 84.417969 213.109375 83.851562 C 211.390625 83.285156 209.660156 82.761719 207.917969 82.28125 C 206.175781 81.800781 204.417969 81.359375 202.65625 80.964844 C 200.890625 80.570312 199.117188 80.21875 197.335938 79.910156 C 195.554688 79.601562 193.765625 79.335938 191.96875 79.113281 C 190.175781 78.894531 188.375 78.714844 186.570312 78.582031 C 184.765625 78.449219 182.960938 78.363281 181.152344 78.316406 C 179.34375 78.273438 177.539062 78.273438 175.730469 78.316406 C 173.921875 78.359375 172.117188 78.449219 170.3125 78.582031 C 168.507812 78.714844 166.707031 78.890625 164.914062 79.109375 C 163.117188 79.332031 161.332031 79.59375 159.546875 79.902344 C 157.765625 80.210938 155.992188 80.5625 154.226562 80.957031 C 152.460938 81.351562 150.707031 81.789062 148.964844 82.273438 C 147.222656 82.753906 145.492188 83.277344 143.773438 83.839844 C 142.054688 84.40625 140.351562 85.015625 138.664062 85.664062 C 138.859375 84.949219 139.046875 84.238281 139.210938 83.511719 Z M 74.519531 227.636719 C 74.730469 228.199219 74.9375 228.753906 75.15625 229.3125 C 75.8125 231.003906 76.511719 232.675781 77.253906 234.332031 C 77.992188 235.984375 78.773438 237.621094 79.59375 239.238281 C 80.414062 240.855469 81.273438 242.453125 82.171875 244.027344 C 83.070312 245.601562 84.007812 247.152344 84.980469 248.683594 C 85.957031 250.210938 86.96875 251.714844 88.015625 253.195312 C 89.066406 254.671875 90.148438 256.125 91.269531 257.550781 C 92.390625 258.976562 93.542969 260.375 94.730469 261.742188 C 95.921875 263.113281 97.140625 264.453125 98.394531 265.761719 C 99.648438 267.070312 100.9375 268.347656 102.253906 269.59375 C 103.570312 270.839844 104.917969 272.054688 106.292969 273.234375 C 107.667969 274.414062 109.074219 275.558594 110.507812 276.671875 C 111.941406 277.78125 113.398438 278.859375 114.882812 279.898438 C 116.371094 280.9375 117.878906 281.941406 119.414062 282.90625 C 120.949219 283.871094 122.507812 284.796875 124.085938 285.6875 C 125.667969 286.574219 127.269531 287.425781 128.890625 288.234375 C 130.511719 289.046875 132.152344 289.816406 133.8125 290.546875 C 135.472656 291.277344 137.148438 291.964844 138.84375 292.613281 C 140.535156 293.261719 142.246094 293.867188 143.96875 294.429688 C 145.691406 294.992188 147.425781 295.515625 149.175781 295.992188 C 150.925781 296.472656 152.683594 296.90625 154.453125 297.300781 C 156.222656 297.691406 158.003906 298.039062 159.789062 298.34375 C 161.578125 298.648438 163.371094 298.910156 165.171875 299.128906 C 166.972656 299.34375 168.777344 299.515625 170.585938 299.644531 C 172.394531 299.773438 174.203125 299.855469 176.015625 299.898438 C 177.828125 299.9375 179.640625 299.929688 181.453125 299.882812 C 183.265625 299.832031 185.078125 299.738281 186.882812 299.597656 C 188.691406 299.460938 190.496094 299.277344 192.292969 299.050781 C 194.09375 298.824219 195.886719 298.554688 197.671875 298.238281 C 199.457031 297.925781 201.234375 297.566406 203 297.164062 C 204.769531 296.761719 206.527344 296.316406 208.273438 295.828125 C 210.019531 295.339844 211.75 294.808594 213.472656 294.234375 C 215.191406 293.660156 216.898438 293.046875 218.585938 292.390625 C 218.378906 293.105469 218.183594 293.824219 218.007812 294.546875 C 216.296875 295.191406 214.570312 295.789062 212.828125 296.347656 C 211.085938 296.90625 209.332031 297.421875 207.566406 297.894531 C 205.800781 298.367188 204.023438 298.796875 202.234375 299.183594 C 200.445312 299.570312 198.652344 299.914062 196.847656 300.214844 C 195.042969 300.511719 193.230469 300.765625 191.414062 300.976562 C 189.597656 301.1875 187.777344 301.355469 185.953125 301.476562 C 184.128906 301.597656 182.300781 301.675781 180.472656 301.710938 C 178.644531 301.742188 176.816406 301.730469 174.988281 301.675781 C 173.160156 301.617188 171.332031 301.519531 169.511719 301.375 C 167.6875 301.226562 165.867188 301.039062 164.054688 300.804688 C 162.238281 300.574219 160.433594 300.292969 158.632812 299.972656 C 156.832031 299.652344 155.039062 299.285156 153.257812 298.878906 C 151.476562 298.46875 149.703125 298.015625 147.941406 297.523438 C 146.183594 297.027344 144.433594 296.488281 142.699219 295.910156 C 140.964844 295.328125 139.246094 294.707031 137.542969 294.042969 C 135.835938 293.378906 134.152344 292.675781 132.480469 291.929688 C 130.8125 291.183594 129.160156 290.398438 127.527344 289.570312 C 125.898438 288.742188 124.285156 287.878906 122.695312 286.972656 C 121.109375 286.070312 119.542969 285.125 117.996094 284.144531 C 116.453125 283.164062 114.933594 282.144531 113.441406 281.089844 C 111.949219 280.035156 110.480469 278.945312 109.039062 277.816406 C 107.597656 276.691406 106.1875 275.53125 104.800781 274.335938 C 103.417969 273.140625 102.0625 271.910156 100.738281 270.648438 C 99.414062 269.386719 98.121094 268.09375 96.859375 266.769531 C 95.597656 265.445312 94.371094 264.09375 93.175781 262.707031 C 91.980469 261.324219 90.816406 259.914062 89.691406 258.472656 C 88.5625 257.03125 87.472656 255.5625 86.417969 254.070312 C 85.363281 252.574219 84.34375 251.058594 83.363281 249.515625 C 82.382812 247.96875 81.4375 246.402344 80.535156 244.816406 C 79.628906 243.226562 78.761719 241.613281 77.9375 239.984375 C 77.109375 238.351562 76.324219 236.703125 75.578125 235.03125 C 74.832031 233.363281 74.125 231.675781 73.460938 229.972656 C 73.261719 229.457031 73.070312 228.941406 72.875 228.425781 Z M 74.519531 227.636719 " fill-opacity="1" fill-rule="evenodd"/></g></g></g><g fill="#000000" fill-opacity="1"><g transform="translate(66.137392, 210.566588)"><g><path d="M 12.734375 -14.5625 C 11.066406 -15.476562 9.613281 -15.9375 8.375 -15.9375 C 7.539062 -15.9375 6.890625 -15.769531 6.421875 -15.4375 C 5.960938 -15.113281 5.734375 -14.617188 5.734375 -13.953125 C 5.734375 -13.347656 6.066406 -12.8125 6.734375 -12.34375 C 7.410156 -11.882812 8.304688 -11.445312 9.421875 -11.03125 C 10.328125 -10.707031 11.097656 -10.332031 11.734375 -9.90625 C 12.378906 -9.476562 12.914062 -8.890625 13.34375 -8.140625 C 13.769531 -7.390625 13.984375 -6.441406 13.984375 -5.296875 C 13.984375 -4.304688 13.726562 -3.390625 13.21875 -2.546875 C 12.707031 -1.703125 11.953125 -1.03125 10.953125 -0.53125 C 9.960938 -0.0390625 8.78125 0.203125 7.40625 0.203125 C 6.257812 0.203125 5.117188 0.0351562 3.984375 -0.296875 C 2.859375 -0.640625 1.804688 -1.160156 0.828125 -1.859375 L 2.5 -4.796875 C 3.164062 -4.316406 3.921875 -3.914062 4.765625 -3.59375 C 5.617188 -3.28125 6.390625 -3.125 7.078125 -3.125 C 7.867188 -3.125 8.5625 -3.296875 9.15625 -3.640625 C 9.75 -3.984375 10.046875 -4.535156 10.046875 -5.296875 C 10.046875 -6.285156 9.113281 -7.144531 7.25 -7.875 C 6.15625 -8.3125 5.242188 -8.726562 4.515625 -9.125 C 3.785156 -9.53125 3.15625 -10.109375 2.625 -10.859375 C 2.09375 -11.609375 1.828125 -12.546875 1.828125 -13.671875 C 1.828125 -15.328125 2.367188 -16.65625 3.453125 -17.65625 C 4.546875 -18.664062 5.992188 -19.21875 7.796875 -19.3125 C 9.222656 -19.3125 10.414062 -19.148438 11.375 -18.828125 C 12.332031 -18.503906 13.265625 -18.046875 14.171875 -17.453125 Z M 12.734375 -14.5625 "/></g></g></g><g fill="#000000" fill-opacity="1"><g transform="translate(83.641737, 210.566588)"><g><path d="M 5.875 -7.09375 C 5.875 -6.488281 6.054688 -5.90625 6.421875 -5.34375 C 6.785156 -4.789062 7.269531 -4.335938 7.875 -3.984375 C 8.488281 -3.640625 9.144531 -3.46875 9.84375 -3.46875 C 10.582031 -3.46875 11.265625 -3.640625 11.890625 -3.984375 C 12.523438 -4.335938 13.019531 -4.789062 13.375 -5.34375 C 13.726562 -5.90625 13.90625 -6.488281 13.90625 -7.09375 L 13.90625 -19.203125 L 17.640625 -19.203125 L 17.640625 -7.015625 C 17.640625 -5.640625 17.289062 -4.398438 16.59375 -3.296875 C 15.894531 -2.191406 14.953125 -1.332031 13.765625 -0.71875 C 12.578125 -0.101562 11.269531 0.203125 9.84375 0.203125 C 8.414062 0.203125 7.109375 -0.101562 5.921875 -0.71875 C 4.742188 -1.332031 3.8125 -2.191406 3.125 -3.296875 C 2.4375 -4.398438 2.09375 -5.640625 2.09375 -7.015625 L 2.09375 -19.203125 L 5.875 -19.203125 Z M 5.875 -7.09375 "/></g></g></g><g fill="#000000" fill-opacity="1"><g transform="translate(105.658945, 210.566588)"><g><path d="M 22.265625 -19.984375 L 22.265625 0 L 18.46875 0 L 18.46875 -9.15625 L 12.21875 -0.265625 L 12.15625 -0.265625 L 6.125 -8.578125 L 6.125 0 L 2.484375 0 L 2.484375 -19.984375 L 2.5 -19.984375 L 12.234375 -6.1875 L 22.203125 -19.984375 Z M 22.265625 -19.984375 "/></g></g></g><g fill="#000000" fill-opacity="1"><g transform="translate(132.684649, 210.566588)"><g><path d="M 22.265625 -19.984375 L 22.265625 0 L 18.46875 0 L 18.46875 -9.15625 L 12.21875 -0.265625 L 12.15625 -0.265625 L 6.125 -8.578125 L 6.125 0 L 2.484375 0 L 2.484375 -19.984375 L 2.5 -19.984375 L 12.234375 -6.1875 L 22.203125 -19.984375 Z M 22.265625 -19.984375 "/></g></g></g><g fill="#000000" fill-opacity="1"><g transform="translate(159.710357, 210.566588)"><g><path d="M 15.578125 -19.203125 L 15.578125 -15.546875 L 6.265625 -15.546875 L 6.265625 -11.453125 L 14.515625 -11.453125 L 14.515625 -7.796875 L 6.265625 -7.796875 L 6.265625 -3.65625 L 15.9375 -3.65625 L 15.9375 0 L 2.484375 0 L 2.484375 -19.203125 Z M 15.578125 -19.203125 "/></g></g></g><g fill="#000000" fill-opacity="1"><g transform="translate(179.379831, 210.566588)"><g><path d="M 12.84375 0 L 8.796875 -6.109375 L 6.265625 -6.109375 L 6.265625 0 L 2.484375 0 L 2.484375 -19.203125 L 8.296875 -19.203125 C 10.679688 -19.203125 12.53125 -18.625 13.84375 -17.46875 C 15.15625 -16.3125 15.8125 -14.734375 15.8125 -12.734375 C 15.8125 -11.546875 15.5625 -10.4375 15.0625 -9.40625 C 14.570312 -8.375 13.8125 -7.5625 12.78125 -6.96875 L 17.25 0 Z M 6.265625 -9.765625 L 8.953125 -9.765625 C 9.972656 -9.765625 10.71875 -10.0625 11.1875 -10.65625 C 11.664062 -11.257812 11.90625 -11.910156 11.90625 -12.609375 C 11.90625 -13.296875 11.703125 -13.957031 11.296875 -14.59375 C 10.898438 -15.226562 10.125 -15.546875 8.96875 -15.546875 L 6.265625 -15.546875 Z M 6.265625 -9.765625 "/></g></g></g><g fill="#000000" fill-opacity="1"><g transform="translate(199.57879, 210.566588)"><g><path d="M 18.375 -19.203125 L 9.609375 0.890625 L 0.828125 -19.203125 L 5.375 -19.203125 L 9.765625 -8.375 L 13.875 -19.203125 Z M 18.375 -19.203125 "/></g></g></g><g fill="#000000" fill-opacity="1"><g transform="translate(221.074285, 210.566588)"><g><path d="M 11.984375 -3.75 L 5.609375 -3.75 L 4.046875 0 L 0.3125 0 L 8.96875 -19.96875 L 9.1875 -19.96875 L 17.84375 0 L 13.46875 0 Z M 10.71875 -6.9375 L 8.875 -11.609375 L 6.9375 -6.9375 Z M 10.71875 -6.9375 "/></g></g></g><g fill="#000000" fill-opacity="1"><g transform="translate(241.526342, 210.566588)"><g><path d="M 19.78125 -19.203125 L 19.78125 0.78125 L 19.671875 0.78125 L 6.234375 -11.34375 L 6.3125 0 L 2.484375 0 L 2.484375 -19.96875 L 2.640625 -19.96875 L 16.046875 -7.640625 L 15.96875 -19.203125 Z M 19.78125 -19.203125 "/></g></g></g><g fill="#000000" fill-opacity="1"><g transform="translate(266.073886, 210.566588)"><g><path d="M 6.265625 -19.203125 L 6.265625 0 L 2.484375 0 L 2.484375 -19.203125 Z M 6.265625 -19.203125 "/></g></g></g><g fill="#000000" fill-opacity="1"><g transform="translate(277.108919, 210.566588)"><g><path d="M 6.265625 -19.203125 L 6.265625 -3.65625 L 15.296875 -3.65625 L 15.296875 0 L 2.484375 0 L 2.484375 -19.203125 Z M 6.265625 -19.203125 "/></g></g></g><g fill="#000000" fill-opacity="1"><g transform="translate(296.126247, 210.566588)"><g><path d="M 6.265625 -19.203125 L 6.265625 -3.65625 L 15.296875 -3.65625 L 15.296875 0 L 2.484375 0 L 2.484375 -19.203125 Z M 6.265625 -19.203125 "/></g></g></g><g fill="#000000" fill-opacity="1"><g transform="translate(315.143568, 210.566588)"><g><path d="M 15.578125 -19.203125 L 15.578125 -15.546875 L 6.265625 -15.546875 L 6.265625 -11.453125 L 14.515625 -11.453125 L 14.515625 -7.796875 L 6.265625 -7.796875 L 6.265625 -3.65625 L 15.9375 -3.65625 L 15.9375 0 L 2.484375 0 L 2.484375 -19.203125 Z M 15.578125 -19.203125 "/></g></g></g><g fill="#000000" fill-opacity="1"><g transform="translate(101.781378, 246.231135)"><g><path d="M 7.0625 -0.625 C 6.820312 -0.457031 6.492188 -0.296875 6.078125 -0.140625 C 5.660156 0.015625 5.207031 0.09375 4.71875 0.09375 C 3.882812 0.09375 3.15625 -0.0859375 2.53125 -0.453125 C 1.914062 -0.816406 1.441406 -1.304688 1.109375 -1.921875 C 0.773438 -2.535156 0.609375 -3.210938 0.609375 -3.953125 C 0.609375 -4.753906 0.773438 -5.46875 1.109375 -6.09375 C 1.441406 -6.726562 1.90625 -7.222656 2.5 -7.578125 C 3.101562 -7.941406 3.789062 -8.125 4.5625 -8.125 C 5.03125 -8.125 5.460938 -8.0625 5.859375 -7.9375 C 6.265625 -7.8125 6.617188 -7.648438 6.921875 -7.453125 L 6.421875 -6.25 C 5.828125 -6.675781 5.21875 -6.890625 4.59375 -6.890625 C 4.125 -6.890625 3.6875 -6.757812 3.28125 -6.5 C 2.875 -6.25 2.546875 -5.90625 2.296875 -5.46875 C 2.054688 -5.03125 1.9375 -4.550781 1.9375 -4.03125 C 1.9375 -3.476562 2.046875 -2.984375 2.265625 -2.546875 C 2.492188 -2.109375 2.816406 -1.765625 3.234375 -1.515625 C 3.648438 -1.265625 4.128906 -1.140625 4.671875 -1.140625 C 5.066406 -1.140625 5.421875 -1.195312 5.734375 -1.3125 C 6.046875 -1.4375 6.304688 -1.59375 6.515625 -1.78125 Z M 7.0625 -0.625 "/></g></g></g><g fill="#000000" fill-opacity="1"><g transform="translate(111.566283, 246.231135)"><g><path d="M 5.5 0 L 3.6875 -2.796875 L 2.390625 -2.796875 L 2.390625 0 L 1.109375 0 L 1.109375 -8.03125 L 3.359375 -8.03125 C 4.253906 -8.03125 4.972656 -7.800781 5.515625 -7.34375 C 6.054688 -6.882812 6.328125 -6.253906 6.328125 -5.453125 C 6.328125 -4.953125 6.222656 -4.488281 6.015625 -4.0625 C 5.804688 -3.644531 5.476562 -3.320312 5.03125 -3.09375 L 6.984375 0 Z M 2.390625 -4.03125 L 3.546875 -4.03125 C 4.054688 -4.03125 4.425781 -4.171875 4.65625 -4.453125 C 4.894531 -4.734375 5.015625 -5.050781 5.015625 -5.40625 C 5.015625 -5.613281 4.96875 -5.820312 4.875 -6.03125 C 4.789062 -6.238281 4.640625 -6.414062 4.421875 -6.5625 C 4.210938 -6.71875 3.929688 -6.796875 3.578125 -6.796875 L 2.390625 -6.796875 Z M 2.390625 -4.03125 "/></g></g></g><g fill="#000000" fill-opacity="1"><g transform="translate(121.075798, 246.231135)"><g><path d="M 5.234375 -1.890625 L 2.3125 -1.890625 L 1.53125 0 L 0.265625 0 L 3.8125 -8.359375 L 3.890625 -8.359375 L 7.453125 0 L 5.96875 0 Z M 4.796875 -2.984375 L 3.796875 -5.53125 L 2.75 -2.984375 Z M 4.796875 -2.984375 "/></g></g></g><g fill="#000000" fill-opacity="1"><g transform="translate(130.904764, 246.231135)"><g><path d="M 5.984375 -8.03125 L 5.984375 -6.796875 L 2.390625 -6.796875 L 2.390625 -4.53125 L 5.515625 -4.53125 L 5.515625 -3.3125 L 2.390625 -3.3125 L 2.390625 0 L 1.109375 0 L 1.109375 -8.03125 Z M 5.984375 -8.03125 "/></g></g></g><g fill="#000000" fill-opacity="1"><g transform="translate(139.566076, 246.231135)"><g><path d="M 5.90625 -8.03125 L 5.90625 -6.796875 L 3.828125 -6.796875 L 3.828125 0 L 2.546875 0 L 2.546875 -6.796875 L 0.53125 -6.796875 L 0.53125 -8.03125 Z M 5.90625 -8.03125 "/></g></g></g><g fill="#000000" fill-opacity="1"><g transform="translate(148.117226, 246.231135)"><g/></g></g><g fill="#000000" fill-opacity="1"><g transform="translate(153.77126, 246.231135)"><g><path d="M 7.515625 -8.03125 L 4.5 -2.609375 L 4.5 0 L 3.21875 0 L 3.21875 -2.609375 L 0.25 -8.03125 L 1.828125 -8.03125 L 3.90625 -4.078125 L 5.9375 -8.03125 Z M 7.515625 -8.03125 "/></g></g></g><g fill="#000000" fill-opacity="1"><g transform="translate(163.655304, 246.231135)"><g><path d="M 0.609375 -4 C 0.609375 -4.738281 0.789062 -5.421875 1.15625 -6.046875 C 1.519531 -6.679688 2.015625 -7.1875 2.640625 -7.5625 C 3.273438 -7.9375 3.960938 -8.125 4.703125 -8.125 C 5.441406 -8.125 6.125 -7.9375 6.75 -7.5625 C 7.382812 -7.1875 7.890625 -6.679688 8.265625 -6.046875 C 8.640625 -5.410156 8.828125 -4.726562 8.828125 -4 C 8.828125 -3.257812 8.640625 -2.578125 8.265625 -1.953125 C 7.890625 -1.328125 7.382812 -0.828125 6.75 -0.453125 C 6.125 -0.0859375 5.441406 0.09375 4.703125 0.09375 C 3.960938 0.09375 3.273438 -0.0859375 2.640625 -0.453125 C 2.015625 -0.816406 1.519531 -1.3125 1.15625 -1.9375 C 0.789062 -2.5625 0.609375 -3.25 0.609375 -4 Z M 1.9375 -4 C 1.9375 -3.476562 2.0625 -3 2.3125 -2.5625 C 2.5625 -2.132812 2.898438 -1.789062 3.328125 -1.53125 C 3.753906 -1.269531 4.226562 -1.140625 4.75 -1.140625 C 5.25 -1.140625 5.707031 -1.265625 6.125 -1.515625 C 6.550781 -1.773438 6.882812 -2.125 7.125 -2.5625 C 7.375 -3 7.5 -3.476562 7.5 -4 C 7.5 -4.519531 7.375 -5 7.125 -5.4375 C 6.875 -5.882812 6.535156 -6.238281 6.109375 -6.5 C 5.679688 -6.757812 5.210938 -6.890625 4.703125 -6.890625 C 4.191406 -6.890625 3.722656 -6.757812 3.296875 -6.5 C 2.878906 -6.238281 2.546875 -5.882812 2.296875 -5.4375 C 2.054688 -5 1.9375 -4.519531 1.9375 -4 Z M 1.9375 -4 "/></g></g></g><g fill="#000000" fill-opacity="1"><g transform="translate(175.202712, 246.231135)"><g><path d="M 2.265625 -2.890625 C 2.265625 -2.578125 2.34375 -2.285156 2.5 -2.015625 C 2.664062 -1.753906 2.882812 -1.546875 3.15625 -1.390625 C 3.4375 -1.234375 3.742188 -1.15625 4.078125 -1.15625 C 4.421875 -1.15625 4.734375 -1.234375 5.015625 -1.390625 C 5.304688 -1.546875 5.53125 -1.753906 5.6875 -2.015625 C 5.851562 -2.285156 5.9375 -2.578125 5.9375 -2.890625 L 5.9375 -8.03125 L 7.203125 -8.03125 L 7.203125 -2.859375 C 7.203125 -2.285156 7.0625 -1.773438 6.78125 -1.328125 C 6.507812 -0.878906 6.132812 -0.53125 5.65625 -0.28125 C 5.175781 -0.03125 4.648438 0.09375 4.078125 0.09375 C 3.503906 0.09375 2.976562 -0.03125 2.5 -0.28125 C 2.03125 -0.53125 1.660156 -0.878906 1.390625 -1.328125 C 1.117188 -1.773438 0.984375 -2.285156 0.984375 -2.859375 L 0.984375 -8.03125 L 2.265625 -8.03125 Z M 2.265625 -2.890625 "/></g></g></g><g fill="#000000" fill-opacity="1"><g transform="translate(185.494337, 246.231135)"><g><path d="M 5.5 0 L 3.6875 -2.796875 L 2.390625 -2.796875 L 2.390625 0 L 1.109375 0 L 1.109375 -8.03125 L 3.359375 -8.03125 C 4.253906 -8.03125 4.972656 -7.800781 5.515625 -7.34375 C 6.054688 -6.882812 6.328125 -6.253906 6.328125 -5.453125 C 6.328125 -4.953125 6.222656 -4.488281 6.015625 -4.0625 C 5.804688 -3.644531 5.476562 -3.320312 5.03125 -3.09375 L 6.984375 0 Z M 2.390625 -4.03125 L 3.546875 -4.03125 C 4.054688 -4.03125 4.425781 -4.171875 4.65625 -4.453125 C 4.894531 -4.734375 5.015625 -5.050781 5.015625 -5.40625 C 5.015625 -5.613281 4.96875 -5.820312 4.875 -6.03125 C 4.789062 -6.238281 4.640625 -6.414062 4.421875 -6.5625 C 4.210938 -6.71875 3.929688 -6.796875 3.578125 -6.796875 L 2.390625 -6.796875 Z M 2.390625 -4.03125 "/></g></g></g><g fill="#000000" fill-opacity="1"><g transform="translate(195.00385, 246.231135)"><g/></g></g><g fill="#000000" fill-opacity="1"><g transform="translate(200.657889, 246.231135)"><g><path d="M 0.609375 -4 C 0.609375 -4.738281 0.789062 -5.421875 1.15625 -6.046875 C 1.519531 -6.679688 2.015625 -7.1875 2.640625 -7.5625 C 3.273438 -7.9375 3.960938 -8.125 4.703125 -8.125 C 5.441406 -8.125 6.125 -7.9375 6.75 -7.5625 C 7.382812 -7.1875 7.890625 -6.679688 8.265625 -6.046875 C 8.640625 -5.410156 8.828125 -4.726562 8.828125 -4 C 8.828125 -3.257812 8.640625 -2.578125 8.265625 -1.953125 C 7.890625 -1.328125 7.382812 -0.828125 6.75 -0.453125 C 6.125 -0.0859375 5.441406 0.09375 4.703125 0.09375 C 3.960938 0.09375 3.273438 -0.0859375 2.640625 -0.453125 C 2.015625 -0.816406 1.519531 -1.3125 1.15625 -1.9375 C 0.789062 -2.5625 0.609375 -3.25 0.609375 -4 Z M 1.9375 -4 C 1.9375 -3.476562 2.0625 -3 2.3125 -2.5625 C 2.5625 -2.132812 2.898438 -1.789062 3.328125 -1.53125 C 3.753906 -1.269531 4.226562 -1.140625 4.75 -1.140625 C 5.25 -1.140625 5.707031 -1.265625 6.125 -1.515625 C 6.550781 -1.773438 6.882812 -2.125 7.125 -2.5625 C 7.375 -3 7.5 -3.476562 7.5 -4 C 7.5 -4.519531 7.375 -5 7.125 -5.4375 C 6.875 -5.882812 6.535156 -6.238281 6.109375 -6.5 C 5.679688 -6.757812 5.210938 -6.890625 4.703125 -6.890625 C 4.191406 -6.890625 3.722656 -6.757812 3.296875 -6.5 C 2.878906 -6.238281 2.546875 -5.882812 2.296875 -5.4375 C 2.054688 -5 1.9375 -4.519531 1.9375 -4 Z M 1.9375 -4 "/></g></g></g><g fill="#000000" fill-opacity="1"><g transform="translate(212.205298, 246.231135)"><g><path d="M 7.640625 0.359375 L 5.75 -4.4375 L 3.625 0.375 L 0.40625 -7.984375 L 1.90625 -7.984375 L 3.78125 -2.625 L 5.125 -6.046875 L 4.34375 -7.984375 L 5.609375 -7.984375 L 7.671875 -2.78125 L 9.40625 -7.984375 L 10.78125 -7.984375 Z M 7.640625 0.359375 "/></g></g></g><g fill="#000000" fill-opacity="1"><g transform="translate(225.50419, 246.231135)"><g><path d="M 8.203125 -8.03125 L 8.203125 0.28125 L 8.15625 0.28125 L 2.375 -5.328125 L 2.40625 0 L 1.109375 0 L 1.109375 -8.3125 L 1.171875 -8.3125 L 6.9375 -2.625 L 6.921875 -8.03125 Z M 8.203125 -8.03125 "/></g></g></g><g fill="#000000" fill-opacity="1"><g transform="translate(236.930428, 246.231135)"><g/></g></g><g fill="#000000" fill-opacity="1"><g transform="translate(242.584461, 246.231135)"><g><path d="M 2.390625 -8.03125 L 2.390625 -1.234375 L 6.359375 -1.234375 L 6.359375 0 L 1.109375 0 L 1.109375 -8.03125 Z M 2.390625 -8.03125 "/></g></g></g><g fill="#000000" fill-opacity="1"><g transform="translate(251.653343, 246.231135)"><g><path d="M 2.390625 -8.03125 L 2.390625 0 L 1.109375 0 L 1.109375 -8.03125 Z M 2.390625 -8.03125 "/></g></g></g><g fill="#000000" fill-opacity="1"><g transform="translate(257.274325, 246.231135)"><g><path d="M 5.984375 -8.03125 L 5.984375 -6.796875 L 2.390625 -6.796875 L 2.390625 -4.53125 L 5.515625 -4.53125 L 5.515625 -3.3125 L 2.390625 -3.3125 L 2.390625 0 L 1.109375 0 L 1.109375 -8.03125 Z M 5.984375 -8.03125 "/></g></g></g><g fill="#000000" fill-opacity="1"><g transform="translate(265.935637, 246.231135)"><g><path d="M 6.4375 -8.03125 L 6.4375 -6.796875 L 2.390625 -6.796875 L 2.390625 -4.65625 L 5.984375 -4.65625 L 5.984375 -3.421875 L 2.390625 -3.421875 L 2.390625 -1.234375 L 6.578125 -1.234375 L 6.578125 0 L 1.109375 0 L 1.109375 -8.03125 Z M 6.4375 -8.03125 "/></g></g></g><g clip-path="url(#e5fc1ebabb)"><g clip-path="url(#4e0b820062)"><g clip-path="url(#5e5fe51797)"><path fill="#737373" d="M 107.394531 117.265625 C 109.769531 116.980469 112.277344 118.050781 113.976562 119.882812 C 114.863281 120.824219 115.578125 122.132812 115.339844 123.679688 C 115.226562 124.441406 114.792969 125.171875 114.199219 125.589844 C 113.601562 126.035156 112.902344 126.160156 112.289062 126.203125 C 111.0625 126.269531 109.917969 126 108.792969 125.820312 C 107.667969 125.660156 106.523438 125.492188 105.367188 125.25 C 103.113281 124.707031 100.714844 123.570312 99.105469 121.4375 L 98.757812 120.980469 L 98.894531 120.394531 C 99.363281 118.3125 100.96875 116.660156 102.910156 116.074219 C 104.847656 115.503906 106.949219 116.066406 108.160156 117.371094 L 108.023438 117.578125 C 106.425781 117.054688 104.828125 117.25 103.660156 117.933594 C 102.5 118.597656 101.6875 119.773438 101.421875 120.964844 L 101.210938 119.917969 C 102.277344 121.46875 104.023438 122.585938 105.984375 123.535156 C 107.898438 124.464844 110.113281 125.714844 112.1875 125.363281 C 113.230469 125.167969 113.714844 124.277344 113.558594 123.578125 C 113.394531 122.847656 112.949219 122.027344 112.378906 121.296875 C 111.097656 119.738281 109.433594 118.503906 107.359375 117.5 L 107.394531 117.265625 " fill-opacity="1" fill-rule="nonzero"/></g></g></g><g clip-path="url(#2f14fa4f13)"><g clip-path="url(#a43e1c161c)"><g clip-path="url(#7f6b54e1ea)"><g clip-path="url(#6a9bec5aa6)"><g clip-path="url(#f38c68a1dc)"><path fill="#737373" d="M 99.792969 151.617188 C 98.285156 150.445312 97.378906 148.976562 96.847656 147.28125 C 96.324219 145.609375 96.257812 143.832031 96.433594 142.101562 C 96.820312 138.628906 98.027344 135.324219 99.660156 132.25 L 100.246094 132.574219 L 99.078125 134.695312 C 98.660156 135.375 98.183594 136.042969 97.742188 136.71875 C 96.75 138.007812 95.6875 139.261719 94.363281 140.253906 C 91.835938 142.324219 88.199219 143.371094 84.882812 142.050781 L 84.367188 141.847656 L 84.65625 141.320312 C 88.507812 134.277344 94.910156 128.679688 102.414062 125.75 L 102.96875 126.964844 C 100.460938 128.316406 97.933594 129.679688 95.242188 130.761719 C 92.558594 131.847656 89.699219 132.644531 86.738281 132.773438 C 83.75 132.894531 80.734375 132.183594 78.117188 130.699219 C 75.519531 129.226562 73.261719 126.777344 72.507812 123.714844 L 72.410156 123.335938 L 72.644531 123.011719 C 73.351562 122.019531 74.457031 121.367188 75.535156 121.085938 C 76.628906 120.789062 77.707031 120.753906 78.742188 120.785156 C 80.835938 120.910156 82.71875 121.234375 84.695312 121.449219 L 96.433594 122.90625 L 96.320312 124.875 C 90.484375 124.910156 84.703125 122.945312 80.074219 119.398438 C 77.738281 117.664062 75.730469 115.492188 74.097656 113.066406 C 73.253906 111.777344 72.613281 110.347656 72.375 108.730469 C 72.261719 107.9375 72.25 107.070312 72.503906 106.183594 C 72.738281 105.300781 73.292969 104.433594 74.042969 103.863281 L 74.492188 103.527344 L 75.027344 103.660156 C 79.882812 104.777344 84.234375 107.347656 87.972656 110.414062 C 91.726562 113.46875 95 116.980469 98.199219 120.472656 L 96.410156 122.167969 C 92.375 118.074219 88.730469 113.585938 85.5625 108.78125 C 83.976562 106.386719 82.519531 103.898438 81.167969 101.359375 C 80.488281 100.0625 79.839844 98.667969 79.496094 97.09375 C 79.140625 95.554688 79.179688 93.59375 80.242188 92.027344 L 80.703125 91.359375 L 81.492188 91.480469 C 83.808594 91.855469 85.917969 92.949219 87.648438 94.363281 C 89.378906 95.785156 90.796875 97.484375 91.988281 99.28125 C 93.175781 101.050781 94.234375 103.074219 94.882812 105.125 C 95.480469 107.144531 96.253906 108.589844 97.59375 110.074219 L 95.433594 111.429688 C 93.738281 107.574219 93.042969 103.269531 92.464844 99.347656 C 92.148438 97.320312 91.71875 95.515625 91.257812 93.40625 C 90.863281 91.363281 90.621094 88.800781 92.078125 86.585938 C 92.40625 85.964844 93.394531 85.242188 94.351562 85.3125 C 95.273438 85.328125 95.882812 85.691406 96.410156 86.011719 C 97.4375 86.691406 98.195312 87.472656 98.914062 88.28125 C 100.320312 89.898438 101.5 91.601562 102.578125 93.433594 C 104.605469 97.5625 104.722656 101.679688 105.753906 105.480469 L 103.480469 105.917969 C 103 101.824219 102.660156 97.65625 102.816406 93.46875 C 102.96875 89.289062 103.65625 85.0625 105.128906 81.085938 L 105.316406 80.597656 L 105.832031 80.414062 C 106.746094 80.089844 107.941406 80.28125 108.710938 80.828125 C 109.5 81.359375 109.972656 82.050781 110.367188 82.726562 C 111.117188 84.0625 111.46875 85.640625 111.578125 87.003906 C 111.882812 89.722656 112.042969 92.46875 112.042969 95.199219 C 112.066406 100.671875 111.488281 106.140625 110.34375 111.488281 L 108.496094 111.125 L 111.472656 96.082031 C 112.046875 93.605469 112.207031 91.015625 113.515625 88.460938 C 114.152344 87.21875 115.28125 86.066406 116.667969 85.53125 C 118 84.984375 119.78125 84.933594 121.101562 85.984375 L 121.425781 86.25 L 121.390625 86.65625 C 120.574219 96.9375 117.675781 107.027344 113.003906 116.191406 L 111.839844 115.6875 C 113.945312 109.898438 116.71875 104.296875 120.507812 99.378906 C 124.269531 94.480469 129.214844 90.289062 135.109375 88.140625 L 135.75 87.90625 L 135.78125 88.59375 C 135.984375 94.554688 133.71875 100.3125 130.429688 105.101562 C 127.125 109.933594 122.875 114.019531 118.320312 117.59375 L 117.800781 117.058594 C 120.945312 113.449219 124.6875 110.359375 128.851562 108.003906 C 130.957031 106.875 133.066406 105.746094 135.449219 105.125 C 136.628906 104.832031 137.871094 104.664062 139.125 104.824219 C 140.382812 104.96875 141.65625 105.585938 142.46875 106.625 L 142.792969 107.039062 L 142.316406 107.285156 C 135.128906 111.015625 128.207031 115.308594 121.742188 120.207031 L 121.144531 119.328125 C 124.738281 116.980469 128.460938 114.542969 132.78125 113.363281 C 134.929688 112.777344 137.203125 112.566406 139.445312 112.847656 C 141.671875 113.121094 143.914062 113.929688 145.726562 115.378906 L 146.445312 115.957031 L 145.691406 116.511719 C 141.953125 119.214844 137.449219 120.265625 133.199219 121.195312 C 128.929688 122.132812 124.632812 123 121.027344 125.144531 L 120.40625 123.496094 C 128.753906 121.84375 137.582031 122.558594 145.554688 125.625 L 146.644531 126.042969 L 146.125 126.984375 C 145.527344 128.039062 144.882812 128.179688 144.320312 128.507812 C 143.734375 128.769531 143.167969 128.960938 142.605469 129.125 C 141.46875 129.441406 140.339844 129.65625 139.203125 129.820312 C 136.945312 130.144531 134.6875 130.28125 132.429688 130.324219 C 127.910156 130.390625 123.421875 130.050781 118.96875 129.417969 L 119.449219 127.328125 L 140.28125 134.015625 L 141.492188 134.402344 L 140.878906 135.542969 C 140.402344 136.460938 139.914062 137.769531 139.035156 138.863281 C 138.203125 139.992188 136.742188 140.878906 135.273438 141.027344 C 133.800781 141.164062 132.445312 140.820312 131.234375 140.34375 C 130.035156 139.875 128.964844 139.386719 127.832031 138.871094 C 123.386719 136.820312 119.046875 134.339844 115.25 131.121094 L 116.527344 129.625 C 119.484375 132.1875 122.125 135.128906 124.355469 138.347656 C 125.4375 139.96875 126.554688 141.59375 127.3125 143.542969 C 127.675781 144.507812 127.949219 145.550781 127.957031 146.671875 C 127.992188 147.777344 127.652344 148.996094 126.933594 149.929688 L 126.503906 150.492188 L 125.859375 150.234375 C 121.640625 148.574219 118.347656 145.296875 115.910156 141.730469 C 113.429688 138.144531 111.613281 134.222656 109.882812 130.324219 L 111.304688 129.707031 C 112.921875 133.652344 114.519531 137.664062 115.511719 141.882812 C 116.5 146.078125 116.839844 150.585938 115.710938 154.851562 L 115.390625 156.035156 L 114.636719 155.085938 C 109.320312 148.386719 106.21875 140.011719 105.765625 131.53125 L 106.476562 131.449219 C 107.113281 135.09375 106.785156 138.867188 105.636719 142.351562 C 105.066406 144.101562 104.285156 145.765625 103.3125 147.328125 C 102.316406 148.894531 101.269531 150.285156 99.796875 151.617188 Z M 99.785156 151.375 C 100.898438 150.167969 102.125 148.675781 103.007812 147.140625 C 103.929688 145.59375 104.652344 143.929688 105.183594 142.207031 C 106.226562 138.769531 106.460938 135.085938 105.773438 131.574219 L 106.484375 131.492188 C 107.09375 139.828125 110.367188 147.886719 115.59375 154.316406 L 114.519531 154.550781 C 115.535156 150.519531 115.164062 146.261719 114.160156 142.210938 C 113.152344 138.136719 111.535156 134.21875 109.878906 130.308594 L 111.300781 129.6875 C 113.066406 133.542969 114.90625 137.351562 117.3125 140.746094 C 119.699219 144.125 122.757812 147.050781 126.535156 148.519531 L 125.464844 148.824219 C 126.386719 147.644531 126.207031 145.851562 125.558594 144.207031 C 124.921875 142.570312 123.851562 140.996094 122.796875 139.445312 C 120.640625 136.359375 118.089844 133.558594 115.242188 131.117188 L 116.519531 129.621094 C 120.140625 132.667969 124.328125 135.027344 128.691406 137.011719 C 130.882812 137.945312 133.101562 139.175781 135.035156 138.957031 C 135.984375 138.832031 136.769531 138.378906 137.386719 137.566406 C 138.039062 136.75 138.40625 135.75 139.035156 134.515625 L 139.632812 136.03125 L 118.792969 129.375 L 119.28125 127.285156 C 123.625 127.921875 128.015625 128.28125 132.402344 128.230469 C 134.585938 128.203125 136.769531 128.078125 138.910156 127.773438 C 139.976562 127.617188 141.035156 127.425781 142.050781 127.15625 C 142.546875 127.003906 143.039062 126.84375 143.46875 126.652344 C 143.886719 126.496094 144.316406 126.125 144.25 126.175781 L 144.824219 127.527344 C 137.214844 124.597656 128.789062 123.761719 120.730469 125.25 L 115.589844 126.203125 L 120.121094 123.605469 C 124.136719 121.3125 128.613281 120.515625 132.863281 119.632812 C 137.113281 118.761719 141.390625 117.789062 144.855469 115.351562 L 144.820312 116.484375 C 141.671875 113.898438 137.089844 113.539062 133.097656 114.570312 C 129.015625 115.617188 125.34375 117.921875 121.714844 120.226562 L 121.109375 119.34375 C 127.703125 114.539062 134.648438 110.210938 141.914062 106.507812 L 141.777344 107.164062 C 140.4375 105.398438 137.808594 105.382812 135.648438 105.9375 C 133.421875 106.5 131.304688 107.605469 129.238281 108.699219 C 125.148438 110.996094 121.429688 113.984375 118.371094 117.550781 L 117.859375 117.007812 C 122.355469 113.433594 126.511719 109.371094 129.710938 104.613281 C 132.894531 99.898438 135.019531 94.328125 134.78125 88.636719 L 135.457031 89.082031 C 129.792969 91.183594 125.046875 95.269531 121.414062 100.066406 C 117.753906 104.886719 115.066406 110.410156 113.039062 116.121094 L 111.871094 115.617188 C 116.425781 106.578125 119.117188 96.617188 119.832031 86.546875 L 120.128906 87.210938 C 119.390625 86.625 118.257812 86.609375 117.269531 87.023438 C 116.253906 87.445312 115.492188 88.207031 114.960938 89.242188 C 113.910156 91.28125 113.691406 93.914062 113.164062 96.40625 L 110.347656 111.480469 L 108.5 111.109375 C 109.558594 105.878906 110.0625 100.546875 109.984375 95.21875 C 109.949219 92.554688 109.777344 89.894531 109.457031 87.25 C 109.328125 85.933594 109.039062 84.824219 108.464844 83.800781 C 108.183594 83.3125 107.84375 82.882812 107.496094 82.664062 C 107.144531 82.449219 106.878906 82.40625 106.507812 82.515625 L 107.199219 81.839844 C 104.445312 89.34375 104.785156 97.621094 105.785156 105.640625 L 103.511719 106.078125 C 102.976562 104.042969 102.636719 102.019531 102.230469 100.0625 C 101.8125 98.164062 101.324219 96.09375 100.511719 94.625 C 99.527344 92.964844 98.371094 91.316406 97.105469 89.875 C 96.476562 89.164062 95.785156 88.492188 95.105469 88.054688 C 94.785156 87.84375 94.445312 87.726562 94.339844 87.742188 C 94.253906 87.761719 94.296875 87.6875 94.105469 87.945312 C 92.359375 90.597656 94.4375 94.902344 94.933594 98.921875 C 95.566406 103.011719 96.207031 106.808594 97.816406 110.433594 L 101.25 118.179688 L 95.652344 111.777344 C 94.9375 110.957031 94.238281 110.058594 93.691406 109.023438 C 93.121094 108.003906 92.765625 106.902344 92.453125 105.945312 C 91.84375 104.054688 90.964844 102.375 89.859375 100.695312 C 87.726562 97.429688 84.722656 94.5625 81.09375 93.976562 L 82.339844 93.4375 C 81.191406 95.09375 82.132812 97.859375 83.398438 100.191406 C 84.699219 102.664062 86.109375 105.078125 87.65625 107.410156 C 90.71875 112.078125 94.253906 116.445312 98.171875 120.441406 L 96.378906 122.132812 C 93.199219 118.648438 90.007812 115.222656 86.429688 112.300781 C 82.863281 109.394531 78.875 106.996094 74.488281 105.929688 L 75.460938 105.722656 C 73.953125 106.757812 74.617188 109.820312 75.976562 111.832031 C 77.4375 114.058594 79.246094 116.070312 81.378906 117.691406 C 85.605469 121 90.945312 122.882812 96.304688 122.902344 L 96.183594 124.863281 L 84.457031 123.277344 C 82.515625 123.042969 80.507812 122.679688 78.660156 122.566406 C 76.820312 122.457031 74.933594 122.746094 74.027344 124.011719 L 74.164062 123.308594 C 74.757812 125.84375 76.625 127.953125 78.925781 129.300781 C 81.246094 130.652344 83.980469 131.332031 86.675781 131.257812 C 92.199219 131.074219 97.347656 128.417969 102.339844 125.785156 L 102.898438 127.003906 C 95.652344 129.726562 89.410156 135.074219 85.578125 141.835938 L 85.355469 141.105469 C 86.640625 141.667969 88.265625 141.769531 89.730469 141.492188 C 91.214844 141.207031 92.617188 140.5 93.847656 139.566406 C 95.113281 138.667969 96.148438 137.484375 97.128906 136.261719 C 97.574219 135.617188 98.046875 134.980469 98.46875 134.316406 L 99.65625 132.265625 L 100.234375 132.582031 C 98.589844 135.53125 97.316406 138.785156 96.886719 142.148438 C 96.675781 143.828125 96.710938 145.5625 97.175781 147.1875 C 97.417969 147.992188 97.757812 148.769531 98.203125 149.492188 C 98.652344 150.203125 99.269531 150.832031 99.785156 151.375 " fill-opacity="1" fill-rule="nonzero"/></g></g></g></g></g><g clip-path="url(#1b5d42fd93)"><g clip-path="url(#231022fad0)"><g clip-path="url(#ea80d96925)"><g clip-path="url(#a0fc146ada)"><g clip-path="url(#702edfb2e1)"><path fill="#737373" d="M 99.5 150.148438 C 97.996094 156.804688 95.175781 163.042969 92.265625 169.078125 C 90.71875 172.074219 89.078125 175.007812 87.703125 178.078125 C 86.339844 181.152344 85.335938 184.378906 84.761719 187.667969 C 84.15625 190.953125 83.882812 194.273438 84 197.546875 C 83.957031 200.789062 84.769531 204.101562 84.617188 207.683594 C 84.5 211.265625 83.398438 214.703125 81.921875 217.808594 C 80.46875 220.945312 78.59375 223.804688 76.660156 226.574219 L 76.023438 226.289062 C 76.320312 225.648438 76.613281 225.011719 76.933594 224.378906 L 77.160156 224.460938 C 77.015625 225.152344 76.855469 225.839844 76.691406 226.511719 L 76.054688 226.230469 C 78.820312 220.085938 81.796875 213.96875 82.03125 207.582031 C 82.167969 204.40625 81.65625 201.03125 81.808594 197.53125 C 81.851562 195.789062 82.097656 194.082031 82.355469 192.378906 C 82.742188 190.699219 83.113281 189.023438 83.632812 187.394531 C 84.648438 184.136719 85.746094 180.953125 86.898438 177.761719 C 87.992188 174.5625 89.070312 171.324219 90.371094 168.203125 C 93.105469 162.007812 96.238281 156.121094 99.265625 150.0625 L 99.5 150.148438 " fill-opacity="1" fill-rule="nonzero"/></g></g></g></g></g><g clip-path="url(#333f397e25)"><g clip-path="url(#3d27f6e937)"><g clip-path="url(#f15df50c84)"><path fill="#737373" d="M 74.476562 180.738281 C 76.507812 181.371094 78.316406 182.847656 79.632812 184.507812 C 80.972656 186.171875 82.246094 187.738281 83.75 188.996094 L 83.929688 189.152344 L 84.019531 189.421875 L 84.382812 190.429688 L 82.472656 190.953125 C 81.691406 187.878906 80.929688 184.8125 80.308594 181.710938 C 79.699219 178.605469 79.328125 175.496094 77.878906 172.804688 C 77.171875 171.453125 76.082031 170.382812 74.890625 169.304688 C 73.714844 168.238281 72.617188 166.910156 71.964844 165.425781 C 70.59375 162.550781 69.753906 159.257812 67.445312 157.59375 L 68.746094 156.613281 C 69.699219 158.554688 69.605469 160.78125 69.277344 162.699219 C 68.941406 164.65625 68.335938 166.457031 67.980469 168.214844 C 67.195312 171.664062 67.835938 175.132812 69.347656 178.359375 C 70.875 181.558594 73.042969 184.558594 75.585938 187.238281 C 76.820312 188.613281 78.183594 189.964844 79.367188 191.492188 C 80.53125 193.023438 81.527344 194.804688 81.78125 196.722656 L 81.542969 196.777344 C 80.242188 193.207031 77.109375 191.066406 74.289062 188.546875 C 71.496094 185.9375 68.835938 183.03125 67.058594 179.457031 C 66.160156 177.683594 65.515625 175.746094 65.234375 173.730469 C 64.953125 171.714844 65.15625 169.585938 65.648438 167.679688 C 66.589844 163.929688 68.320312 160.46875 67.199219 157.265625 L 66.058594 153.988281 L 68.511719 156.289062 C 71.214844 158.832031 71.441406 162.304688 72.726562 165.070312 C 73.339844 166.492188 74.195312 167.746094 75.410156 168.742188 C 76.578125 169.765625 77.863281 170.855469 78.789062 172.238281 C 80.679688 174.980469 81.539062 178.214844 82.351562 181.25 C 83.136719 184.3125 83.777344 187.410156 84.40625 190.515625 L 82.503906 191.039062 L 82.207031 190.007812 L 82.46875 190.433594 C 80.820312 188.914062 79.726562 186.988281 78.59375 185.289062 C 77.480469 183.566406 76.1875 182.027344 74.375 180.964844 L 74.476562 180.738281 " fill-opacity="1" fill-rule="nonzero"/></g></g></g><g clip-path="url(#d3fa78b6a6)"><g clip-path="url(#4a02927510)"><g clip-path="url(#f31bc2f1fa)"><path fill="#737373" d="M 97.453125 172.394531 C 97.4375 172.570312 97.691406 172.152344 98.058594 171.949219 C 98.21875 171.8125 98.644531 171.859375 98.75 171.90625 L 99.246094 171.996094 C 99.925781 172.121094 100.601562 172.230469 101.269531 172.382812 C 102.609375 172.652344 103.921875 172.972656 105.242188 173.296875 C 106.550781 173.636719 107.804688 173.917969 108.992188 173.953125 C 110.164062 173.96875 111.328125 173.671875 112.5 173.21875 C 114.84375 172.34375 117.273438 170.890625 119.871094 169.917969 C 122.421875 168.890625 125.011719 167.996094 127.667969 167.273438 L 127.539062 168.175781 C 124.328125 166.769531 120.867188 166.175781 117.472656 166.128906 C 114.050781 166.046875 110.667969 166.710938 107.476562 167.800781 C 105.867188 168.332031 104.332031 169.074219 102.835938 169.882812 C 101.285156 170.714844 100.140625 171.761719 98.4375 172.839844 C 97.546875 173.382812 96.445312 173.550781 95.542969 173.53125 C 94.621094 173.523438 93.765625 173.398438 92.9375 173.640625 C 91.273438 174.042969 89.730469 175.035156 88.683594 176.457031 L 88.480469 176.3125 C 89.457031 174.789062 91.003906 173.609375 92.78125 173.074219 C 94.566406 172.507812 96.503906 172.59375 97.601562 171.597656 C 98.726562 170.542969 100.152344 169.074219 101.675781 168.066406 C 103.195312 166.996094 104.835938 166.046875 106.59375 165.414062 C 110.070312 164.023438 113.886719 163.601562 117.582031 163.890625 C 121.296875 164.152344 124.867188 165.457031 127.992188 167.316406 L 129.183594 168.015625 L 127.871094 168.222656 C 125.21875 168.632812 122.636719 169.5 120.292969 170.800781 C 117.9375 172.089844 115.980469 173.957031 113.320312 175.199219 C 111.988281 175.777344 110.453125 176.175781 108.902344 176.066406 C 107.363281 175.988281 105.988281 175.480469 104.707031 175.039062 C 103.429688 174.5625 102.160156 174.085938 100.902344 173.5625 C 100.265625 173.308594 99.648438 173.011719 99.019531 172.738281 C 98.695312 172.625 98.371094 172.390625 98.261719 172.457031 C 98.144531 172.480469 98 172.554688 97.84375 172.640625 C 97.75 172.683594 97.683594 172.742188 97.519531 172.746094 C 97.300781 172.746094 97.230469 172.542969 97.222656 172.460938 L 97.453125 172.394531 " fill-opacity="1" fill-rule="nonzero"/></g></g></g><g clip-path="url(#ce0887c24b)"><g clip-path="url(#b6c395352c)"><g clip-path="url(#2a0046c5e7)"><path fill="#737373" d="M 98.617188 171.414062 C 99.671875 170.644531 100.628906 170.425781 101.617188 170.578125 C 102.101562 170.714844 102.621094 171.082031 103.125 171.125 C 103.625 171.183594 104.117188 170.984375 104.585938 170.714844 C 105.515625 170.113281 106.433594 169.832031 107.390625 169.617188 C 108.375 169.535156 109.371094 169.566406 110.5625 170.015625 L 110.628906 170.246094 C 109.894531 171.296875 108.925781 171.835938 107.921875 172.160156 C 106.898438 172.363281 105.820312 172.398438 104.738281 172.039062 C 104.199219 171.886719 103.683594 171.78125 103.183594 171.910156 C 102.683594 172.019531 102.1875 172.4375 101.664062 172.609375 C 100.632812 172.816406 99.554688 172.5625 98.597656 171.65625 L 98.617188 171.414062 " fill-opacity="1" fill-rule="nonzero"/></g></g></g></svg>