<svg xmlns="http://www.w3.org/2000/svg" xmlns:xlink="http://www.w3.org/1999/xlink" width="500" zoomAndPan="magnify" viewBox="0 0 375 225" height="300" preserveAspectRatio="xMidYMid meet" version="1.0"><defs><g/><clipPath id="45a8d72073"><path d="M 94 62 L 117 62 L 117 76 L 94 76 Z M 94 62 " clip-rule="nonzero"/></clipPath><clipPath id="2516e36065"><path d="M 75.113281 3.132812 L 171.058594 35.484375 L 108.242188 221.785156 L 12.296875 189.433594 Z M 75.113281 3.132812 " clip-rule="nonzero"/></clipPath><clipPath id="4e08a610fc"><path d="M 75.113281 3.132812 L 171.058594 35.484375 L 108.242188 221.785156 L 12.296875 189.433594 Z M 75.113281 3.132812 " clip-rule="nonzero"/></clipPath><clipPath id="fad3a14c5c"><path d="M 59 15 L 158 15 L 158 116 L 59 116 Z M 59 15 " clip-rule="nonzero"/></clipPath><clipPath id="8a017ac9b1"><path d="M 75.113281 3.132812 L 171.058594 35.484375 L 108.242188 221.785156 L 12.296875 189.433594 Z M 75.113281 3.132812 " clip-rule="nonzero"/></clipPath><clipPath id="62dc89c1b4"><path d="M 75.113281 3.132812 L 171.058594 35.484375 L 108.242188 221.785156 L 12.296875 189.433594 Z M 75.113281 3.132812 " clip-rule="nonzero"/></clipPath><clipPath id="1df11448e6"><path d="M 75.652344 3.316406 L 172.273438 35.894531 L 141.730469 126.476562 L 45.109375 93.898438 Z M 75.652344 3.316406 " clip-rule="nonzero"/></clipPath><clipPath id="5e8c5cf952"><path d="M 75.652344 3.316406 L 170.882812 35.425781 L 140.339844 126.007812 L 45.109375 93.898438 Z M 75.652344 3.316406 " clip-rule="nonzero"/></clipPath><clipPath id="3d210c6a9b"><path d="M 62 106 L 95 106 L 95 207 L 62 207 Z M 62 106 " clip-rule="nonzero"/></clipPath><clipPath id="79ae6d349d"><path d="M 75.113281 3.132812 L 171.058594 35.484375 L 108.242188 221.785156 L 12.296875 189.433594 Z M 75.113281 3.132812 " clip-rule="nonzero"/></clipPath><clipPath id="c1d4c6400e"><path d="M 75.113281 3.132812 L 171.058594 35.484375 L 108.242188 221.785156 L 12.296875 189.433594 Z M 75.113281 3.132812 " clip-rule="nonzero"/></clipPath><clipPath id="b6410f6637"><path d="M 89.417969 102.113281 L 101.496094 106.183594 L 66.878906 208.847656 L 54.800781 204.773438 Z M 89.417969 102.113281 " clip-rule="nonzero"/></clipPath><clipPath id="b8c418678c"><path d="M 89.417969 102.113281 L 101.496094 106.183594 L 67.15625 208.03125 L 55.078125 203.957031 Z M 89.417969 102.113281 " clip-rule="nonzero"/></clipPath><clipPath id="7c146bcc02"><path d="M 49 111 L 75 111 L 75 168 L 49 168 Z M 49 111 " clip-rule="nonzero"/></clipPath><clipPath id="91a5d18335"><path d="M 75.113281 3.132812 L 171.058594 35.484375 L 108.242188 221.785156 L 12.296875 189.433594 Z M 75.113281 3.132812 " clip-rule="nonzero"/></clipPath><clipPath id="9374fc17cd"><path d="M 75.113281 3.132812 L 171.058594 35.484375 L 108.242188 221.785156 L 12.296875 189.433594 Z M 75.113281 3.132812 " clip-rule="nonzero"/></clipPath><clipPath id="e02465576a"><path d="M 79 125 L 134 125 L 134 142 L 79 142 Z M 79 125 " clip-rule="nonzero"/></clipPath><clipPath id="311f1c27b9"><path d="M 75.113281 3.132812 L 171.058594 35.484375 L 108.242188 221.785156 L 12.296875 189.433594 Z M 75.113281 3.132812 " clip-rule="nonzero"/></clipPath><clipPath id="9521b8756d"><path d="M 75.113281 3.132812 L 171.058594 35.484375 L 108.242188 221.785156 L 12.296875 189.433594 Z M 75.113281 3.132812 " clip-rule="nonzero"/></clipPath><clipPath id="80d9f171dc"><path d="M 93 132 L 109 132 L 109 137 L 93 137 Z M 93 132 " clip-rule="nonzero"/></clipPath><clipPath id="5e0309f986"><path d="M 75.113281 3.132812 L 171.058594 35.484375 L 108.242188 221.785156 L 12.296875 189.433594 Z M 75.113281 3.132812 " clip-rule="nonzero"/></clipPath><clipPath id="64b25a7966"><path d="M 75.113281 3.132812 L 171.058594 35.484375 L 108.242188 221.785156 L 12.296875 189.433594 Z M 75.113281 3.132812 " clip-rule="nonzero"/></clipPath></defs><path stroke-linecap="butt" transform="matrix(0.983011, 0.00538747, -0.00538747, 0.983011, 16.269532, 174.664793)" fill="none" stroke-linejoin="miter" d="M -0.000971372 1.998063 L 364.929254 2.000808 " stroke="#000000" stroke-width="4" stroke-opacity="1" stroke-miterlimit="4"/><g clip-path="url(#45a8d72073)"><g clip-path="url(#2516e36065)"><g clip-path="url(#4e08a610fc)"><path fill="#727272" d="M 105.804688 64.105469 C 108.921875 63.78125 112.1875 65.234375 114.378906 67.667969 C 115.519531 68.921875 116.433594 70.648438 116.089844 72.671875 C 115.925781 73.667969 115.34375 74.613281 114.558594 75.148438 C 113.765625 75.722656 112.84375 75.875 112.042969 75.917969 C 110.433594 75.976562 108.941406 75.605469 107.46875 75.34375 C 105.996094 75.113281 104.5 74.871094 102.988281 74.535156 C 100.046875 73.777344 96.929688 72.238281 94.859375 69.414062 L 94.410156 68.804688 L 94.601562 68.039062 C 95.257812 65.320312 97.394531 63.1875 99.949219 62.460938 C 102.503906 61.746094 105.246094 62.527344 106.804688 64.261719 L 106.625 64.527344 C 104.539062 63.8125 102.441406 64.035156 100.898438 64.910156 C 99.363281 65.753906 98.273438 67.28125 97.90625 68.839844 L 97.648438 67.464844 C 99.015625 69.515625 101.28125 71.011719 103.832031 72.296875 C 106.324219 73.554688 109.203125 75.234375 111.929688 74.816406 C 113.296875 74.578125 113.949219 73.421875 113.761719 72.503906 C 113.558594 71.539062 112.992188 70.457031 112.253906 69.488281 C 110.609375 67.421875 108.449219 65.773438 105.753906 64.417969 L 105.804688 64.105469 " fill-opacity="1" fill-rule="nonzero"/></g></g></g><g clip-path="url(#fad3a14c5c)"><g clip-path="url(#8a017ac9b1)"><g clip-path="url(#62dc89c1b4)"><g clip-path="url(#1df11448e6)"><g clip-path="url(#5e8c5cf952)"><path fill="#727272" d="M 95.167969 108.976562 C 93.214844 107.410156 92.054688 105.46875 91.390625 103.238281 C 90.738281 101.035156 90.683594 98.703125 90.949219 96.441406 C 91.523438 91.894531 93.171875 87.589844 95.375 83.589844 L 96.132812 84.03125 L 94.558594 86.785156 C 93.996094 87.671875 93.363281 88.535156 92.769531 89.410156 C 91.441406 91.078125 90.027344 92.703125 88.273438 93.976562 C 84.917969 96.640625 80.128906 97.941406 75.8125 96.144531 L 75.144531 95.867188 L 75.53125 95.183594 C 80.71875 86.03125 89.21875 78.820312 99.109375 75.128906 L 99.816406 76.734375 C 96.5 78.453125 93.160156 80.1875 89.609375 81.554688 C 86.074219 82.925781 82.3125 83.914062 78.425781 84.023438 C 74.507812 84.121094 70.570312 83.132812 67.171875 81.132812 C 63.792969 79.15625 60.886719 75.902344 59.957031 71.871094 L 59.835938 71.371094 L 60.148438 70.953125 C 61.09375 69.667969 62.558594 68.835938 63.976562 68.484375 C 65.414062 68.117188 66.828125 68.09375 68.183594 68.15625 C 70.929688 68.359375 73.386719 68.820312 75.972656 69.140625 L 91.328125 71.285156 L 91.140625 73.863281 C 83.492188 73.792969 75.953125 71.105469 69.960938 66.363281 C 66.933594 64.042969 64.34375 61.160156 62.25 57.945312 C 61.167969 56.242188 60.359375 54.355469 60.078125 52.234375 C 59.941406 51.191406 59.945312 50.050781 60.296875 48.894531 C 60.621094 47.742188 61.367188 46.617188 62.363281 45.886719 L 62.953125 45.457031 L 63.652344 45.636719 C 69.996094 47.199219 75.648438 50.65625 80.484375 54.742188 C 85.347656 58.824219 89.566406 63.492188 93.691406 68.128906 L 91.3125 70.316406 C 86.105469 64.875 81.414062 58.917969 77.359375 52.558594 C 75.328125 49.390625 73.46875 46.097656 71.75 42.746094 C 70.882812 41.035156 70.058594 39.191406 69.640625 37.121094 C 69.203125 35.097656 69.296875 32.527344 70.714844 30.496094 L 71.335938 29.628906 L 72.367188 29.804688 C 75.394531 30.339844 78.140625 31.816406 80.378906 33.703125 C 82.617188 35.601562 84.445312 37.859375 85.96875 40.234375 C 87.488281 42.574219 88.835938 45.246094 89.644531 47.953125 C 90.390625 50.609375 91.375 52.515625 93.101562 54.492188 L 90.246094 56.222656 C 88.097656 51.136719 87.269531 45.484375 86.59375 40.328125 C 86.214844 37.667969 85.6875 35.296875 85.128906 32.519531 C 84.652344 29.835938 84.382812 26.472656 86.335938 23.597656 C 86.777344 22.789062 88.089844 21.867188 89.339844 21.972656 C 90.546875 22.011719 91.34375 22.503906 92.023438 22.929688 C 93.359375 23.839844 94.335938 24.878906 95.261719 25.953125 C 97.074219 28.101562 98.585938 30.355469 99.964844 32.777344 C 102.535156 38.230469 102.609375 43.628906 103.890625 48.632812 L 100.898438 49.160156 C 100.347656 43.785156 99.984375 38.316406 100.273438 32.832031 C 100.554688 27.355469 101.539062 21.828125 103.546875 16.648438 L 103.800781 16.011719 L 104.484375 15.78125 C 105.6875 15.375 107.25 15.648438 108.25 16.382812 C 109.269531 17.09375 109.878906 18.007812 110.382812 18.902344 C 111.335938 20.667969 111.765625 22.742188 111.882812 24.53125 C 112.230469 28.101562 112.386719 31.699219 112.332031 35.28125 C 112.253906 42.453125 111.390625 49.613281 109.78125 56.59375 L 107.367188 56.082031 L 111.566406 36.429688 C 112.367188 33.191406 112.628906 29.800781 114.394531 26.480469 C 115.253906 24.863281 116.753906 23.375 118.582031 22.703125 C 120.339844 22.007812 122.675781 21.980469 124.382812 23.382812 L 124.804688 23.734375 L 124.753906 24.269531 C 123.476562 37.726562 119.484375 50.894531 113.179688 62.808594 L 111.660156 62.125 C 114.53125 54.582031 118.277344 47.292969 123.34375 40.921875 C 128.371094 34.578125 134.933594 29.1875 142.699219 26.484375 L 143.546875 26.191406 L 143.570312 27.09375 C 143.722656 34.910156 140.640625 42.40625 136.234375 48.621094 C 131.808594 54.890625 126.15625 60.15625 120.117188 64.753906 L 119.449219 64.042969 C 123.636719 59.371094 128.601562 55.398438 134.109375 52.394531 C 136.890625 50.957031 139.675781 49.515625 142.808594 48.75 C 144.363281 48.390625 145.992188 48.191406 147.636719 48.429688 C 149.28125 48.644531 150.933594 49.476562 151.980469 50.855469 L 152.398438 51.402344 L 151.765625 51.714844 C 142.273438 56.460938 133.117188 61.953125 124.546875 68.242188 L 123.785156 67.082031 C 128.539062 64.074219 133.46875 60.957031 139.148438 59.496094 C 141.980469 58.765625 144.960938 58.539062 147.894531 58.949219 C 150.808594 59.351562 153.734375 60.457031 156.078125 62.390625 L 157.007812 63.164062 L 156.007812 63.878906 C 151.058594 67.34375 145.132812 68.628906 139.546875 69.765625 C 133.933594 70.910156 128.285156 71.960938 123.515625 74.703125 L 122.734375 72.53125 C 133.707031 70.53125 145.261719 71.644531 155.648438 75.816406 L 157.070312 76.386719 L 156.371094 77.609375 C 155.566406 78.980469 154.71875 79.152344 153.976562 79.570312 C 153.203125 79.902344 152.457031 80.140625 151.71875 80.347656 C 150.21875 80.738281 148.738281 80.996094 147.242188 81.1875 C 144.277344 81.570312 141.316406 81.703125 138.355469 81.714844 C 132.433594 81.714844 126.554688 81.179688 120.730469 80.261719 L 121.402344 77.535156 L 148.574219 86.707031 L 150.152344 87.242188 L 149.324219 88.722656 C 148.6875 89.914062 148.019531 91.621094 146.847656 93.035156 C 145.734375 94.5 143.800781 95.636719 141.871094 95.796875 C 139.9375 95.949219 138.171875 95.472656 136.589844 94.820312 C 135.03125 94.1875 133.636719 93.523438 132.164062 92.828125 C 126.375 90.050781 120.738281 86.714844 115.828125 82.417969 L 117.527344 80.484375 C 121.355469 83.902344 124.753906 87.808594 127.613281 92.070312 C 129 94.21875 130.433594 96.371094 131.390625 98.941406 C 131.84375 100.207031 132.183594 101.582031 132.175781 103.050781 C 132.195312 104.503906 131.726562 106.089844 130.765625 107.304688 L 130.191406 108.03125 L 129.351562 107.679688 C 123.859375 105.421875 119.605469 101.058594 116.480469 96.339844 C 113.300781 91.589844 111 86.414062 108.804688 81.273438 L 110.683594 80.492188 C 112.726562 85.695312 114.738281 90.984375 115.953125 96.53125 C 117.167969 102.050781 117.523438 107.964844 115.964844 113.53125 L 115.519531 115.074219 L 114.550781 113.816406 C 107.710938 104.929688 103.8125 93.894531 103.386719 82.773438 L 104.324219 82.679688 C 105.085938 87.46875 104.578125 92.40625 103.007812 96.949219 C 102.226562 99.230469 101.167969 101.394531 99.863281 103.425781 C 98.523438 105.457031 97.128906 107.261719 95.167969 108.976562 Z M 95.15625 108.660156 C 96.640625 107.097656 98.277344 105.167969 99.464844 103.175781 C 100.707031 101.164062 101.6875 99 102.417969 96.75 C 103.851562 92.269531 104.230469 87.441406 103.394531 82.828125 L 104.332031 82.734375 C 104.964844 93.667969 109.09375 104.296875 115.820312 112.828125 L 114.410156 113.113281 C 115.816406 107.851562 115.414062 102.261719 114.179688 96.933594 C 112.9375 91.574219 110.894531 86.40625 108.800781 81.25 L 110.679688 80.464844 C 112.917969 85.550781 115.253906 90.582031 118.339844 95.078125 C 121.402344 99.550781 125.351562 103.445312 130.273438 105.449219 L 128.863281 105.824219 C 130.097656 104.296875 129.894531 101.945312 129.074219 99.773438 C 128.277344 97.613281 126.902344 95.535156 125.550781 93.476562 C 122.789062 89.390625 119.5 85.671875 115.816406 82.417969 L 117.519531 80.484375 C 122.203125 84.542969 127.648438 87.722656 133.324219 90.410156 C 136.179688 91.675781 139.0625 93.328125 141.601562 93.082031 C 142.847656 92.9375 143.886719 92.355469 144.710938 91.304688 C 145.582031 90.246094 146.085938 88.945312 146.929688 87.339844 L 147.6875 89.339844 L 120.503906 80.199219 L 121.1875 77.476562 C 126.867188 78.390625 132.613281 78.949219 138.359375 78.972656 C 141.222656 78.980469 144.089844 78.855469 146.902344 78.503906 C 148.300781 78.320312 149.695312 78.089844 151.027344 77.753906 C 151.683594 77.566406 152.328125 77.363281 152.894531 77.121094 C 153.449219 76.925781 154.015625 76.449219 153.929688 76.511719 L 154.65625 78.292969 C 144.742188 74.308594 133.714844 73.042969 123.125 74.835938 L 116.371094 75.984375 L 122.359375 72.667969 C 127.667969 69.742188 133.546875 68.785156 139.136719 67.714844 C 144.722656 66.652344 150.347656 65.464844 154.9375 62.335938 L 154.871094 63.824219 C 150.792969 60.371094 144.796875 59.808594 139.546875 61.085938 C 134.171875 62.375 129.316406 65.324219 124.511719 68.273438 L 123.734375 67.105469 C 132.476562 60.9375 141.660156 55.402344 151.257812 50.691406 L 151.0625 51.546875 C 149.34375 49.207031 145.898438 49.132812 143.054688 49.816406 C 140.128906 50.511719 137.328125 51.917969 134.601562 53.3125 C 129.195312 56.242188 124.261719 60.085938 120.183594 64.699219 L 119.523438 63.976562 C 125.484375 59.382812 131.011719 54.136719 135.300781 47.964844 C 139.566406 41.851562 142.460938 34.589844 142.257812 27.125 L 143.136719 27.722656 C 135.675781 30.371094 129.371094 35.628906 124.515625 41.847656 C 119.625 48.089844 115.996094 55.273438 113.222656 62.71875 L 111.703125 62.039062 C 117.851562 50.277344 121.574219 37.28125 122.710938 24.09375 L 123.085938 24.96875 C 122.128906 24.1875 120.644531 24.148438 119.339844 24.667969 C 118.003906 25.199219 116.988281 26.183594 116.273438 27.53125 C 114.855469 30.179688 114.519531 33.628906 113.773438 36.882812 L 109.785156 56.582031 L 107.378906 56.058594 C 108.863281 49.230469 109.628906 42.25 109.632812 35.265625 C 109.640625 31.773438 109.464844 28.285156 109.097656 24.8125 C 108.960938 23.082031 108.597656 21.621094 107.867188 20.273438 C 107.507812 19.625 107.070312 19.058594 106.621094 18.761719 C 106.164062 18.476562 105.816406 18.410156 105.328125 18.546875 L 106.25 17.675781 C 102.492188 27.457031 102.773438 38.308594 103.925781 48.839844 L 100.9375 49.367188 C 100.277344 46.691406 99.871094 44.03125 99.375 41.460938 C 98.863281 38.960938 98.269531 36.238281 97.230469 34.300781 C 95.972656 32.101562 94.488281 29.921875 92.863281 28.007812 C 92.050781 27.0625 91.15625 26.171875 90.277344 25.585938 C 89.859375 25.300781 89.414062 25.136719 89.277344 25.15625 C 89.164062 25.183594 89.222656 25.085938 88.964844 25.417969 C 86.625 28.859375 89.265625 34.542969 89.835938 39.820312 C 90.585938 45.195312 91.347656 50.179688 93.386719 54.96875 L 97.734375 65.183594 L 90.523438 56.683594 C 89.601562 55.59375 88.703125 54.402344 88.007812 53.035156 C 87.28125 51.6875 86.835938 50.238281 86.449219 48.976562 C 85.6875 46.484375 84.566406 44.269531 83.148438 42.046875 C 80.417969 37.722656 76.542969 33.90625 71.792969 33.066406 L 73.441406 32.386719 C 71.902344 34.535156 73.078125 38.175781 74.695312 41.257812 C 76.351562 44.523438 78.152344 47.714844 80.132812 50.800781 C 84.050781 56.980469 88.601562 62.773438 93.652344 68.085938 L 91.273438 70.269531 C 87.175781 65.640625 83.058594 61.089844 78.425781 57.1875 C 73.808594 53.304688 68.628906 50.085938 62.902344 48.601562 L 64.183594 48.351562 C 62.1875 49.675781 62.996094 53.707031 64.738281 56.367188 C 66.609375 59.3125 68.9375 61.988281 71.703125 64.152344 C 77.175781 68.574219 84.136719 71.144531 91.160156 71.277344 L 90.964844 73.84375 L 75.625 71.53125 C 73.085938 71.1875 70.464844 70.671875 68.042969 70.484375 C 65.636719 70.304688 63.15625 70.648438 61.945312 72.292969 L 62.136719 71.371094 C 62.863281 74.703125 65.269531 77.507812 68.257812 79.320312 C 71.269531 81.136719 74.839844 82.078125 78.375 82.035156 C 85.621094 81.902344 92.417969 78.523438 99.011719 75.175781 L 99.71875 76.78125 C 90.167969 80.207031 81.886719 87.09375 76.730469 95.878906 L 76.449219 94.914062 C 78.125 95.679688 80.25 95.84375 82.175781 95.507812 C 84.125 95.167969 85.980469 94.269531 87.609375 93.070312 C 89.285156 91.914062 90.664062 90.382812 91.976562 88.800781 C 92.574219 87.96875 93.203125 87.140625 93.769531 86.28125 L 95.367188 83.613281 L 96.117188 84.039062 C 93.902344 87.875 92.171875 92.113281 91.542969 96.511719 C 91.234375 98.707031 91.246094 100.980469 91.820312 103.121094 C 92.125 104.183594 92.550781 105.203125 93.125 106.160156 C 93.695312 107.101562 94.496094 107.9375 95.15625 108.660156 " fill-opacity="1" fill-rule="nonzero"/></g></g></g></g></g><g clip-path="url(#3d210c6a9b)"><g clip-path="url(#79ae6d349d)"><g clip-path="url(#c1d4c6400e)"><g clip-path="url(#b6410f6637)"><g clip-path="url(#b8c418678c)"><path fill="#727272" d="M 94.808594 107.042969 C 92.703125 115.742188 88.886719 123.859375 84.957031 131.714844 C 82.867188 135.605469 80.660156 139.421875 78.800781 143.417969 C 76.953125 147.417969 75.574219 151.628906 74.753906 155.925781 C 73.898438 160.21875 73.46875 164.570312 73.5625 168.855469 C 73.4375 173.109375 74.441406 177.464844 74.171875 182.15625 C 73.945312 186.847656 72.433594 191.328125 70.4375 195.375 C 68.472656 199.453125 65.957031 203.164062 63.367188 206.753906 L 62.539062 206.371094 C 62.941406 205.535156 63.335938 204.707031 63.773438 203.882812 L 64.0625 203.996094 C 63.863281 204.898438 63.636719 205.796875 63.410156 206.675781 L 62.578125 206.292969 C 66.324219 198.296875 70.351562 190.335938 70.78125 181.972656 C 71.027344 177.8125 70.417969 173.378906 70.691406 168.792969 C 70.777344 166.511719 71.136719 164.28125 71.507812 162.054688 C 72.046875 159.859375 72.566406 157.667969 73.28125 155.546875 C 74.671875 151.296875 76.175781 147.144531 77.75 142.984375 C 79.25 138.816406 80.726562 134.59375 82.488281 130.527344 C 86.195312 122.464844 90.414062 114.8125 94.503906 106.929688 L 94.808594 107.042969 " fill-opacity="1" fill-rule="nonzero"/></g></g></g></g></g><g clip-path="url(#7c146bcc02)"><g clip-path="url(#91a5d18335)"><g clip-path="url(#9374fc17cd)"><path fill="#727272" d="M 61.414062 146.644531 C 64.0625 147.511719 66.402344 149.484375 68.09375 151.683594 C 69.816406 153.890625 71.457031 155.96875 73.398438 157.648438 L 73.632812 157.855469 L 73.746094 158.210938 L 74.207031 159.535156 L 71.691406 160.183594 C 70.726562 156.140625 69.789062 152.109375 69.035156 148.03125 C 68.296875 143.949219 67.875 139.867188 66.027344 136.3125 C 65.128906 134.523438 63.71875 133.105469 62.179688 131.667969 C 60.660156 130.246094 59.246094 128.484375 58.421875 126.523438 C 56.679688 122.730469 55.644531 118.402344 52.652344 116.171875 L 54.378906 114.914062 C 55.589844 117.476562 55.421875 120.390625 54.957031 122.898438 C 54.476562 125.453125 53.644531 127.804688 53.144531 130.105469 C 52.046875 134.605469 52.820312 139.164062 54.734375 143.421875 C 56.671875 147.648438 59.457031 151.621094 62.738281 155.183594 C 64.328125 157.007812 66.085938 158.808594 67.609375 160.832031 C 69.105469 162.863281 70.371094 165.21875 70.667969 167.734375 L 70.355469 167.800781 C 68.722656 163.097656 64.660156 160.234375 61.011719 156.875 C 57.402344 153.398438 53.972656 149.535156 51.714844 144.820312 C 50.574219 142.476562 49.769531 139.921875 49.4375 137.273438 C 49.109375 134.628906 49.417969 131.84375 50.101562 129.351562 C 51.40625 124.460938 53.742188 119.953125 52.339844 115.738281 L 50.90625 111.417969 L 54.074219 114.484375 C 57.570312 117.871094 57.796875 122.425781 59.429688 126.074219 C 60.199219 127.949219 61.296875 129.609375 62.871094 130.9375 C 64.382812 132.300781 66.046875 133.757812 67.226562 135.589844 C 69.65625 139.21875 70.714844 143.476562 71.71875 147.46875 C 72.6875 151.496094 73.46875 155.570312 74.234375 159.652344 L 71.726562 160.300781 L 71.359375 158.945312 L 71.695312 159.503906 C 69.5625 157.484375 68.167969 154.9375 66.714844 152.6875 C 65.292969 150.40625 63.628906 148.363281 61.273438 146.9375 L 61.414062 146.644531 " fill-opacity="1" fill-rule="nonzero"/></g></g></g><g clip-path="url(#e02465576a)"><g clip-path="url(#311f1c27b9)"><g clip-path="url(#9521b8756d)"><path fill="#727272" d="M 91.691406 136.164062 C 91.664062 136.394531 92.003906 135.847656 92.488281 135.59375 C 92.703125 135.414062 93.257812 135.484375 93.394531 135.542969 L 94.046875 135.671875 C 94.933594 135.851562 95.816406 136.007812 96.6875 136.222656 C 98.4375 136.601562 100.152344 137.046875 101.878906 137.496094 C 103.585938 137.96875 105.226562 138.363281 106.78125 138.429688 C 108.316406 138.472656 109.84375 138.109375 111.390625 137.539062 C 114.480469 136.441406 117.691406 134.582031 121.117188 133.355469 C 124.480469 132.0625 127.890625 130.941406 131.386719 130.042969 L 131.199219 131.226562 C 127.019531 129.320312 122.496094 128.476562 118.050781 128.34375 C 113.5625 128.171875 109.117188 128.972656 104.914062 130.339844 C 102.796875 131.003906 100.769531 131.949219 98.792969 132.976562 C 96.742188 134.035156 95.222656 135.382812 92.96875 136.765625 C 91.792969 137.457031 90.347656 137.65625 89.164062 137.613281 C 87.953125 137.582031 86.832031 137.402344 85.746094 137.707031 C 83.554688 138.203125 81.511719 139.46875 80.113281 141.3125 L 79.851562 141.121094 C 81.160156 139.144531 83.210938 137.628906 85.550781 136.957031 C 87.902344 136.253906 90.441406 136.402344 91.898438 135.117188 C 93.390625 133.757812 95.292969 131.863281 97.304688 130.570312 C 99.316406 129.199219 101.488281 127.988281 103.804688 127.195312 C 108.386719 125.441406 113.398438 124.964844 118.234375 125.410156 C 123.101562 125.832031 127.753906 127.609375 131.8125 130.105469 L 133.359375 131.050781 L 131.632812 131.292969 C 128.148438 131.777344 124.75 132.863281 121.652344 134.523438 C 118.539062 136.167969 115.9375 138.574219 112.425781 140.148438 C 110.667969 140.882812 108.652344 141.371094 106.621094 141.199219 C 104.601562 141.070312 102.8125 140.375 101.140625 139.769531 C 99.480469 139.121094 97.824219 138.46875 96.183594 137.757812 C 95.355469 137.414062 94.554688 137.011719 93.734375 136.644531 C 93.3125 136.488281 92.894531 136.175781 92.746094 136.257812 C 92.59375 136.285156 92.402344 136.378906 92.195312 136.492188 C 92.074219 136.542969 91.984375 136.617188 91.769531 136.625 C 91.480469 136.621094 91.390625 136.351562 91.386719 136.246094 L 91.691406 136.164062 " fill-opacity="1" fill-rule="nonzero"/></g></g></g><g clip-path="url(#80d9f171dc)"><g clip-path="url(#5e0309f986)"><g clip-path="url(#64b25a7966)"><path fill="#727272" d="M 93.234375 134.898438 C 94.628906 133.914062 95.890625 133.640625 97.179688 133.863281 C 97.8125 134.050781 98.488281 134.542969 99.148438 134.609375 C 99.800781 134.695312 100.453125 134.445312 101.070312 134.101562 C 102.300781 133.332031 103.507812 132.980469 104.765625 132.71875 C 106.058594 132.628906 107.363281 132.6875 108.917969 133.304688 L 108.996094 133.605469 C 108.011719 134.96875 106.730469 135.652344 105.410156 136.0625 C 104.066406 136.304688 102.652344 136.328125 101.242188 135.839844 C 100.539062 135.628906 99.867188 135.480469 99.207031 135.636719 C 98.546875 135.773438 97.890625 136.3125 97.203125 136.527344 C 95.84375 136.777344 94.441406 136.421875 93.203125 135.21875 L 93.234375 134.898438 " fill-opacity="1" fill-rule="nonzero"/></g></g></g><g fill="#000000" fill-opacity="1"><g transform="translate(12.917171, 162.359285)"><g><path d="M 16.6875 -19.078125 C 14.5 -20.285156 12.597656 -20.890625 10.984375 -20.890625 C 9.890625 -20.890625 9.039062 -20.671875 8.4375 -20.234375 C 7.832031 -19.804688 7.53125 -19.160156 7.53125 -18.296875 C 7.53125 -17.492188 7.96875 -16.789062 8.84375 -16.1875 C 9.71875 -15.582031 10.882812 -15.007812 12.34375 -14.46875 C 13.53125 -14.03125 14.546875 -13.53125 15.390625 -12.96875 C 16.234375 -12.414062 16.929688 -11.648438 17.484375 -10.671875 C 18.046875 -9.691406 18.328125 -8.445312 18.328125 -6.9375 C 18.328125 -5.644531 17.988281 -4.441406 17.3125 -3.328125 C 16.644531 -2.222656 15.660156 -1.34375 14.359375 -0.6875 C 13.066406 -0.0390625 11.519531 0.28125 9.71875 0.28125 C 8.207031 0.28125 6.710938 0.0546875 5.234375 -0.390625 C 3.753906 -0.835938 2.375 -1.515625 1.09375 -2.421875 L 3.28125 -6.296875 C 4.144531 -5.648438 5.132812 -5.125 6.25 -4.71875 C 7.375 -4.3125 8.378906 -4.109375 9.265625 -4.109375 C 10.316406 -4.109375 11.226562 -4.328125 12 -4.765625 C 12.78125 -5.210938 13.171875 -5.9375 13.171875 -6.9375 C 13.171875 -8.238281 11.953125 -9.367188 9.515625 -10.328125 C 8.078125 -10.898438 6.878906 -11.445312 5.921875 -11.96875 C 4.960938 -12.488281 4.132812 -13.238281 3.4375 -14.21875 C 2.738281 -15.207031 2.390625 -16.441406 2.390625 -17.921875 C 2.390625 -20.085938 3.101562 -21.832031 4.53125 -23.15625 C 5.957031 -24.476562 7.859375 -25.195312 10.234375 -25.3125 C 12.097656 -25.3125 13.65625 -25.097656 14.90625 -24.671875 C 16.164062 -24.253906 17.390625 -23.65625 18.578125 -22.875 Z M 16.6875 -19.078125 "/></g></g></g><g fill="#000000" fill-opacity="1"><g transform="translate(35.860139, 162.359285)"><g><path d="M 7.703125 -9.296875 C 7.703125 -8.503906 7.9375 -7.742188 8.40625 -7.015625 C 8.882812 -6.285156 9.523438 -5.691406 10.328125 -5.234375 C 11.128906 -4.773438 11.984375 -4.546875 12.890625 -4.546875 C 13.867188 -4.546875 14.769531 -4.773438 15.59375 -5.234375 C 16.414062 -5.691406 17.0625 -6.285156 17.53125 -7.015625 C 18 -7.742188 18.234375 -8.503906 18.234375 -9.296875 L 18.234375 -25.171875 L 23.125 -25.171875 L 23.125 -9.203125 C 23.125 -7.398438 22.664062 -5.773438 21.75 -4.328125 C 20.84375 -2.878906 19.609375 -1.75 18.046875 -0.9375 C 16.484375 -0.125 14.765625 0.28125 12.890625 0.28125 C 11.023438 0.28125 9.316406 -0.125 7.765625 -0.9375 C 6.210938 -1.75 4.984375 -2.878906 4.078125 -4.328125 C 3.179688 -5.773438 2.734375 -7.398438 2.734375 -9.203125 L 2.734375 -25.171875 L 7.703125 -25.171875 Z M 7.703125 -9.296875 "/></g></g></g><g fill="#000000" fill-opacity="1"><g transform="translate(64.718122, 162.359285)"><g><path d="M 29.171875 -26.203125 L 29.171875 0 L 24.21875 0 L 24.21875 -12 L 16 -0.34375 L 15.9375 -0.34375 L 8.03125 -11.25 L 8.03125 0 L 3.25 0 L 3.25 -26.203125 L 3.28125 -26.203125 L 16.046875 -8.109375 L 29.109375 -26.203125 Z M 29.171875 -26.203125 "/></g></g></g><g fill="#000000" fill-opacity="1"><g transform="translate(100.140748, 162.359285)"><g><path d="M 29.171875 -26.203125 L 29.171875 0 L 24.21875 0 L 24.21875 -12 L 16 -0.34375 L 15.9375 -0.34375 L 8.03125 -11.25 L 8.03125 0 L 3.25 0 L 3.25 -26.203125 L 3.28125 -26.203125 L 16.046875 -8.109375 L 29.109375 -26.203125 Z M 29.171875 -26.203125 "/></g></g></g><g fill="#000000" fill-opacity="1"><g transform="translate(135.563378, 162.359285)"><g><path d="M 20.421875 -25.171875 L 20.421875 -20.390625 L 8.203125 -20.390625 L 8.203125 -15.015625 L 19.015625 -15.015625 L 19.015625 -10.234375 L 8.203125 -10.234375 L 8.203125 -4.78125 L 20.890625 -4.78125 L 20.890625 0 L 3.25 0 L 3.25 -25.171875 Z M 20.421875 -25.171875 "/></g></g></g><g fill="#000000" fill-opacity="1"><g transform="translate(161.344184, 162.359285)"><g><path d="M 16.828125 0 L 11.53125 -8 L 8.203125 -8 L 8.203125 0 L 3.25 0 L 3.25 -25.171875 L 10.875 -25.171875 C 14 -25.171875 16.421875 -24.410156 18.140625 -22.890625 C 19.867188 -21.378906 20.734375 -19.3125 20.734375 -16.6875 C 20.734375 -15.132812 20.40625 -13.679688 19.75 -12.328125 C 19.101562 -10.972656 18.109375 -9.90625 16.765625 -9.125 L 22.609375 0 Z M 8.203125 -12.796875 L 11.734375 -12.796875 C 13.078125 -12.796875 14.054688 -13.1875 14.671875 -13.96875 C 15.285156 -14.757812 15.59375 -15.609375 15.59375 -16.515625 C 15.59375 -17.429688 15.328125 -18.304688 14.796875 -19.140625 C 14.273438 -19.972656 13.265625 -20.390625 11.765625 -20.390625 L 8.203125 -20.390625 Z M 8.203125 -12.796875 "/></g></g></g><g fill="#000000" fill-opacity="1"><g transform="translate(187.818986, 162.359285)"><g><path d="M 24.078125 -25.171875 L 12.59375 1.15625 L 1.09375 -25.171875 L 7.046875 -25.171875 L 12.796875 -10.984375 L 18.203125 -25.171875 Z M 24.078125 -25.171875 "/></g></g></g><g fill="#000000" fill-opacity="1"><g transform="translate(215.993159, 162.359285)"><g><path d="M 15.703125 -4.921875 L 7.359375 -4.921875 L 5.296875 0 L 0.40625 0 L 11.765625 -26.171875 L 12.046875 -26.171875 L 23.390625 0 L 17.65625 0 Z M 14.0625 -9.09375 L 11.625 -15.21875 L 9.09375 -9.09375 Z M 14.0625 -9.09375 "/></g></g></g><g fill="#000000" fill-opacity="1"><g transform="translate(242.799697, 162.359285)"><g><path d="M 25.921875 -25.171875 L 25.921875 1.03125 L 25.796875 1.03125 L 8.171875 -14.875 L 8.28125 0 L 3.25 0 L 3.25 -26.171875 L 3.453125 -26.171875 L 21.03125 -10.015625 L 20.9375 -25.171875 Z M 25.921875 -25.171875 "/></g></g></g><g fill="#000000" fill-opacity="1"><g transform="translate(274.974195, 162.359285)"><g><path d="M 8.203125 -25.171875 L 8.203125 0 L 3.25 0 L 3.25 -25.171875 Z M 8.203125 -25.171875 "/></g></g></g><g fill="#000000" fill-opacity="1"><g transform="translate(289.437828, 162.359285)"><g><path d="M 8.203125 -25.171875 L 8.203125 -4.78125 L 20.046875 -4.78125 L 20.046875 0 L 3.25 0 L 3.25 -25.171875 Z M 8.203125 -25.171875 "/></g></g></g><g fill="#000000" fill-opacity="1"><g transform="translate(314.363864, 162.359285)"><g><path d="M 8.203125 -25.171875 L 8.203125 -4.78125 L 20.046875 -4.78125 L 20.046875 0 L 3.25 0 L 3.25 -25.171875 Z M 8.203125 -25.171875 "/></g></g></g><g fill="#000000" fill-opacity="1"><g transform="translate(339.289892, 162.359285)"><g><path d="M 20.421875 -25.171875 L 20.421875 -20.390625 L 8.203125 -20.390625 L 8.203125 -15.015625 L 19.015625 -15.015625 L 19.015625 -10.234375 L 8.203125 -10.234375 L 8.203125 -4.78125 L 20.890625 -4.78125 L 20.890625 0 L 3.25 0 L 3.25 -25.171875 Z M 20.421875 -25.171875 "/></g></g></g><g fill="#000000" fill-opacity="1"><g transform="translate(73.294389, 203.465243)"><g><path d="M 9.25 -0.828125 C 8.9375 -0.597656 8.507812 -0.382812 7.96875 -0.1875 C 7.425781 0.0078125 6.832031 0.109375 6.1875 0.109375 C 5.09375 0.109375 4.140625 -0.125 3.328125 -0.59375 C 2.515625 -1.070312 1.890625 -1.710938 1.453125 -2.515625 C 1.015625 -3.328125 0.796875 -4.210938 0.796875 -5.171875 C 0.796875 -6.222656 1.015625 -7.160156 1.453125 -7.984375 C 1.890625 -8.816406 2.5 -9.46875 3.28125 -9.9375 C 4.070312 -10.40625 4.96875 -10.640625 5.96875 -10.640625 C 6.582031 -10.640625 7.148438 -10.554688 7.671875 -10.390625 C 8.203125 -10.222656 8.671875 -10.015625 9.078125 -9.765625 L 8.40625 -8.1875 C 7.625 -8.738281 6.832031 -9.015625 6.03125 -9.015625 C 5.414062 -9.015625 4.835938 -8.847656 4.296875 -8.515625 C 3.765625 -8.179688 3.335938 -7.726562 3.015625 -7.15625 C 2.703125 -6.582031 2.546875 -5.957031 2.546875 -5.28125 C 2.546875 -4.550781 2.691406 -3.898438 2.984375 -3.328125 C 3.273438 -2.753906 3.691406 -2.304688 4.234375 -1.984375 C 4.785156 -1.660156 5.414062 -1.5 6.125 -1.5 C 6.632812 -1.5 7.09375 -1.578125 7.5 -1.734375 C 7.914062 -1.890625 8.265625 -2.085938 8.546875 -2.328125 Z M 9.25 -0.828125 "/></g></g></g><g fill="#000000" fill-opacity="1"><g transform="translate(86.119477, 203.465243)"><g><path d="M 7.203125 0 L 4.828125 -3.65625 L 3.140625 -3.65625 L 3.140625 0 L 1.453125 0 L 1.453125 -10.515625 L 4.40625 -10.515625 C 5.582031 -10.515625 6.523438 -10.21875 7.234375 -9.625 C 7.941406 -9.03125 8.296875 -8.203125 8.296875 -7.140625 C 8.296875 -6.492188 8.15625 -5.894531 7.875 -5.34375 C 7.601562 -4.789062 7.175781 -4.363281 6.59375 -4.0625 L 9.15625 0 Z M 3.140625 -5.28125 L 4.640625 -5.28125 C 5.316406 -5.28125 5.804688 -5.460938 6.109375 -5.828125 C 6.410156 -6.203125 6.5625 -6.617188 6.5625 -7.078125 C 6.5625 -7.347656 6.503906 -7.617188 6.390625 -7.890625 C 6.273438 -8.171875 6.078125 -8.410156 5.796875 -8.609375 C 5.515625 -8.804688 5.148438 -8.90625 4.703125 -8.90625 L 3.140625 -8.90625 Z M 3.140625 -5.28125 "/></g></g></g><g fill="#000000" fill-opacity="1"><g transform="translate(98.58361, 203.465243)"><g><path d="M 6.84375 -2.46875 L 3.015625 -2.46875 L 2.015625 0 L 0.34375 0 L 5 -10.953125 L 5.109375 -10.953125 L 9.75 0 L 7.8125 0 Z M 6.28125 -3.921875 L 4.96875 -7.234375 L 3.609375 -3.921875 Z M 6.28125 -3.921875 "/></g></g></g><g fill="#000000" fill-opacity="1"><g transform="translate(111.46645, 203.465243)"><g><path d="M 7.828125 -10.515625 L 7.828125 -8.90625 L 3.140625 -8.90625 L 3.140625 -5.9375 L 7.234375 -5.9375 L 7.234375 -4.34375 L 3.140625 -4.34375 L 3.140625 0 L 1.453125 0 L 1.453125 -10.515625 Z M 7.828125 -10.515625 "/></g></g></g><g fill="#000000" fill-opacity="1"><g transform="translate(122.818842, 203.465243)"><g><path d="M 7.734375 -10.515625 L 7.734375 -8.90625 L 5.015625 -8.90625 L 5.015625 0 L 3.34375 0 L 3.34375 -8.90625 L 0.6875 -8.90625 L 0.6875 -10.515625 Z M 7.734375 -10.515625 "/></g></g></g><g fill="#000000" fill-opacity="1"><g transform="translate(134.026846, 203.465243)"><g/></g></g><g fill="#000000" fill-opacity="1"><g transform="translate(141.437595, 203.465243)"><g><path d="M 9.84375 -10.515625 L 5.890625 -3.40625 L 5.890625 0 L 4.21875 0 L 4.21875 -3.40625 L 0.328125 -10.515625 L 2.40625 -10.515625 L 5.109375 -5.328125 L 7.78125 -10.515625 Z M 9.84375 -10.515625 "/></g></g></g><g fill="#000000" fill-opacity="1"><g transform="translate(154.392625, 203.465243)"><g><path d="M 0.796875 -5.25 C 0.796875 -6.207031 1.035156 -7.097656 1.515625 -7.921875 C 1.992188 -8.742188 2.644531 -9.398438 3.46875 -9.890625 C 4.300781 -10.390625 5.203125 -10.640625 6.171875 -10.640625 C 7.128906 -10.640625 8.019531 -10.390625 8.84375 -9.890625 C 9.675781 -9.398438 10.335938 -8.738281 10.828125 -7.90625 C 11.316406 -7.082031 11.5625 -6.195312 11.5625 -5.25 C 11.5625 -4.269531 11.316406 -3.367188 10.828125 -2.546875 C 10.347656 -1.734375 9.691406 -1.085938 8.859375 -0.609375 C 8.023438 -0.128906 7.128906 0.109375 6.171875 0.109375 C 5.203125 0.109375 4.300781 -0.125 3.46875 -0.59375 C 2.644531 -1.070312 1.992188 -1.71875 1.515625 -2.53125 C 1.035156 -3.351562 0.796875 -4.257812 0.796875 -5.25 Z M 2.53125 -5.25 C 2.53125 -4.5625 2.691406 -3.929688 3.015625 -3.359375 C 3.347656 -2.796875 3.796875 -2.34375 4.359375 -2 C 4.921875 -1.664062 5.539062 -1.5 6.21875 -1.5 C 6.882812 -1.5 7.488281 -1.664062 8.03125 -2 C 8.582031 -2.332031 9.019531 -2.785156 9.34375 -3.359375 C 9.664062 -3.929688 9.828125 -4.5625 9.828125 -5.25 C 9.828125 -5.925781 9.660156 -6.550781 9.328125 -7.125 C 9.003906 -7.707031 8.5625 -8.164062 8 -8.5 C 7.445312 -8.84375 6.835938 -9.015625 6.171875 -9.015625 C 5.492188 -9.015625 4.878906 -8.84375 4.328125 -8.5 C 3.773438 -8.164062 3.335938 -7.707031 3.015625 -7.125 C 2.691406 -6.550781 2.53125 -5.925781 2.53125 -5.25 Z M 2.53125 -5.25 "/></g></g></g><g fill="#000000" fill-opacity="1"><g transform="translate(169.527828, 203.465243)"><g><path d="M 2.96875 -3.78125 C 2.96875 -3.382812 3.070312 -3.007812 3.28125 -2.65625 C 3.488281 -2.3125 3.773438 -2.035156 4.140625 -1.828125 C 4.515625 -1.617188 4.914062 -1.515625 5.34375 -1.515625 C 5.800781 -1.515625 6.210938 -1.613281 6.578125 -1.8125 C 6.953125 -2.019531 7.242188 -2.296875 7.453125 -2.640625 C 7.671875 -2.992188 7.78125 -3.375 7.78125 -3.78125 L 7.78125 -10.515625 L 9.4375 -10.515625 L 9.4375 -3.75 C 9.4375 -2.988281 9.253906 -2.316406 8.890625 -1.734375 C 8.535156 -1.160156 8.039062 -0.707031 7.40625 -0.375 C 6.78125 -0.0507812 6.09375 0.109375 5.34375 0.109375 C 4.59375 0.109375 3.90625 -0.0507812 3.28125 -0.375 C 2.664062 -0.707031 2.175781 -1.160156 1.8125 -1.734375 C 1.457031 -2.316406 1.28125 -2.988281 1.28125 -3.75 L 1.28125 -10.515625 L 2.96875 -10.515625 Z M 2.96875 -3.78125 "/></g></g></g><g fill="#000000" fill-opacity="1"><g transform="translate(183.017075, 203.465243)"><g><path d="M 7.203125 0 L 4.828125 -3.65625 L 3.140625 -3.65625 L 3.140625 0 L 1.453125 0 L 1.453125 -10.515625 L 4.40625 -10.515625 C 5.582031 -10.515625 6.523438 -10.21875 7.234375 -9.625 C 7.941406 -9.03125 8.296875 -8.203125 8.296875 -7.140625 C 8.296875 -6.492188 8.15625 -5.894531 7.875 -5.34375 C 7.601562 -4.789062 7.175781 -4.363281 6.59375 -4.0625 L 9.15625 0 Z M 3.140625 -5.28125 L 4.640625 -5.28125 C 5.316406 -5.28125 5.804688 -5.460938 6.109375 -5.828125 C 6.410156 -6.203125 6.5625 -6.617188 6.5625 -7.078125 C 6.5625 -7.347656 6.503906 -7.617188 6.390625 -7.890625 C 6.273438 -8.171875 6.078125 -8.410156 5.796875 -8.609375 C 5.515625 -8.804688 5.148438 -8.90625 4.703125 -8.90625 L 3.140625 -8.90625 Z M 3.140625 -5.28125 "/></g></g></g><g fill="#000000" fill-opacity="1"><g transform="translate(195.481206, 203.465243)"><g/></g></g><g fill="#000000" fill-opacity="1"><g transform="translate(202.891962, 203.465243)"><g><path d="M 0.796875 -5.25 C 0.796875 -6.207031 1.035156 -7.097656 1.515625 -7.921875 C 1.992188 -8.742188 2.644531 -9.398438 3.46875 -9.890625 C 4.300781 -10.390625 5.203125 -10.640625 6.171875 -10.640625 C 7.128906 -10.640625 8.019531 -10.390625 8.84375 -9.890625 C 9.675781 -9.398438 10.335938 -8.738281 10.828125 -7.90625 C 11.316406 -7.082031 11.5625 -6.195312 11.5625 -5.25 C 11.5625 -4.269531 11.316406 -3.367188 10.828125 -2.546875 C 10.347656 -1.734375 9.691406 -1.085938 8.859375 -0.609375 C 8.023438 -0.128906 7.128906 0.109375 6.171875 0.109375 C 5.203125 0.109375 4.300781 -0.125 3.46875 -0.59375 C 2.644531 -1.070312 1.992188 -1.71875 1.515625 -2.53125 C 1.035156 -3.351562 0.796875 -4.257812 0.796875 -5.25 Z M 2.53125 -5.25 C 2.53125 -4.5625 2.691406 -3.929688 3.015625 -3.359375 C 3.347656 -2.796875 3.796875 -2.34375 4.359375 -2 C 4.921875 -1.664062 5.539062 -1.5 6.21875 -1.5 C 6.882812 -1.5 7.488281 -1.664062 8.03125 -2 C 8.582031 -2.332031 9.019531 -2.785156 9.34375 -3.359375 C 9.664062 -3.929688 9.828125 -4.5625 9.828125 -5.25 C 9.828125 -5.925781 9.660156 -6.550781 9.328125 -7.125 C 9.003906 -7.707031 8.5625 -8.164062 8 -8.5 C 7.445312 -8.84375 6.835938 -9.015625 6.171875 -9.015625 C 5.492188 -9.015625 4.878906 -8.84375 4.328125 -8.5 C 3.773438 -8.164062 3.335938 -7.707031 3.015625 -7.125 C 2.691406 -6.550781 2.53125 -5.925781 2.53125 -5.25 Z M 2.53125 -5.25 "/></g></g></g><g fill="#000000" fill-opacity="1"><g transform="translate(218.027166, 203.465243)"><g><path d="M 10.015625 0.46875 L 7.53125 -5.8125 L 4.734375 0.484375 L 0.53125 -10.46875 L 2.5 -10.46875 L 4.953125 -3.4375 L 6.703125 -7.921875 L 5.6875 -10.46875 L 7.359375 -10.46875 L 10.0625 -3.640625 L 12.3125 -10.46875 L 14.125 -10.46875 Z M 10.015625 0.46875 "/></g></g></g><g fill="#000000" fill-opacity="1"><g transform="translate(235.458041, 203.465243)"><g><path d="M 10.734375 -10.515625 L 10.734375 0.375 L 10.703125 0.375 L 3.109375 -6.984375 L 3.15625 0 L 1.453125 0 L 1.453125 -10.890625 L 1.53125 -10.890625 L 9.09375 -3.4375 L 9.0625 -10.515625 Z M 10.734375 -10.515625 "/></g></g></g><g fill="#000000" fill-opacity="1"><g transform="translate(250.434426, 203.465243)"><g/></g></g><g fill="#000000" fill-opacity="1"><g transform="translate(257.845175, 203.465243)"><g><path d="M 3.140625 -10.515625 L 3.140625 -1.625 L 8.328125 -1.625 L 8.328125 0 L 1.453125 0 L 1.453125 -10.515625 Z M 3.140625 -10.515625 "/></g></g></g><g fill="#000000" fill-opacity="1"><g transform="translate(269.73177, 203.465243)"><g><path d="M 3.140625 -10.515625 L 3.140625 0 L 1.453125 0 L 1.453125 -10.515625 Z M 3.140625 -10.515625 "/></g></g></g><g fill="#000000" fill-opacity="1"><g transform="translate(277.099199, 203.465243)"><g><path d="M 7.828125 -10.515625 L 7.828125 -8.90625 L 3.140625 -8.90625 L 3.140625 -5.9375 L 7.234375 -5.9375 L 7.234375 -4.34375 L 3.140625 -4.34375 L 3.140625 0 L 1.453125 0 L 1.453125 -10.515625 Z M 7.828125 -10.515625 "/></g></g></g><g fill="#000000" fill-opacity="1"><g transform="translate(288.451592, 203.465243)"><g><path d="M 8.421875 -10.515625 L 8.421875 -8.90625 L 3.140625 -8.90625 L 3.140625 -6.09375 L 7.84375 -6.09375 L 7.84375 -4.484375 L 3.140625 -4.484375 L 3.140625 -1.625 L 8.625 -1.625 L 8.625 0 L 1.453125 0 L 1.453125 -10.515625 Z M 8.421875 -10.515625 "/></g></g></g></svg>