<svg xmlns="http://www.w3.org/2000/svg" xmlns:xlink="http://www.w3.org/1999/xlink" width="500" zoomAndPan="magnify" viewBox="0 0 375 374.999991" height="500" preserveAspectRatio="xMidYMid meet" version="1.0"><defs><g/><clipPath id="4c268ed005"><path d="M 128 137 L 146 137 L 146 148 L 128 148 Z M 128 137 " clip-rule="nonzero"/></clipPath><clipPath id="09b1cea763"><path d="M 114.105469 91.996094 L 187.304688 116.679688 L 139.378906 258.816406 L 66.179688 234.136719 Z M 114.105469 91.996094 " clip-rule="nonzero"/></clipPath><clipPath id="be75e64c69"><path d="M 114.105469 91.996094 L 187.304688 116.679688 L 139.378906 258.816406 L 66.179688 234.136719 Z M 114.105469 91.996094 " clip-rule="nonzero"/></clipPath><clipPath id="3497e5c582"><path d="M 102 101 L 177 101 L 177 178 L 102 178 Z M 102 101 " clip-rule="nonzero"/></clipPath><clipPath id="75bf07e6e4"><path d="M 114.105469 91.996094 L 187.304688 116.679688 L 139.378906 258.816406 L 66.179688 234.136719 Z M 114.105469 91.996094 " clip-rule="nonzero"/></clipPath><clipPath id="13e78e0503"><path d="M 114.105469 91.996094 L 187.304688 116.679688 L 139.378906 258.816406 L 66.179688 234.136719 Z M 114.105469 91.996094 " clip-rule="nonzero"/></clipPath><clipPath id="d017005798"><path d="M 114.515625 92.136719 L 188.234375 116.992188 L 164.933594 186.101562 L 91.214844 161.246094 Z M 114.515625 92.136719 " clip-rule="nonzero"/></clipPath><clipPath id="e2ba20a50f"><path d="M 114.515625 92.136719 L 187.171875 116.632812 L 163.871094 185.746094 L 91.214844 161.246094 Z M 114.515625 92.136719 " clip-rule="nonzero"/></clipPath><clipPath id="9511c5cffc"><path d="M 104 171 L 130 171 L 130 248 L 104 248 Z M 104 171 " clip-rule="nonzero"/></clipPath><clipPath id="392217852f"><path d="M 114.105469 91.996094 L 187.304688 116.679688 L 139.378906 258.816406 L 66.179688 234.136719 Z M 114.105469 91.996094 " clip-rule="nonzero"/></clipPath><clipPath id="3774e1d77b"><path d="M 114.105469 91.996094 L 187.304688 116.679688 L 139.378906 258.816406 L 66.179688 234.136719 Z M 114.105469 91.996094 " clip-rule="nonzero"/></clipPath><clipPath id="e7dfbe2640"><path d="M 125.019531 167.515625 L 134.234375 170.621094 L 107.824219 248.945312 L 98.609375 245.839844 Z M 125.019531 167.515625 " clip-rule="nonzero"/></clipPath><clipPath id="b31f09f435"><path d="M 125.019531 167.515625 L 134.234375 170.621094 L 108.035156 248.324219 L 98.820312 245.21875 Z M 125.019531 167.515625 " clip-rule="nonzero"/></clipPath><clipPath id="b8cbb60aad"><path d="M 94 174 L 114 174 L 114 218 L 94 218 Z M 94 174 " clip-rule="nonzero"/></clipPath><clipPath id="f5521ab92d"><path d="M 114.105469 91.996094 L 187.304688 116.679688 L 139.378906 258.816406 L 66.179688 234.136719 Z M 114.105469 91.996094 " clip-rule="nonzero"/></clipPath><clipPath id="3122a48f97"><path d="M 114.105469 91.996094 L 187.304688 116.679688 L 139.378906 258.816406 L 66.179688 234.136719 Z M 114.105469 91.996094 " clip-rule="nonzero"/></clipPath><clipPath id="9887332f7a"><path d="M 117 185 L 159 185 L 159 198 L 117 198 Z M 117 185 " clip-rule="nonzero"/></clipPath><clipPath id="ce11c2c6ac"><path d="M 114.105469 91.996094 L 187.304688 116.679688 L 139.378906 258.816406 L 66.179688 234.136719 Z M 114.105469 91.996094 " clip-rule="nonzero"/></clipPath><clipPath id="ea450361ef"><path d="M 114.105469 91.996094 L 187.304688 116.679688 L 139.378906 258.816406 L 66.179688 234.136719 Z M 114.105469 91.996094 " clip-rule="nonzero"/></clipPath><clipPath id="8eba9a0182"><path d="M 127 190 L 140 190 L 140 194 L 127 194 Z M 127 190 " clip-rule="nonzero"/></clipPath><clipPath id="170b0fa8dc"><path d="M 114.105469 91.996094 L 187.304688 116.679688 L 139.378906 258.816406 L 66.179688 234.136719 Z M 114.105469 91.996094 " clip-rule="nonzero"/></clipPath><clipPath id="b76f9e5621"><path d="M 114.105469 91.996094 L 187.304688 116.679688 L 139.378906 258.816406 L 66.179688 234.136719 Z M 114.105469 91.996094 " clip-rule="nonzero"/></clipPath></defs><path stroke-linecap="butt" transform="matrix(0.749989, 0.00411037, -0.00411037, 0.749989, 69.211003, 222.867612)" fill="none" stroke-linejoin="miter" d="M 0.000453851 1.999462 L 364.927841 1.999478 " stroke="#000000" stroke-width="4" stroke-opacity="1" stroke-miterlimit="4"/><g clip-path="url(#4c268ed005)"><g clip-path="url(#09b1cea763)"><g clip-path="url(#be75e64c69)"><path fill="#727272" d="M 137.519531 138.519531 C 139.902344 138.269531 142.394531 139.378906 144.0625 141.234375 C 144.933594 142.191406 145.632812 143.507812 145.371094 145.050781 C 145.246094 145.8125 144.800781 146.535156 144.199219 146.941406 C 143.59375 147.378906 142.894531 147.496094 142.28125 147.527344 C 141.054688 147.574219 139.914062 147.289062 138.792969 147.09375 C 137.667969 146.914062 136.527344 146.730469 135.371094 146.472656 C 133.128906 145.894531 130.75 144.722656 129.171875 142.566406 L 128.828125 142.101562 L 128.972656 141.519531 C 129.472656 139.441406 131.105469 137.816406 133.054688 137.261719 C 135.003906 136.71875 137.097656 137.3125 138.285156 138.632812 L 138.144531 138.839844 C 136.554688 138.292969 134.957031 138.464844 133.78125 139.128906 C 132.605469 139.777344 131.777344 140.941406 131.496094 142.128906 L 131.296875 141.078125 C 132.34375 142.644531 134.070312 143.785156 136.015625 144.765625 C 137.917969 145.726562 140.113281 147.007812 142.195312 146.6875 C 143.238281 146.507812 143.734375 145.625 143.589844 144.921875 C 143.4375 144.1875 143.003906 143.363281 142.441406 142.621094 C 141.1875 141.046875 139.539062 139.789062 137.484375 138.753906 L 137.519531 138.519531 " fill-opacity="1" fill-rule="nonzero"/></g></g></g><g clip-path="url(#3497e5c582)"><g clip-path="url(#75bf07e6e4)"><g clip-path="url(#13e78e0503)"><g clip-path="url(#d017005798)"><g clip-path="url(#e2ba20a50f)"><path fill="#727272" d="M 129.40625 172.75 C 127.914062 171.554688 127.03125 170.074219 126.523438 168.371094 C 126.027344 166.691406 125.988281 164.914062 126.1875 163.1875 C 126.628906 159.71875 127.882812 156.433594 129.5625 153.382812 L 130.144531 153.71875 L 128.941406 155.820312 C 128.515625 156.496094 128.03125 157.152344 127.574219 157.824219 C 126.566406 159.097656 125.484375 160.335938 124.148438 161.304688 C 121.585938 163.339844 117.933594 164.332031 114.636719 162.960938 L 114.128906 162.75 L 114.425781 162.226562 C 118.382812 155.246094 124.867188 149.746094 132.414062 146.925781 L 132.953125 148.148438 C 130.421875 149.464844 127.875 150.785156 125.167969 151.828125 C 122.46875 152.875 119.597656 153.628906 116.632812 153.714844 C 113.644531 153.789062 110.640625 153.035156 108.046875 151.507812 C 105.46875 150 103.25 147.515625 102.542969 144.441406 L 102.453125 144.058594 L 102.691406 143.738281 C 103.410156 142.757812 104.527344 142.125 105.609375 141.859375 C 106.707031 141.578125 107.785156 141.558594 108.820312 141.605469 C 110.914062 141.761719 112.789062 142.113281 114.761719 142.359375 L 126.476562 143.992188 L 126.335938 145.960938 C 120.5 145.90625 114.746094 143.855469 110.171875 140.238281 C 107.863281 138.46875 105.890625 136.269531 104.292969 133.816406 C 103.46875 132.515625 102.851562 131.078125 102.632812 129.457031 C 102.53125 128.664062 102.535156 127.792969 102.800781 126.910156 C 103.046875 126.03125 103.617188 125.171875 104.378906 124.617188 L 104.828125 124.289062 L 105.363281 124.425781 C 110.203125 125.617188 114.515625 128.253906 118.203125 131.375 C 121.914062 134.488281 125.132812 138.046875 128.28125 141.585938 L 126.464844 143.257812 C 122.492188 139.101562 118.914062 134.558594 115.820312 129.707031 C 114.269531 127.289062 112.851562 124.777344 111.539062 122.21875 C 110.878906 120.914062 110.25 119.507812 109.929688 117.929688 C 109.597656 116.386719 109.667969 114.421875 110.75 112.875 L 111.226562 112.210938 L 112.011719 112.347656 C 114.320312 112.753906 116.414062 113.882812 118.125 115.320312 C 119.832031 116.769531 121.226562 118.492188 122.386719 120.304688 C 123.550781 122.089844 124.574219 124.128906 125.191406 126.191406 C 125.761719 128.21875 126.511719 129.675781 127.828125 131.179688 L 125.652344 132.5 C 124.011719 128.621094 123.382812 124.308594 122.863281 120.375 C 122.578125 118.34375 122.175781 116.535156 121.746094 114.417969 C 121.382812 112.371094 121.175781 109.804688 122.667969 107.613281 C 123.007812 106.996094 124.003906 106.289062 124.960938 106.371094 C 125.882812 106.402344 126.488281 106.777344 127.007812 107.101562 C 128.027344 107.796875 128.773438 108.589844 129.480469 109.40625 C 130.859375 111.046875 132.011719 112.769531 133.066406 114.617188 C 135.027344 118.777344 135.085938 122.894531 136.058594 126.710938 L 133.78125 127.113281 C 133.359375 123.011719 133.082031 118.839844 133.300781 114.65625 C 133.515625 110.480469 134.265625 106.261719 135.800781 102.308594 L 135.996094 101.824219 L 136.515625 101.648438 C 137.433594 101.335938 138.625 101.546875 139.386719 102.105469 C 140.167969 102.648438 140.632812 103.347656 141.015625 104.027344 C 141.742188 105.375 142.070312 106.957031 142.160156 108.320312 C 142.425781 111.046875 142.542969 113.792969 142.5 116.523438 C 142.441406 121.996094 141.785156 127.457031 140.558594 132.785156 L 138.714844 132.394531 L 141.917969 117.398438 C 142.527344 114.929688 142.730469 112.34375 144.074219 109.808594 C 144.730469 108.578125 145.875 107.441406 147.273438 106.929688 C 148.613281 106.398438 150.390625 106.378906 151.695312 107.449219 L 152.015625 107.714844 L 151.980469 108.125 C 151.003906 118.390625 147.957031 128.4375 143.148438 137.527344 L 141.988281 137.007812 C 144.179688 131.25 147.039062 125.691406 150.902344 120.828125 C 154.738281 115.988281 159.746094 111.875 165.671875 109.8125 L 166.316406 109.589844 L 166.335938 110.277344 C 166.449219 116.242188 164.101562 121.960938 160.738281 126.703125 C 157.359375 131.484375 153.050781 135.503906 148.441406 139.007812 L 147.929688 138.46875 C 151.128906 134.90625 154.914062 131.875 159.117188 129.582031 C 161.238281 128.484375 163.363281 127.386719 165.753906 126.800781 C 166.941406 126.527344 168.183594 126.375 169.4375 126.558594 C 170.691406 126.71875 171.953125 127.355469 172.75 128.40625 L 173.070312 128.824219 L 172.589844 129.0625 C 165.347656 132.683594 158.359375 136.875 151.820312 141.671875 L 151.238281 140.785156 C 154.867188 138.492188 158.628906 136.113281 162.960938 135 C 165.121094 134.445312 167.394531 134.269531 169.636719 134.582031 C 171.859375 134.890625 174.089844 135.734375 175.878906 137.207031 L 176.589844 137.796875 L 175.824219 138.34375 C 172.046875 140.988281 167.527344 141.96875 163.265625 142.835938 C 158.980469 143.707031 154.671875 144.511719 151.035156 146.601562 L 150.4375 144.945312 C 158.808594 143.417969 167.625 144.265625 175.550781 147.449219 L 176.636719 147.886719 L 176.101562 148.816406 C 175.488281 149.863281 174.839844 149.996094 174.273438 150.316406 C 173.6875 150.570312 173.113281 150.75 172.550781 150.90625 C 171.410156 151.207031 170.277344 151.402344 169.136719 151.550781 C 166.875 151.839844 164.617188 151.941406 162.359375 151.949219 C 157.835938 151.949219 153.355469 151.542969 148.910156 150.84375 L 149.421875 148.761719 L 170.152344 155.761719 L 171.355469 156.167969 L 170.726562 157.300781 C 170.238281 158.207031 169.730469 159.507812 168.835938 160.589844 C 167.984375 161.707031 166.511719 162.570312 165.039062 162.695312 C 163.566406 162.8125 162.214844 162.445312 161.011719 161.949219 C 159.820312 161.46875 158.757812 160.960938 157.632812 160.429688 C 153.21875 158.308594 148.914062 155.765625 145.167969 152.488281 L 146.464844 151.011719 C 149.386719 153.621094 151.980469 156.597656 154.160156 159.851562 C 155.21875 161.492188 156.3125 163.132812 157.042969 165.09375 C 157.390625 166.0625 157.644531 167.109375 157.640625 168.230469 C 157.65625 169.339844 157.296875 170.546875 156.566406 171.472656 L 156.128906 172.03125 L 155.488281 171.761719 C 151.296875 170.039062 148.050781 166.710938 145.667969 163.109375 C 143.238281 159.488281 141.484375 155.535156 139.8125 151.613281 L 141.246094 151.015625 C 142.800781 154.988281 144.339844 159.023438 145.265625 163.257812 C 146.191406 167.464844 146.464844 171.976562 145.273438 176.226562 L 144.933594 177.402344 L 144.195312 176.445312 C 138.976562 169.664062 136.003906 161.242188 135.675781 152.757812 L 136.390625 152.6875 C 136.972656 156.339844 136.585938 160.109375 135.386719 163.574219 C 134.792969 165.316406 133.984375 166.96875 132.988281 168.515625 C 131.964844 170.066406 130.902344 171.441406 129.40625 172.75 Z M 129.398438 172.507812 C 130.53125 171.316406 131.777344 169.84375 132.683594 168.324219 C 133.632812 166.789062 134.378906 165.136719 134.9375 163.421875 C 136.03125 160.003906 136.320312 156.320312 135.683594 152.800781 L 136.398438 152.730469 C 136.882812 161.070312 140.03125 169.179688 145.164062 175.6875 L 144.085938 175.910156 C 145.160156 171.890625 144.855469 167.628906 143.910156 163.5625 C 142.964844 159.472656 141.40625 155.53125 139.808594 151.597656 L 141.242188 150.996094 C 142.949219 154.878906 144.730469 158.714844 147.085938 162.148438 C 149.421875 165.558594 152.4375 168.53125 156.191406 170.058594 L 155.113281 170.34375 C 156.054688 169.179688 155.902344 167.386719 155.277344 165.730469 C 154.667969 164.082031 153.621094 162.496094 152.585938 160.925781 C 150.480469 157.808594 147.96875 154.96875 145.160156 152.488281 L 146.460938 151.011719 C 150.03125 154.109375 154.1875 156.535156 158.515625 158.585938 C 160.695312 159.550781 162.898438 160.8125 164.832031 160.625 C 165.785156 160.515625 166.574219 160.070312 167.203125 159.269531 C 167.871094 158.460938 168.253906 157.46875 168.898438 156.242188 L 169.476562 157.769531 L 148.734375 150.796875 L 149.257812 148.71875 C 153.589844 149.417969 157.976562 149.84375 162.359375 149.859375 C 164.542969 149.863281 166.730469 149.769531 168.875 149.5 C 169.945312 149.359375 171.007812 149.183594 172.023438 148.929688 C 172.523438 148.785156 173.019531 148.632812 173.449219 148.445312 C 173.871094 148.296875 174.304688 147.933594 174.238281 147.980469 L 174.792969 149.339844 C 167.230469 146.300781 158.816406 145.335938 150.738281 146.703125 L 145.582031 147.578125 L 150.152344 145.050781 C 154.203125 142.816406 158.6875 142.085938 162.953125 141.269531 C 167.214844 140.460938 171.507812 139.554688 175.007812 137.167969 L 174.957031 138.300781 C 171.84375 135.667969 167.269531 135.238281 163.265625 136.210938 C 159.164062 137.195312 155.460938 139.445312 151.792969 141.695312 L 151.203125 140.804688 C 157.871094 136.097656 164.878906 131.875 172.199219 128.28125 L 172.054688 128.933594 C 170.742188 127.148438 168.113281 127.09375 165.941406 127.617188 C 163.707031 128.144531 161.574219 129.21875 159.492188 130.28125 C 155.367188 132.519531 151.605469 135.449219 148.492188 138.96875 L 147.988281 138.417969 C 152.539062 134.910156 156.753906 130.910156 160.027344 126.203125 C 163.28125 121.535156 165.488281 115.996094 165.335938 110.304688 L 166.003906 110.757812 C 160.3125 112.777344 155.503906 116.789062 151.800781 121.535156 C 148.066406 126.296875 145.296875 131.777344 143.179688 137.457031 L 142.023438 136.9375 C 146.710938 127.964844 149.554688 118.050781 150.421875 107.992188 L 150.707031 108.65625 C 149.976562 108.0625 148.84375 108.03125 147.847656 108.425781 C 146.828125 108.832031 146.054688 109.585938 145.507812 110.613281 C 144.425781 112.632812 144.171875 115.265625 143.601562 117.746094 L 140.558594 132.777344 L 138.722656 132.378906 C 139.855469 127.167969 140.4375 121.84375 140.441406 116.511719 C 140.449219 113.847656 140.316406 111.1875 140.035156 108.539062 C 139.929688 107.21875 139.652344 106.101562 139.097656 105.074219 C 138.820312 104.582031 138.488281 104.148438 138.144531 103.921875 C 137.796875 103.703125 137.53125 103.652344 137.15625 103.757812 L 137.859375 103.09375 C 134.992188 110.554688 135.207031 118.835938 136.089844 126.871094 L 133.808594 127.273438 C 133.304688 125.230469 132.996094 123.199219 132.617188 121.238281 C 132.226562 119.332031 131.773438 117.257812 130.980469 115.777344 C 130.019531 114.101562 128.886719 112.4375 127.648438 110.976562 C 127.027344 110.253906 126.347656 109.574219 125.675781 109.128906 C 125.355469 108.910156 125.019531 108.785156 124.914062 108.800781 C 124.824219 108.820312 124.871094 108.746094 124.675781 109 C 122.886719 111.625 124.902344 115.960938 125.339844 119.988281 C 125.910156 124.089844 126.492188 127.894531 128.046875 131.542969 L 131.363281 139.339844 L 125.863281 132.851562 C 125.160156 132.023438 124.476562 131.113281 123.945312 130.070312 C 123.390625 129.042969 123.050781 127.933594 122.753906 126.972656 C 122.171875 125.074219 121.320312 123.382812 120.238281 121.6875 C 118.152344 118.386719 115.195312 115.476562 111.574219 114.835938 L 112.832031 114.316406 C 111.65625 115.957031 112.554688 118.734375 113.785156 121.082031 C 115.050781 123.574219 116.425781 126.011719 117.933594 128.367188 C 120.925781 133.082031 124.394531 137.5 128.25 141.554688 L 126.4375 143.21875 C 123.308594 139.6875 120.167969 136.214844 116.632812 133.238281 C 113.113281 130.277344 109.160156 127.820312 104.789062 126.6875 L 105.765625 126.496094 C 104.242188 127.507812 104.859375 130.582031 106.191406 132.613281 C 107.617188 134.859375 109.394531 136.898438 111.503906 138.554688 C 115.679688 141.925781 120.988281 143.886719 126.347656 143.988281 L 126.199219 145.945312 L 114.496094 144.183594 C 112.558594 143.917969 110.558594 143.527344 108.710938 143.382812 C 106.875 143.246094 104.980469 143.507812 104.058594 144.761719 L 104.203125 144.0625 C 104.761719 146.601562 106.59375 148.742188 108.875 150.125 C 111.171875 151.511719 113.898438 152.230469 116.59375 152.195312 C 122.121094 152.09375 127.308594 149.515625 132.339844 146.960938 L 132.878906 148.1875 C 125.59375 150.800781 119.273438 156.054688 115.339844 162.757812 L 115.125 162.023438 C 116.402344 162.605469 118.023438 162.730469 119.492188 162.476562 C 120.980469 162.214844 122.394531 161.527344 123.640625 160.613281 C 124.917969 159.730469 125.972656 158.566406 126.972656 157.359375 C 127.425781 156.722656 127.910156 156.089844 128.339844 155.433594 L 129.558594 153.398438 L 130.132812 153.722656 C 128.441406 156.652344 127.121094 159.882812 126.640625 163.238281 C 126.40625 164.914062 126.414062 166.648438 126.851562 168.285156 C 127.082031 169.09375 127.410156 169.871094 127.847656 170.601562 C 128.285156 171.320312 128.894531 171.957031 129.398438 172.507812 " fill-opacity="1" fill-rule="nonzero"/></g></g></g></g></g><g clip-path="url(#9511c5cffc)"><g clip-path="url(#392217852f)"><g clip-path="url(#3774e1d77b)"><g clip-path="url(#e7dfbe2640)"><g clip-path="url(#b31f09f435)"><path fill="#727272" d="M 129.132812 171.277344 C 127.527344 177.910156 124.617188 184.105469 121.613281 190.097656 C 120.019531 193.066406 118.339844 195.980469 116.917969 199.027344 C 115.507812 202.082031 114.457031 205.292969 113.832031 208.570312 C 113.179688 211.847656 112.851562 215.164062 112.921875 218.4375 C 112.828125 221.679688 113.59375 225.003906 113.386719 228.582031 C 113.214844 232.164062 112.0625 235.582031 110.539062 238.667969 C 109.039062 241.78125 107.121094 244.609375 105.144531 247.351562 L 104.511719 247.058594 C 104.816406 246.417969 105.121094 245.789062 105.453125 245.160156 L 105.675781 245.246094 C 105.523438 245.9375 105.351562 246.621094 105.175781 247.292969 L 104.542969 247 C 107.402344 240.898438 110.472656 234.824219 110.800781 228.441406 C 110.988281 225.269531 110.523438 221.886719 110.730469 218.386719 C 110.796875 216.648438 111.070312 214.945312 111.355469 213.246094 C 111.769531 211.570312 112.160156 209.902344 112.707031 208.28125 C 113.769531 205.039062 114.917969 201.871094 116.117188 198.695312 C 117.261719 195.515625 118.386719 192.296875 119.734375 189.195312 C 122.558594 183.039062 125.78125 177.203125 128.902344 171.1875 L 129.132812 171.277344 " fill-opacity="1" fill-rule="nonzero"/></g></g></g></g></g><g clip-path="url(#b8cbb60aad)"><g clip-path="url(#f5521ab92d)"><g clip-path="url(#3122a48f97)"><path fill="#727272" d="M 103.652344 201.488281 C 105.675781 202.152344 107.460938 203.65625 108.75 205.332031 C 110.066406 207.019531 111.316406 208.601562 112.796875 209.882812 L 112.976562 210.042969 L 113.0625 210.316406 L 113.414062 211.324219 L 111.492188 211.820312 C 110.757812 208.734375 110.042969 205.660156 109.46875 202.546875 C 108.90625 199.433594 108.582031 196.316406 107.171875 193.609375 C 106.488281 192.242188 105.410156 191.160156 104.238281 190.0625 C 103.078125 188.980469 102 187.632812 101.371094 186.136719 C 100.042969 183.246094 99.253906 179.941406 96.96875 178.238281 L 98.285156 177.28125 C 99.210938 179.234375 99.082031 181.457031 98.726562 183.375 C 98.359375 185.324219 97.726562 187.113281 97.34375 188.871094 C 96.507812 192.304688 97.097656 195.78125 98.558594 199.03125 C 100.035156 202.253906 102.160156 205.289062 104.664062 208.003906 C 105.878906 209.394531 107.21875 210.769531 108.378906 212.3125 C 109.523438 213.863281 110.488281 215.660156 110.714844 217.582031 L 110.476562 217.628906 C 109.230469 214.042969 106.128906 211.855469 103.347656 209.292969 C 100.59375 206.640625 97.976562 203.695312 96.253906 200.097656 C 95.382812 198.308594 94.769531 196.359375 94.515625 194.339844 C 94.265625 192.320312 94.5 190.195312 95.023438 188.296875 C 96.019531 184.566406 97.800781 181.125 96.730469 177.910156 L 95.636719 174.613281 L 98.054688 176.953125 C 100.722656 179.535156 100.894531 183.011719 102.136719 185.796875 C 102.730469 187.226562 103.566406 188.492188 104.765625 189.507812 C 105.917969 190.546875 107.1875 191.65625 108.089844 193.054688 C 109.941406 195.824219 110.75 199.074219 111.515625 202.117188 C 112.257812 205.191406 112.851562 208.296875 113.433594 211.414062 L 111.523438 211.910156 L 111.242188 210.875 L 111.496094 211.300781 C 109.871094 209.761719 108.804688 207.816406 107.699219 206.101562 C 106.613281 204.359375 105.34375 202.800781 103.546875 201.714844 L 103.652344 201.488281 " fill-opacity="1" fill-rule="nonzero"/></g></g></g><g clip-path="url(#9887332f7a)"><g clip-path="url(#ce11c2c6ac)"><g clip-path="url(#ea450361ef)"><path fill="#727272" d="M 126.753906 193.492188 C 126.734375 193.667969 126.992188 193.253906 127.363281 193.058594 C 127.527344 192.921875 127.949219 192.976562 128.054688 193.019531 L 128.550781 193.121094 C 129.226562 193.253906 129.898438 193.375 130.566406 193.535156 C 131.902344 193.828125 133.210938 194.167969 134.527344 194.511719 C 135.832031 194.871094 137.082031 195.171875 138.265625 195.222656 C 139.4375 195.253906 140.605469 194.976562 141.78125 194.542969 C 144.140625 193.703125 146.59375 192.285156 149.203125 191.351562 C 151.769531 190.363281 154.375 189.507812 157.039062 188.824219 L 156.894531 189.726562 C 153.707031 188.269531 150.257812 187.628906 146.863281 187.527344 C 143.441406 187.394531 140.046875 188.007812 136.839844 189.050781 C 135.226562 189.554688 133.679688 190.277344 132.171875 191.0625 C 130.609375 191.867188 129.449219 192.898438 127.730469 193.953125 C 126.832031 194.480469 125.726562 194.632812 124.824219 194.597656 C 123.902344 194.578125 123.046875 194.441406 122.21875 194.671875 C 120.546875 195.046875 118.988281 196.015625 117.921875 197.421875 L 117.71875 197.273438 C 118.722656 195.765625 120.28125 194.609375 122.070312 194.097656 C 123.863281 193.5625 125.800781 193.675781 126.910156 192.695312 C 128.050781 191.65625 129.5 190.210938 131.035156 189.226562 C 132.574219 188.179688 134.230469 187.253906 135.996094 186.648438 C 139.492188 185.3125 143.3125 184.949219 147.007812 185.289062 C 150.71875 185.609375 154.269531 186.964844 157.363281 188.871094 L 158.546875 189.589844 L 157.226562 189.777344 C 154.570312 190.144531 151.976562 190.976562 149.613281 192.242188 C 147.234375 193.496094 145.253906 195.332031 142.574219 196.535156 C 141.234375 197.09375 139.695312 197.464844 138.144531 197.332031 C 136.605469 197.234375 135.238281 196.707031 133.964844 196.246094 C 132.695312 195.75 131.433594 195.253906 130.179688 194.710938 C 129.550781 194.445312 128.9375 194.140625 128.3125 193.859375 C 127.992188 193.742188 127.671875 193.503906 127.558594 193.566406 C 127.441406 193.585938 127.296875 193.660156 127.136719 193.742188 C 127.046875 193.785156 126.976562 193.839844 126.8125 193.84375 C 126.59375 193.84375 126.523438 193.636719 126.523438 193.554688 L 126.753906 193.492188 " fill-opacity="1" fill-rule="nonzero"/></g></g></g><g clip-path="url(#8eba9a0182)"><g clip-path="url(#170b0fa8dc)"><g clip-path="url(#b76f9e5621)"><path fill="#727272" d="M 127.929688 192.527344 C 128.996094 191.777344 129.957031 191.570312 130.941406 191.738281 C 131.425781 191.882812 131.941406 192.253906 132.441406 192.308594 C 132.941406 192.371094 133.4375 192.179688 133.910156 191.917969 C 134.847656 191.332031 135.769531 191.0625 136.730469 190.863281 C 137.714844 190.796875 138.710938 190.839844 139.894531 191.308594 L 139.957031 191.542969 C 139.207031 192.582031 138.230469 193.105469 137.222656 193.414062 C 136.195312 193.601562 135.117188 193.621094 134.039062 193.246094 C 133.503906 193.085938 132.992188 192.972656 132.488281 193.09375 C 131.984375 193.195312 131.484375 193.605469 130.960938 193.769531 C 129.921875 193.960938 128.851562 193.691406 127.90625 192.769531 L 127.929688 192.527344 " fill-opacity="1" fill-rule="nonzero"/></g></g></g><g fill="#000000" fill-opacity="1"><g transform="translate(66.653313, 213.479108)"><g><path d="M 12.734375 -14.5625 C 11.066406 -15.476562 9.613281 -15.9375 8.375 -15.9375 C 7.539062 -15.9375 6.890625 -15.769531 6.421875 -15.4375 C 5.960938 -15.113281 5.734375 -14.617188 5.734375 -13.953125 C 5.734375 -13.347656 6.066406 -12.8125 6.734375 -12.34375 C 7.410156 -11.882812 8.304688 -11.445312 9.421875 -11.03125 C 10.328125 -10.707031 11.097656 -10.332031 11.734375 -9.90625 C 12.378906 -9.476562 12.914062 -8.890625 13.34375 -8.140625 C 13.769531 -7.390625 13.984375 -6.441406 13.984375 -5.296875 C 13.984375 -4.304688 13.726562 -3.390625 13.21875 -2.546875 C 12.707031 -1.703125 11.953125 -1.03125 10.953125 -0.53125 C 9.960938 -0.0390625 8.78125 0.203125 7.40625 0.203125 C 6.257812 0.203125 5.117188 0.0351562 3.984375 -0.296875 C 2.859375 -0.640625 1.804688 -1.160156 0.828125 -1.859375 L 2.5 -4.796875 C 3.164062 -4.316406 3.921875 -3.914062 4.765625 -3.59375 C 5.617188 -3.28125 6.390625 -3.125 7.078125 -3.125 C 7.867188 -3.125 8.5625 -3.296875 9.15625 -3.640625 C 9.75 -3.984375 10.046875 -4.535156 10.046875 -5.296875 C 10.046875 -6.285156 9.113281 -7.144531 7.25 -7.875 C 6.15625 -8.3125 5.242188 -8.726562 4.515625 -9.125 C 3.785156 -9.53125 3.15625 -10.109375 2.625 -10.859375 C 2.09375 -11.609375 1.828125 -12.546875 1.828125 -13.671875 C 1.828125 -15.328125 2.367188 -16.65625 3.453125 -17.65625 C 4.546875 -18.664062 5.992188 -19.21875 7.796875 -19.3125 C 9.222656 -19.3125 10.414062 -19.148438 11.375 -18.828125 C 12.332031 -18.503906 13.265625 -18.046875 14.171875 -17.453125 Z M 12.734375 -14.5625 "/></g></g></g><g fill="#000000" fill-opacity="1"><g transform="translate(84.157658, 213.479108)"><g><path d="M 5.875 -7.09375 C 5.875 -6.488281 6.054688 -5.90625 6.421875 -5.34375 C 6.785156 -4.789062 7.269531 -4.335938 7.875 -3.984375 C 8.488281 -3.640625 9.144531 -3.46875 9.84375 -3.46875 C 10.582031 -3.46875 11.265625 -3.640625 11.890625 -3.984375 C 12.523438 -4.335938 13.019531 -4.789062 13.375 -5.34375 C 13.726562 -5.90625 13.90625 -6.488281 13.90625 -7.09375 L 13.90625 -19.203125 L 17.640625 -19.203125 L 17.640625 -7.015625 C 17.640625 -5.640625 17.289062 -4.398438 16.59375 -3.296875 C 15.894531 -2.191406 14.953125 -1.332031 13.765625 -0.71875 C 12.578125 -0.101562 11.269531 0.203125 9.84375 0.203125 C 8.414062 0.203125 7.109375 -0.101562 5.921875 -0.71875 C 4.742188 -1.332031 3.8125 -2.191406 3.125 -3.296875 C 2.4375 -4.398438 2.09375 -5.640625 2.09375 -7.015625 L 2.09375 -19.203125 L 5.875 -19.203125 Z M 5.875 -7.09375 "/></g></g></g><g fill="#000000" fill-opacity="1"><g transform="translate(106.174866, 213.479108)"><g><path d="M 22.265625 -19.984375 L 22.265625 0 L 18.46875 0 L 18.46875 -9.15625 L 12.21875 -0.265625 L 12.15625 -0.265625 L 6.125 -8.578125 L 6.125 0 L 2.484375 0 L 2.484375 -19.984375 L 2.5 -19.984375 L 12.234375 -6.1875 L 22.203125 -19.984375 Z M 22.265625 -19.984375 "/></g></g></g><g fill="#000000" fill-opacity="1"><g transform="translate(133.20057, 213.479108)"><g><path d="M 22.265625 -19.984375 L 22.265625 0 L 18.46875 0 L 18.46875 -9.15625 L 12.21875 -0.265625 L 12.15625 -0.265625 L 6.125 -8.578125 L 6.125 0 L 2.484375 0 L 2.484375 -19.984375 L 2.5 -19.984375 L 12.234375 -6.1875 L 22.203125 -19.984375 Z M 22.265625 -19.984375 "/></g></g></g><g fill="#000000" fill-opacity="1"><g transform="translate(160.226278, 213.479108)"><g><path d="M 15.578125 -19.203125 L 15.578125 -15.546875 L 6.265625 -15.546875 L 6.265625 -11.453125 L 14.515625 -11.453125 L 14.515625 -7.796875 L 6.265625 -7.796875 L 6.265625 -3.65625 L 15.9375 -3.65625 L 15.9375 0 L 2.484375 0 L 2.484375 -19.203125 Z M 15.578125 -19.203125 "/></g></g></g><g fill="#000000" fill-opacity="1"><g transform="translate(179.895752, 213.479108)"><g><path d="M 12.84375 0 L 8.796875 -6.109375 L 6.265625 -6.109375 L 6.265625 0 L 2.484375 0 L 2.484375 -19.203125 L 8.296875 -19.203125 C 10.679688 -19.203125 12.53125 -18.625 13.84375 -17.46875 C 15.15625 -16.3125 15.8125 -14.734375 15.8125 -12.734375 C 15.8125 -11.546875 15.5625 -10.4375 15.0625 -9.40625 C 14.570312 -8.375 13.8125 -7.5625 12.78125 -6.96875 L 17.25 0 Z M 6.265625 -9.765625 L 8.953125 -9.765625 C 9.972656 -9.765625 10.71875 -10.0625 11.1875 -10.65625 C 11.664062 -11.257812 11.90625 -11.910156 11.90625 -12.609375 C 11.90625 -13.296875 11.703125 -13.957031 11.296875 -14.59375 C 10.898438 -15.226562 10.125 -15.546875 8.96875 -15.546875 L 6.265625 -15.546875 Z M 6.265625 -9.765625 "/></g></g></g><g fill="#000000" fill-opacity="1"><g transform="translate(200.09471, 213.479108)"><g><path d="M 18.375 -19.203125 L 9.609375 0.890625 L 0.828125 -19.203125 L 5.375 -19.203125 L 9.765625 -8.375 L 13.875 -19.203125 Z M 18.375 -19.203125 "/></g></g></g><g fill="#000000" fill-opacity="1"><g transform="translate(221.590206, 213.479108)"><g><path d="M 11.984375 -3.75 L 5.609375 -3.75 L 4.046875 0 L 0.3125 0 L 8.96875 -19.96875 L 9.1875 -19.96875 L 17.84375 0 L 13.46875 0 Z M 10.71875 -6.9375 L 8.875 -11.609375 L 6.9375 -6.9375 Z M 10.71875 -6.9375 "/></g></g></g><g fill="#000000" fill-opacity="1"><g transform="translate(242.042262, 213.479108)"><g><path d="M 19.78125 -19.203125 L 19.78125 0.78125 L 19.671875 0.78125 L 6.234375 -11.34375 L 6.3125 0 L 2.484375 0 L 2.484375 -19.96875 L 2.640625 -19.96875 L 16.046875 -7.640625 L 15.96875 -19.203125 Z M 19.78125 -19.203125 "/></g></g></g><g fill="#000000" fill-opacity="1"><g transform="translate(266.589807, 213.479108)"><g><path d="M 6.265625 -19.203125 L 6.265625 0 L 2.484375 0 L 2.484375 -19.203125 Z M 6.265625 -19.203125 "/></g></g></g><g fill="#000000" fill-opacity="1"><g transform="translate(277.62484, 213.479108)"><g><path d="M 6.265625 -19.203125 L 6.265625 -3.65625 L 15.296875 -3.65625 L 15.296875 0 L 2.484375 0 L 2.484375 -19.203125 Z M 6.265625 -19.203125 "/></g></g></g><g fill="#000000" fill-opacity="1"><g transform="translate(296.642167, 213.479108)"><g><path d="M 6.265625 -19.203125 L 6.265625 -3.65625 L 15.296875 -3.65625 L 15.296875 0 L 2.484375 0 L 2.484375 -19.203125 Z M 6.265625 -19.203125 "/></g></g></g><g fill="#000000" fill-opacity="1"><g transform="translate(315.659489, 213.479108)"><g><path d="M 15.578125 -19.203125 L 15.578125 -15.546875 L 6.265625 -15.546875 L 6.265625 -11.453125 L 14.515625 -11.453125 L 14.515625 -7.796875 L 6.265625 -7.796875 L 6.265625 -3.65625 L 15.9375 -3.65625 L 15.9375 0 L 2.484375 0 L 2.484375 -19.203125 Z M 15.578125 -19.203125 "/></g></g></g><g fill="#000000" fill-opacity="1"><g transform="translate(112.718134, 244.840926)"><g><path d="M 7.0625 -0.625 C 6.820312 -0.457031 6.492188 -0.296875 6.078125 -0.140625 C 5.660156 0.015625 5.207031 0.09375 4.71875 0.09375 C 3.882812 0.09375 3.15625 -0.0859375 2.53125 -0.453125 C 1.914062 -0.816406 1.441406 -1.304688 1.109375 -1.921875 C 0.773438 -2.535156 0.609375 -3.210938 0.609375 -3.953125 C 0.609375 -4.753906 0.773438 -5.46875 1.109375 -6.09375 C 1.441406 -6.726562 1.90625 -7.222656 2.5 -7.578125 C 3.101562 -7.941406 3.789062 -8.125 4.5625 -8.125 C 5.03125 -8.125 5.460938 -8.0625 5.859375 -7.9375 C 6.265625 -7.8125 6.617188 -7.648438 6.921875 -7.453125 L 6.421875 -6.25 C 5.828125 -6.675781 5.21875 -6.890625 4.59375 -6.890625 C 4.125 -6.890625 3.6875 -6.757812 3.28125 -6.5 C 2.875 -6.25 2.546875 -5.90625 2.296875 -5.46875 C 2.054688 -5.03125 1.9375 -4.550781 1.9375 -4.03125 C 1.9375 -3.476562 2.046875 -2.984375 2.265625 -2.546875 C 2.492188 -2.109375 2.816406 -1.765625 3.234375 -1.515625 C 3.648438 -1.265625 4.128906 -1.140625 4.671875 -1.140625 C 5.066406 -1.140625 5.421875 -1.195312 5.734375 -1.3125 C 6.046875 -1.4375 6.304688 -1.59375 6.515625 -1.78125 Z M 7.0625 -0.625 "/></g></g></g><g fill="#000000" fill-opacity="1"><g transform="translate(122.503039, 244.840926)"><g><path d="M 5.5 0 L 3.6875 -2.796875 L 2.390625 -2.796875 L 2.390625 0 L 1.109375 0 L 1.109375 -8.03125 L 3.359375 -8.03125 C 4.253906 -8.03125 4.972656 -7.800781 5.515625 -7.34375 C 6.054688 -6.882812 6.328125 -6.253906 6.328125 -5.453125 C 6.328125 -4.953125 6.222656 -4.488281 6.015625 -4.0625 C 5.804688 -3.644531 5.476562 -3.320312 5.03125 -3.09375 L 6.984375 0 Z M 2.390625 -4.03125 L 3.546875 -4.03125 C 4.054688 -4.03125 4.425781 -4.171875 4.65625 -4.453125 C 4.894531 -4.734375 5.015625 -5.050781 5.015625 -5.40625 C 5.015625 -5.613281 4.96875 -5.820312 4.875 -6.03125 C 4.789062 -6.238281 4.640625 -6.414062 4.421875 -6.5625 C 4.210938 -6.71875 3.929688 -6.796875 3.578125 -6.796875 L 2.390625 -6.796875 Z M 2.390625 -4.03125 "/></g></g></g><g fill="#000000" fill-opacity="1"><g transform="translate(132.012554, 244.840926)"><g><path d="M 5.234375 -1.890625 L 2.3125 -1.890625 L 1.53125 0 L 0.265625 0 L 3.8125 -8.359375 L 3.890625 -8.359375 L 7.453125 0 L 5.96875 0 Z M 4.796875 -2.984375 L 3.796875 -5.53125 L 2.75 -2.984375 Z M 4.796875 -2.984375 "/></g></g></g><g fill="#000000" fill-opacity="1"><g transform="translate(141.84152, 244.840926)"><g><path d="M 5.984375 -8.03125 L 5.984375 -6.796875 L 2.390625 -6.796875 L 2.390625 -4.53125 L 5.515625 -4.53125 L 5.515625 -3.3125 L 2.390625 -3.3125 L 2.390625 0 L 1.109375 0 L 1.109375 -8.03125 Z M 5.984375 -8.03125 "/></g></g></g><g fill="#000000" fill-opacity="1"><g transform="translate(150.502832, 244.840926)"><g><path d="M 5.90625 -8.03125 L 5.90625 -6.796875 L 3.828125 -6.796875 L 3.828125 0 L 2.546875 0 L 2.546875 -6.796875 L 0.53125 -6.796875 L 0.53125 -8.03125 Z M 5.90625 -8.03125 "/></g></g></g><g fill="#000000" fill-opacity="1"><g transform="translate(159.053982, 244.840926)"><g/></g></g><g fill="#000000" fill-opacity="1"><g transform="translate(164.708016, 244.840926)"><g><path d="M 7.515625 -8.03125 L 4.5 -2.609375 L 4.5 0 L 3.21875 0 L 3.21875 -2.609375 L 0.25 -8.03125 L 1.828125 -8.03125 L 3.90625 -4.078125 L 5.9375 -8.03125 Z M 7.515625 -8.03125 "/></g></g></g><g fill="#000000" fill-opacity="1"><g transform="translate(174.59206, 244.840926)"><g><path d="M 0.609375 -4 C 0.609375 -4.738281 0.789062 -5.421875 1.15625 -6.046875 C 1.519531 -6.679688 2.015625 -7.1875 2.640625 -7.5625 C 3.273438 -7.9375 3.960938 -8.125 4.703125 -8.125 C 5.441406 -8.125 6.125 -7.9375 6.75 -7.5625 C 7.382812 -7.1875 7.890625 -6.679688 8.265625 -6.046875 C 8.640625 -5.410156 8.828125 -4.726562 8.828125 -4 C 8.828125 -3.257812 8.640625 -2.578125 8.265625 -1.953125 C 7.890625 -1.328125 7.382812 -0.828125 6.75 -0.453125 C 6.125 -0.0859375 5.441406 0.09375 4.703125 0.09375 C 3.960938 0.09375 3.273438 -0.0859375 2.640625 -0.453125 C 2.015625 -0.816406 1.519531 -1.3125 1.15625 -1.9375 C 0.789062 -2.5625 0.609375 -3.25 0.609375 -4 Z M 1.9375 -4 C 1.9375 -3.476562 2.0625 -3 2.3125 -2.5625 C 2.5625 -2.132812 2.898438 -1.789062 3.328125 -1.53125 C 3.753906 -1.269531 4.226562 -1.140625 4.75 -1.140625 C 5.25 -1.140625 5.707031 -1.265625 6.125 -1.515625 C 6.550781 -1.773438 6.882812 -2.125 7.125 -2.5625 C 7.375 -3 7.5 -3.476562 7.5 -4 C 7.5 -4.519531 7.375 -5 7.125 -5.4375 C 6.875 -5.882812 6.535156 -6.238281 6.109375 -6.5 C 5.679688 -6.757812 5.210938 -6.890625 4.703125 -6.890625 C 4.191406 -6.890625 3.722656 -6.757812 3.296875 -6.5 C 2.878906 -6.238281 2.546875 -5.882812 2.296875 -5.4375 C 2.054688 -5 1.9375 -4.519531 1.9375 -4 Z M 1.9375 -4 "/></g></g></g><g fill="#000000" fill-opacity="1"><g transform="translate(186.139468, 244.840926)"><g><path d="M 2.265625 -2.890625 C 2.265625 -2.578125 2.34375 -2.285156 2.5 -2.015625 C 2.664062 -1.753906 2.882812 -1.546875 3.15625 -1.390625 C 3.4375 -1.234375 3.742188 -1.15625 4.078125 -1.15625 C 4.421875 -1.15625 4.734375 -1.234375 5.015625 -1.390625 C 5.304688 -1.546875 5.53125 -1.753906 5.6875 -2.015625 C 5.851562 -2.285156 5.9375 -2.578125 5.9375 -2.890625 L 5.9375 -8.03125 L 7.203125 -8.03125 L 7.203125 -2.859375 C 7.203125 -2.285156 7.0625 -1.773438 6.78125 -1.328125 C 6.507812 -0.878906 6.132812 -0.53125 5.65625 -0.28125 C 5.175781 -0.03125 4.648438 0.09375 4.078125 0.09375 C 3.503906 0.09375 2.976562 -0.03125 2.5 -0.28125 C 2.03125 -0.53125 1.660156 -0.878906 1.390625 -1.328125 C 1.117188 -1.773438 0.984375 -2.285156 0.984375 -2.859375 L 0.984375 -8.03125 L 2.265625 -8.03125 Z M 2.265625 -2.890625 "/></g></g></g><g fill="#000000" fill-opacity="1"><g transform="translate(196.431093, 244.840926)"><g><path d="M 5.5 0 L 3.6875 -2.796875 L 2.390625 -2.796875 L 2.390625 0 L 1.109375 0 L 1.109375 -8.03125 L 3.359375 -8.03125 C 4.253906 -8.03125 4.972656 -7.800781 5.515625 -7.34375 C 6.054688 -6.882812 6.328125 -6.253906 6.328125 -5.453125 C 6.328125 -4.953125 6.222656 -4.488281 6.015625 -4.0625 C 5.804688 -3.644531 5.476562 -3.320312 5.03125 -3.09375 L 6.984375 0 Z M 2.390625 -4.03125 L 3.546875 -4.03125 C 4.054688 -4.03125 4.425781 -4.171875 4.65625 -4.453125 C 4.894531 -4.734375 5.015625 -5.050781 5.015625 -5.40625 C 5.015625 -5.613281 4.96875 -5.820312 4.875 -6.03125 C 4.789062 -6.238281 4.640625 -6.414062 4.421875 -6.5625 C 4.210938 -6.71875 3.929688 -6.796875 3.578125 -6.796875 L 2.390625 -6.796875 Z M 2.390625 -4.03125 "/></g></g></g><g fill="#000000" fill-opacity="1"><g transform="translate(205.940607, 244.840926)"><g/></g></g><g fill="#000000" fill-opacity="1"><g transform="translate(211.594646, 244.840926)"><g><path d="M 0.609375 -4 C 0.609375 -4.738281 0.789062 -5.421875 1.15625 -6.046875 C 1.519531 -6.679688 2.015625 -7.1875 2.640625 -7.5625 C 3.273438 -7.9375 3.960938 -8.125 4.703125 -8.125 C 5.441406 -8.125 6.125 -7.9375 6.75 -7.5625 C 7.382812 -7.1875 7.890625 -6.679688 8.265625 -6.046875 C 8.640625 -5.410156 8.828125 -4.726562 8.828125 -4 C 8.828125 -3.257812 8.640625 -2.578125 8.265625 -1.953125 C 7.890625 -1.328125 7.382812 -0.828125 6.75 -0.453125 C 6.125 -0.0859375 5.441406 0.09375 4.703125 0.09375 C 3.960938 0.09375 3.273438 -0.0859375 2.640625 -0.453125 C 2.015625 -0.816406 1.519531 -1.3125 1.15625 -1.9375 C 0.789062 -2.5625 0.609375 -3.25 0.609375 -4 Z M 1.9375 -4 C 1.9375 -3.476562 2.0625 -3 2.3125 -2.5625 C 2.5625 -2.132812 2.898438 -1.789062 3.328125 -1.53125 C 3.753906 -1.269531 4.226562 -1.140625 4.75 -1.140625 C 5.25 -1.140625 5.707031 -1.265625 6.125 -1.515625 C 6.550781 -1.773438 6.882812 -2.125 7.125 -2.5625 C 7.375 -3 7.5 -3.476562 7.5 -4 C 7.5 -4.519531 7.375 -5 7.125 -5.4375 C 6.875 -5.882812 6.535156 -6.238281 6.109375 -6.5 C 5.679688 -6.757812 5.210938 -6.890625 4.703125 -6.890625 C 4.191406 -6.890625 3.722656 -6.757812 3.296875 -6.5 C 2.878906 -6.238281 2.546875 -5.882812 2.296875 -5.4375 C 2.054688 -5 1.9375 -4.519531 1.9375 -4 Z M 1.9375 -4 "/></g></g></g><g fill="#000000" fill-opacity="1"><g transform="translate(223.142054, 244.840926)"><g><path d="M 7.640625 0.359375 L 5.75 -4.4375 L 3.625 0.375 L 0.40625 -7.984375 L 1.90625 -7.984375 L 3.78125 -2.625 L 5.125 -6.046875 L 4.34375 -7.984375 L 5.609375 -7.984375 L 7.671875 -2.78125 L 9.40625 -7.984375 L 10.78125 -7.984375 Z M 7.640625 0.359375 "/></g></g></g><g fill="#000000" fill-opacity="1"><g transform="translate(236.440946, 244.840926)"><g><path d="M 8.203125 -8.03125 L 8.203125 0.28125 L 8.15625 0.28125 L 2.375 -5.328125 L 2.40625 0 L 1.109375 0 L 1.109375 -8.3125 L 1.171875 -8.3125 L 6.9375 -2.625 L 6.921875 -8.03125 Z M 8.203125 -8.03125 "/></g></g></g><g fill="#000000" fill-opacity="1"><g transform="translate(247.867184, 244.840926)"><g/></g></g><g fill="#000000" fill-opacity="1"><g transform="translate(253.521217, 244.840926)"><g><path d="M 2.390625 -8.03125 L 2.390625 -1.234375 L 6.359375 -1.234375 L 6.359375 0 L 1.109375 0 L 1.109375 -8.03125 Z M 2.390625 -8.03125 "/></g></g></g><g fill="#000000" fill-opacity="1"><g transform="translate(262.590099, 244.840926)"><g><path d="M 2.390625 -8.03125 L 2.390625 0 L 1.109375 0 L 1.109375 -8.03125 Z M 2.390625 -8.03125 "/></g></g></g><g fill="#000000" fill-opacity="1"><g transform="translate(268.211081, 244.840926)"><g><path d="M 5.984375 -8.03125 L 5.984375 -6.796875 L 2.390625 -6.796875 L 2.390625 -4.53125 L 5.515625 -4.53125 L 5.515625 -3.3125 L 2.390625 -3.3125 L 2.390625 0 L 1.109375 0 L 1.109375 -8.03125 Z M 5.984375 -8.03125 "/></g></g></g><g fill="#000000" fill-opacity="1"><g transform="translate(276.872393, 244.840926)"><g><path d="M 6.4375 -8.03125 L 6.4375 -6.796875 L 2.390625 -6.796875 L 2.390625 -4.65625 L 5.984375 -4.65625 L 5.984375 -3.421875 L 2.390625 -3.421875 L 2.390625 -1.234375 L 6.578125 -1.234375 L 6.578125 0 L 1.109375 0 L 1.109375 -8.03125 Z M 6.4375 -8.03125 "/></g></g></g></svg>